<?xml version="1.0" encoding="UTF-8"?>
<svg version="1.1" xmlns="http://www.w3.org/2000/svg" width="500" height="500">
<path d="M0 0 C26.4 0 52.8 0 80 0 C96.99258668 40.78220803 96.99258668 40.78220803 101.99606323 53.0355835 C107.76764026 67.16623808 113.58705078 81.27683778 119.4375 95.375 C119.96682129 96.65056763 119.96682129 96.65056763 120.50683594 97.9519043 C122.29328211 102.25639276 124.08030813 106.56064019 125.86767578 110.86474609 C129.37246449 119.30469027 132.87410454 127.74594028 136.375 136.1875 C136.89596756 137.44358063 136.89596756 137.44358063 137.42745972 138.72503662 C143.53421061 153.45002239 149.62205393 168.18278106 155.70443726 182.91784668 C161.70023743 197.44288371 167.71474708 211.96004532 173.7401123 226.47283936 C179.27996798 239.81914861 184.77609097 253.18296897 190.24499512 266.5585022 C193.74123981 275.10847865 197.2582477 283.64818801 200.85546875 292.15625 C201.31419876 293.24255203 201.31419876 293.24255203 201.78219604 294.35079956 C203.21629121 297.74473303 204.65569704 301.1362415 206.10449219 304.52392578 C206.6049707 305.7045459 207.10544922 306.88516602 207.62109375 308.1015625 C208.0586499 309.12588379 208.49620605 310.15020508 208.94702148 311.20556641 C211.43379992 317.80507162 211.43379992 317.80507162 210.29077148 320.95361328 C209.90477783 321.56962402 209.51878418 322.18563477 209.12109375 322.8203125 C208.69376953 323.5215625 208.26644531 324.2228125 207.82617188 324.9453125 C207.36791016 325.66460937 206.90964844 326.38390625 206.4375 327.125 C202.39294499 333.65432647 198.68989671 340.23518936 195 347 C168.6 347 142.2 347 115 347 C101.27990302 314.98644037 101.27990302 314.98644037 95.94433594 301.88183594 C94.6019927 298.58497432 93.25415848 295.29036418 91.90673828 291.99557495 C91.22517726 290.32894779 90.54385758 288.66222192 89.86279297 286.99539185 C86.93049552 279.82110144 83.9698183 272.65884663 81 265.5 C76.75114958 255.25251702 72.53287923 244.99288041 68.32748413 234.72750854 C61.77854737 218.74199085 55.18623672 202.77503082 48.56323242 186.82006836 C43.23747376 173.98957335 37.92677676 161.15292294 32.625 148.3125 C32.03576752 146.88550781 32.03576752 146.88550781 31.43463135 145.4296875 C29.43556937 140.58829084 27.4367141 135.74680888 25.43798828 130.90527344 C21.7204318 121.90034684 18.00158063 112.895955 14.28256226 103.89163208 C13.07406025 100.96549079 11.86575164 98.03926969 10.6574707 95.11303711 C6.98014452 86.20812957 3.29969901 77.30455718 -0.39364624 68.40628052 C-2.51864528 63.28563165 -4.63361036 58.16089271 -6.74511719 53.03466797 C-8.00020365 49.99950752 -9.26925659 46.97043273 -10.5390625 43.94140625 C-11.29747219 42.10701762 -12.05532322 40.27239788 -12.8125 38.4375 C-13.15692139 37.62716309 -13.50134277 36.81682617 -13.85620117 35.98193359 C-15.50430375 31.94736439 -16.08913072 30.35652287 -15 26 C-10.05 17.42 -5.1 8.84 0 0 Z " fill="#000000" transform="translate(211,20)"/>
<path d="M0 0 C13.20519961 10.37523858 21.7127978 25.20981651 23.95751953 41.87255859 C25.67189007 59.30199238 20.5022446 74.73089247 10.23876953 88.73193359 C1.78302538 98.95748466 -9.76318624 106.60516749 -22.76123047 109.73193359 C-23.46892578 109.91369141 -24.17662109 110.09544922 -24.90576172 110.28271484 C-42.46393193 113.04494408 -58.62961998 109.84339163 -73.42529297 99.95068359 C-83.64665486 92.22928328 -90.8613824 82.52611917 -95.76123047 70.73193359 C-96.10154297 69.91853516 -96.44185547 69.10513672 -96.79248047 68.26708984 C-101.27589804 55.12818556 -100.28143746 38.31246803 -94.76123047 25.73193359 C-94.15988281 24.34167969 -94.15988281 24.34167969 -93.54638672 22.92333984 C-86.25706229 8.02776383 -72.98007253 -3.11151813 -57.76123047 -9.26806641 C-37.70176494 -15.31307464 -17.07823386 -12.29613899 0 0 Z " fill="#000000" transform="translate(175.76123046875,258.26806640625)"/>
<path d="M0 0 C2.05922402 2.05922402 1.41427579 6.21708124 1.5625 9.0625 C1.60568359 9.82111328 1.64886719 10.57972656 1.69335938 11.36132812 C1.79973633 13.24065438 1.90039934 15.12030244 2 17 C1.26007813 16.70351563 0.52015625 16.40703125 -0.2421875 16.1015625 C-1.15226562 15.73804688 -2.06234375 15.37453125 -3 15 C-3.68320312 14.71898437 -4.36640625 14.43796875 -5.0703125 14.1484375 C-12.20425643 11.46303655 -19.40650268 10.4869485 -26.5625 13.5 C-27.366875 13.995 -28.17125 14.49 -29 15 C-29.66 15 -30.32 15 -31 15 C-33.85126175 22.03311232 -35.1055227 27.45069029 -32.8125 34.8125 C-30.56266969 38.76909813 -28.48824122 40.21736447 -24.19921875 41.56640625 C-21.50860783 42.09688194 -18.9906111 42.09512632 -16.25 42.0625 C-14.77273437 42.04896484 -14.77273437 42.04896484 -13.265625 42.03515625 C-12.14414063 42.01775391 -12.14414063 42.01775391 -11 42 C-11 39.69 -11 37.38 -11 35 C-12.2375 35.12375 -13.475 35.2475 -14.75 35.375 C-16.953125 35.375 -16.953125 35.375 -19 35 C-21.95481657 31.8974426 -22.96830851 30.08543356 -23.09375 25.7890625 C-23.0628125 24.86867188 -23.031875 23.94828125 -23 23 C-19.04172765 22.94214353 -15.0835633 22.90645283 -11.125 22.875 C-9.99707031 22.85824219 -8.86914062 22.84148437 -7.70703125 22.82421875 C-6.63066406 22.81777344 -5.55429687 22.81132812 -4.4453125 22.8046875 C-3.45031738 22.79421387 -2.45532227 22.78374023 -1.43017578 22.77294922 C1 23 1 23 3 25 C3.22705078 27.61376953 3.22705078 27.61376953 3.1953125 30.8828125 C3.18886719 32.04941406 3.18242187 33.21601563 3.17578125 34.41796875 C3.15902344 35.64128906 3.14226562 36.86460937 3.125 38.125 C3.11597656 39.35605469 3.10695313 40.58710938 3.09765625 41.85546875 C3.07402548 44.90383815 3.04108054 47.95182382 3 51 C1.41800369 51.64910154 -0.16565724 52.29414694 -1.75 52.9375 C-3.07257813 53.47697266 -3.07257813 53.47697266 -4.421875 54.02734375 C-13.08018445 57.29388777 -24.77801646 57.61088575 -33.5625 54.5 C-40.30391405 51.21542689 -45.30941509 46.15778192 -48.5 39.375 C-51.58730597 30.41629964 -51.21618738 20.68171773 -47.19140625 12.11328125 C-43.15179145 4.94793171 -37.48391157 0.53749417 -29.73046875 -2.12109375 C-20.09451075 -4.39134563 -9.1353076 -3.99799176 0 0 Z " fill="#000000" transform="translate(268,425)"/>
<path d="M0 0 C2.29109597 -0.08075665 4.58299267 -0.13907731 6.875 -0.1875 C8.78925781 -0.23970703 8.78925781 -0.23970703 10.7421875 -0.29296875 C11.81726563 -0.19628906 12.89234375 -0.09960938 14 0 C16.46380717 3.69571075 16.26232448 6.5021769 16.23828125 10.7734375 C16.25370136 12.33594618 16.27000502 13.89844635 16.28710938 15.4609375 C16.30355739 17.9188111 16.31249695 20.37606031 16.30541992 22.83398438 C16.30279542 25.21035011 16.3309486 27.58482475 16.36328125 29.9609375 C16.35307449 30.69130219 16.34286774 31.42166687 16.33235168 32.17416382 C16.40823129 36.14812287 16.8700616 37.84003327 19.40869141 40.96533203 C21.97392427 42.97952562 22.88654076 43.65153682 26.0625 43.5 C30.67823564 42.92245812 30.67823564 42.92245812 34 40 C35.25601811 35.97426648 35.22525657 31.91654958 35.31640625 27.734375 C35.33718735 26.94097717 35.35796844 26.14757935 35.37937927 25.33013916 C35.44459973 22.80351156 35.50363144 20.27678279 35.5625 17.75 C35.6057114 16.03384384 35.64932653 14.31769778 35.69335938 12.6015625 C35.80025283 8.40114454 35.90159729 4.20062511 36 0 C38.12472576 -0.05386629 40.24983652 -0.09273071 42.375 -0.125 C43.55835938 -0.14820313 44.74171875 -0.17140625 45.9609375 -0.1953125 C49 0 49 0 51 2 C51.23719162 4.82437577 51.35240346 7.54713259 51.37109375 10.375 C51.38463646 11.63364868 51.38463646 11.63364868 51.39845276 12.91772461 C51.41298351 14.69983342 51.42184899 16.48199592 51.42553711 18.26416016 C51.43733477 20.96221378 51.48640329 23.65790507 51.53710938 26.35546875 C51.7046391 43.8052309 51.7046391 43.8052309 46 51 C43.6484375 53.25390625 43.6484375 53.25390625 41.375 54.5625 C40.61960937 55.01753906 39.86421875 55.47257812 39.0859375 55.94140625 C32.1694805 59.45144342 22.28609446 59.25236009 14.8984375 57.09375 C9.14851607 54.38381724 4.88260583 51.06709824 2.14892578 45.16137695 C-0.97599479 36.297477 -0.32780253 27.1367319 -0.1875 17.875 C-0.17242553 16.13803244 -0.15874202 14.40105222 -0.14648438 12.6640625 C-0.11369824 8.44239148 -0.06206914 4.22133787 0 0 Z " fill="#000000" transform="translate(282,423)"/>
<path d="M0 0 C0.83265381 0.00523682 1.66530762 0.01047363 2.52319336 0.01586914 C3.42231445 0.0190918 4.32143555 0.02231445 5.24780273 0.02563477 C6.66609375 0.03820312 6.66609375 0.03820312 8.11303711 0.05102539 C9.06243164 0.05553711 10.01182617 0.06004883 10.98999023 0.06469727 C13.3435708 0.0765243 15.69701292 0.09384445 18.05053711 0.11352539 C20.87338696 6.16689538 23.21868909 12.24187404 25.24975586 18.60180664 C25.53027298 19.46742722 25.8107901 20.33304779 26.09980774 21.22489929 C26.68600908 23.03672833 27.26990374 24.84930519 27.8515625 26.66259766 C28.74173964 29.43756738 29.63867237 32.21028156 30.53686523 34.98266602 C31.10821763 36.75142066 31.67919459 38.52029664 32.24975586 40.28930664 C32.51640549 41.11537918 32.78305511 41.94145172 33.05778503 42.79255676 C33.30506851 43.56403549 33.55235199 44.33551422 33.80712891 45.13037109 C34.02378708 45.80493851 34.24044525 46.47950592 34.46366882 47.17451477 C34.75416862 48.13432503 34.75416862 48.13432503 35.05053711 49.11352539 C35.26285477 49.79936203 35.47517242 50.48519867 35.69392395 51.19181824 C36.05053711 53.11352539 36.05053711 53.11352539 34.99975586 55.84399414 C33.05053711 58.11352539 33.05053711 58.11352539 30.13256836 58.60180664 C29.05362305 58.54379883 27.97467773 58.48579102 26.86303711 58.42602539 C25.77635742 58.3809082 24.68967773 58.33579102 23.57006836 58.28930664 C22.32290039 58.20229492 22.32290039 58.20229492 21.05053711 58.11352539 C19.73427019 54.49379137 19.05053711 52.01785408 19.05053711 48.11352539 C15.42053711 48.11352539 11.79053711 48.11352539 8.05053711 48.11352539 C5.05571846 43.70938031 5.05571846 43.70938031 4.05053711 41.11352539 C4.80053711 37.67602539 4.80053711 37.67602539 6.05053711 35.11352539 C8.69053711 35.11352539 11.33053711 35.11352539 14.05053711 35.11352539 C13.76178711 34.20989258 13.47303711 33.30625977 13.17553711 32.37524414 C12.80428711 31.19575195 12.43303711 30.01625977 12.05053711 28.80102539 C11.49366211 27.04338867 11.49366211 27.04338867 10.92553711 25.25024414 C10.05053711 22.11352539 10.05053711 22.11352539 10.05053711 19.11352539 C9.06053711 19.44352539 8.07053711 19.77352539 7.05053711 20.11352539 C6.00819749 22.8427542 5.16407538 25.46387939 4.38647461 28.26977539 C4.14893463 29.08724243 3.91139465 29.90470947 3.66665649 30.74694824 C2.90786657 33.36592174 2.16611935 35.98935088 1.42553711 38.61352539 C0.67469067 41.23669325 -0.07961022 43.85881833 -0.83700562 46.48010254 C-1.30785957 48.11365204 -1.77429243 49.74848326 -2.23599243 51.38464355 C-3.83965546 57.00371796 -3.83965546 57.00371796 -4.94946289 58.11352539 C-7.34790039 58.35180664 -7.34790039 58.35180664 -10.32446289 58.42602539 C-11.79012695 58.48209961 -11.79012695 58.48209961 -13.28540039 58.53930664 C-15.94946289 58.11352539 -15.94946289 58.11352539 -17.92602539 56.65649414 C-20.48815499 50.29028663 -15.73400943 40.90316899 -13.72680664 34.64477539 C-13.42126358 33.68325562 -13.11572052 32.72173584 -12.80091858 31.7310791 C-12.15986915 29.71700495 -11.51689325 27.70354303 -10.87207031 25.69067383 C-9.88145533 22.59632162 -8.89845492 19.49962169 -7.91625977 16.40258789 C-7.29105688 14.44150746 -6.66542152 12.48056484 -6.03930664 10.51977539 C-5.59711037 9.12619812 -5.59711037 9.12619812 -5.14598083 7.70446777 C-4.87222122 6.85267944 -4.59846161 6.00089111 -4.31640625 5.12329102 C-4.07595078 4.3710022 -3.8354953 3.61871338 -3.5877533 2.84362793 C-2.71795036 0.48600473 -2.55172181 0.14859745 0 0 Z " fill="#000000" transform="translate(177.949462890625,422.886474609375)"/>
<path d="M0 0 C0.495 7.425 0.495 7.425 1 15 C-0.299375 14.525625 -1.59875 14.05125 -2.9375 13.5625 C-9.70889874 11.31601394 -15.96815308 10.3772661 -23 12 C-22.67 13.65 -22.34 15.3 -22 17 C-20.91460937 17.31453125 -19.82921875 17.6290625 -18.7109375 17.953125 C-17.26546723 18.38488885 -15.82016343 18.81721025 -14.375 19.25 C-13.66214844 19.45496094 -12.94929688 19.65992188 -12.21484375 19.87109375 C-6.59296877 21.5731293 -1.91848937 23.59479028 1.84765625 28.31640625 C4.12889651 33.62898949 3.584833 39.34439901 3 45 C0.62259452 50.51558072 -2.79654796 52.44557809 -8 55 C-12.092765 56.364255 -15.90122953 56.18423053 -20.1875 56.1875 C-21.01314453 56.19974609 -21.83878906 56.21199219 -22.68945312 56.22460938 C-28.13183431 56.23747552 -32.77349474 55.5251509 -38 54 C-38 49.05 -38 44.1 -38 39 C-36.618125 39.309375 -35.23625 39.61875 -33.8125 39.9375 C-32.98492187 40.11925781 -32.15734375 40.30101562 -31.3046875 40.48828125 C-29.67824165 40.84940736 -28.056106 41.23021805 -26.4375 41.625 C-21.86721244 42.32812116 -17.42426367 42.47475456 -13 41 C-13 39.35 -13 37.7 -13 36 C-16.45981582 34.53960673 -19.85792129 33.4679044 -23.5 32.5625 C-28.88430722 31.10259388 -32.37682621 29.66704336 -36.3125 25.625 C-38.86582944 20.14007009 -38.75020044 14.94855903 -38 9 C-35.47884215 3.67755566 -31.78291938 0.12201518 -26.296875 -2.08984375 C-17.58966905 -4.49361032 -8.10491902 -3.96975626 0 0 Z " fill="#000000" transform="translate(431,425)"/>
<path d="M0 0 C5.51754805 -0.07402793 11.03480856 -0.12854366 16.55273438 -0.16479492 C18.43071526 -0.17990325 20.30866076 -0.20039094 22.18652344 -0.22631836 C24.88225019 -0.26261246 27.57751146 -0.27970545 30.2734375 -0.29296875 C31.11619232 -0.30845261 31.95894714 -0.32393646 32.82723999 -0.33988953 C35.19287109 -0.34057617 35.19287109 -0.34057617 39 0 C41 3 41 3 41 13 C28.625 13.495 28.625 13.495 16 14 C16 23.57 16 33.14 16 43 C23.4788599 43.20996802 23.4788599 43.20996802 30.95849609 43.38793945 C32.35189209 43.43760864 32.35189209 43.43760864 33.7734375 43.48828125 C34.72653809 43.51446533 35.67963867 43.54064941 36.66162109 43.56762695 C37.81911865 43.78165161 37.81911865 43.78165161 39 44 C41.28062828 47.42094242 41.21925007 48.68187222 41.125 52.6875 C41.10695313 53.68136719 41.08890625 54.67523438 41.0703125 55.69921875 C41.04710937 56.45847656 41.02390625 57.21773438 41 58 C35.64320272 58.09882689 30.28693515 58.17144782 24.92944336 58.21972656 C23.1067582 58.23985059 21.28413766 58.26715296 19.46166992 58.30175781 C16.84277412 58.35024268 14.22473121 58.37296009 11.60546875 58.390625 C10.78974899 58.41127014 9.97402924 58.43191528 9.1335907 58.45318604 C3.46293827 58.45543863 3.46293827 58.45543863 1.28198242 56.30981445 C-0.26904479 53.515248 -0.36290743 51.77479297 -0.34057617 48.58886719 C-0.34034958 47.50804871 -0.34012299 46.42723022 -0.33988953 45.31365967 C-0.32440567 44.15312073 -0.30892181 42.99258179 -0.29296875 41.796875 C-0.28872391 40.60394836 -0.28447906 39.41102173 -0.28010559 38.1819458 C-0.26331023 34.37106781 -0.22565518 30.56071822 -0.1875 26.75 C-0.17245433 24.1666743 -0.15876572 21.58334032 -0.14648438 19 C-0.11340381 12.66648632 -0.06319524 6.33328091 0 0 Z " fill="#000000" transform="translate(343,423)"/>
<path d="M0 0 C5.51754805 -0.07402793 11.03480856 -0.12854366 16.55273438 -0.16479492 C18.43071526 -0.17990325 20.30866076 -0.20039094 22.18652344 -0.22631836 C24.88225019 -0.26261246 27.57751146 -0.27970545 30.2734375 -0.29296875 C31.11619232 -0.30845261 31.95894714 -0.32393646 32.82723999 -0.33988953 C35.19287109 -0.34057617 35.19287109 -0.34057617 39 0 C41 3 41 3 41 13 C32.42 13 23.84 13 15 13 C15 23.23 15 33.46 15 44 C22.43453479 43.88146495 22.43453479 43.88146495 29.8684082 43.72973633 C30.79484131 43.72224365 31.72127441 43.71475098 32.67578125 43.70703125 C33.62364502 43.6913208 34.57150879 43.67561035 35.5480957 43.65942383 C38 44 38 44 41 47 C41 50.63 41 54.26 41 58 C28.13 58 15.26 58 2 58 C0.04642301 54.09284601 -0.24651067 52.75328416 -0.22705078 48.58886719 C-0.22689972 47.50804871 -0.22674866 46.42723022 -0.22659302 45.31365967 C-0.21627045 44.15312073 -0.20594788 42.99258179 -0.1953125 41.796875 C-0.1924826 40.60394836 -0.18965271 39.41102173 -0.18673706 38.1819458 C-0.17554053 34.37119524 -0.15043653 30.56067955 -0.125 26.75 C-0.11496954 24.16667006 -0.1058438 21.58333644 -0.09765625 19 C-0.07560289 12.66658651 -0.04213035 6.33331003 0 0 Z " fill="#000000" transform="translate(112,423)"/>
<path d="M0 0 C2.12472576 -0.05386629 4.24983652 -0.09273071 6.375 -0.125 C7.55835937 -0.14820313 8.74171875 -0.17140625 9.9609375 -0.1953125 C13 0 13 0 15 2 C15.24050903 3.83499146 15.24050903 3.83499146 15.22705078 6.08251953 C15.22682419 7.34360031 15.22682419 7.34360031 15.22659302 8.63015747 C15.21627045 9.53853363 15.20594788 10.44690979 15.1953125 11.3828125 C15.1924826 12.31221649 15.18965271 13.24162048 15.18673706 14.19918823 C15.17552069 17.1745885 15.1504136 20.14969035 15.125 23.125 C15.11497208 25.13931858 15.1058459 27.15364186 15.09765625 29.16796875 C15.07557661 34.11209456 15.04103693 39.05599665 15 44 C15.65597168 43.98428955 16.31194336 43.9685791 16.98779297 43.95239258 C19.95010816 43.89016348 22.9122861 43.85104832 25.875 43.8125 C26.90753906 43.78736328 27.94007812 43.76222656 29.00390625 43.73632812 C29.99003906 43.72666016 30.97617188 43.71699219 31.9921875 43.70703125 C32.90339355 43.6913208 33.81459961 43.67561035 34.75341797 43.65942383 C35.86547607 43.82800903 35.86547607 43.82800903 37 44 C39.28062828 47.42094242 39.21925007 48.68187222 39.125 52.6875 C39.10695312 53.68136719 39.08890625 54.67523438 39.0703125 55.69921875 C39.04710937 56.45847656 39.02390625 57.21773438 39 58 C33.76728431 58.07403712 28.53487199 58.12854783 23.30175781 58.16479492 C21.52077933 58.17990173 19.73983816 58.20038835 17.95898438 58.22631836 C15.40225022 58.26261943 12.8460069 58.27970688 10.2890625 58.29296875 C9.49005524 58.30845261 8.69104797 58.32393646 7.86782837 58.33988953 C5.62353516 58.34057617 5.62353516 58.34057617 2 58 C-0.2443195 54.63352075 -0.2450516 53.54377354 -0.22705078 49.6105957 C-0.22689972 48.50968094 -0.22674866 47.40876617 -0.22659302 46.27449036 C-0.21627045 45.08691635 -0.20594788 43.89934235 -0.1953125 42.67578125 C-0.19106766 40.85097481 -0.19106766 40.85097481 -0.18673706 38.98930359 C-0.17552603 35.09693642 -0.15041948 31.20479784 -0.125 27.3125 C-0.11497141 24.67643561 -0.10584535 22.04036762 -0.09765625 19.40429688 C-0.07558366 12.93611968 -0.04209688 6.46807617 0 0 Z " fill="#000000" transform="translate(66,423)"/>
<path d="M0 0 C5.94 0 11.88 0 18 0 C20.45943295 4.9188659 20.15932336 7.58300589 20 13 C14.39 13 8.78 13 3 13 C0 7 0 7 0 0 Z " fill="#000000" transform="translate(362,445)"/>
<path d="M0 0 C2.79224073 -0.08071788 5.58216566 -0.14035408 8.375 -0.1875 C9.1690625 -0.21263672 9.963125 -0.23777344 10.78125 -0.26367188 C12.85586148 -0.29004405 14.93100865 -0.15486462 17 0 C19.20914 3.31371 19.22481553 4.3446021 19.125 8.1875 C19.10695312 9.08855469 19.08890625 9.98960937 19.0703125 10.91796875 C19.04710937 11.60503906 19.02390625 12.29210937 19 13 C16.3941111 13.13494246 13.79517889 13.23402299 11.1875 13.3125 C10.08051758 13.3753418 10.08051758 13.3753418 8.95117188 13.43945312 C6.79296875 13.48828125 6.79296875 13.48828125 3 13 C0.1194092 10.10822244 -0.15138925 7.60877986 -0.1875 3.6875 C-0.125625 2.470625 -0.06375 1.25375 0 0 Z " fill="#000000" transform="translate(131,445)"/>
</svg>
