<?xml version="1.0" encoding="UTF-8"?>
<svg version="1.1" xmlns="http://www.w3.org/2000/svg" width="800" height="458">
<path d="M0 0 C5.75539739 -0.09076853 11.5028563 -0.05525555 17.2578125 0.05029297 C18.30710937 0.06817871 19.35640625 0.08606445 20.4375 0.10449219 C102.08609655 1.68978948 184.07137011 16.70393277 334.66015625 101.60498047 C336.82904485 103.64667109 339.0368612 105.57799733 341.3203125 107.48779297 C362.84102086 126.30177306 378.66793733 151.96562229 387.2578125 179.05029297 C387.61576904 180.16911865 387.61576904 180.16911865 387.98095703 181.31054688 C394.26394666 202.05891545 393.75113524 228.43868783 387.2578125 249.05029297 C387.04350586 249.73397949 386.82919922 250.41766602 386.60839844 251.12207031 C378.60330362 275.76075007 364.11369211 296.67740365 346.5703125 315.48779297 C345.66236938 316.46280762 345.66236938 316.46280762 344.73608398 317.45751953 C340.47892068 321.94821272 335.9850035 326.06022328 331.2578125 330.05029297 C330.68635498 330.53328857 330.11489746 331.01628418 329.52612305 331.51391602 C255.7337845 393.10684578 156.66813668 417.80734444 -2.7421875 428.05029297 C-3.79148437 428.03240723 -4.84078125 428.01452148 -5.921875 427.99609375 C-53.80174733 427.06645337 -101.17585753 421.27863918 -147.7421875 410.05029297 C-148.40953918 409.89022766 -149.07689087 409.73016235 -149.76446533 409.56524658 C-199.28204774 397.641654 -250.06433551 378.78325189 -291.7421875 349.05029297 C-292.80518066 348.29643311 -292.80518066 348.29643311 -293.88964844 347.52734375 C-304.11901746 340.24317531 -313.6540067 332.71112984 -322.7421875 324.05029297 C-324.08973029 322.896677 -325.44328948 321.75002505 -326.8046875 320.61279297 C-348.32539586 301.79881288 -364.15231233 276.13496365 -372.7421875 249.05029297 C-372.9808252 248.30440918 -373.21946289 247.55852539 -373.46533203 246.79003906 C-379.74832166 226.04167049 -379.23551024 199.6618981 -372.7421875 179.05029297 C-372.52788086 178.36660645 -372.31357422 177.68291992 -372.09277344 176.97851562 C-355.42931075 125.69046343 -311.70214735 88.19555975 -265.7421875 63.05029297 C-264.85789062 62.56560547 -263.97359375 62.08091797 -263.0625 61.58154297 C-239.49461335 48.7627491 -215.166421 38.57722335 -189.7421875 30.05029297 C-188.70078613 29.69870117 -187.65938477 29.34710938 -186.58642578 28.98486328 C-157.75968951 19.36828247 -127.7481233 12.72410112 -97.7421875 8.05029297 C-96.61184082 7.87159668 -95.48149414 7.69290039 -94.31689453 7.50878906 C-63.04704576 2.64771301 -31.61631625 0.57985765 0 0 Z " fill="#02529B" transform="translate(392.7421875,14.94970703125)"/>
<path d="M0 0 C38.61 0 77.22 0 117 0 C121.01929688 12.06949219 125.03859375 24.13898438 129.1796875 36.57421875 C131.72249108 44.20773737 134.26537044 51.84123061 136.80859375 59.47460938 C140.84772243 71.59793301 144.88653618 83.72136094 148.92333984 95.84545898 C151.86309517 104.67468765 154.80390261 113.50356504 157.74597752 122.33202106 C159.30394746 127.00723529 160.86138759 131.68262452 162.41756821 136.35843468 C163.88218247 140.75906262 165.3482026 145.15921966 166.8153038 149.55901909 C167.35358512 151.17413824 167.89135192 152.78942896 168.42856598 154.40490341 C169.16216168 156.61066668 169.89760703 158.81580482 170.6335144 161.02079773 C171.04463408 162.25507854 171.45575375 163.48935934 171.87933159 164.76104259 C172.57721194 166.77805736 173.3254119 168.77921035 174.14790535 170.74870014 C175 173 175 173 175 176 C175.99 176 176.98 176 178 176 C177.99247208 175.33228577 177.98494415 174.66457153 177.97718811 173.97662354 C177.77141836 152.41394699 178.47202528 130.92860255 179.33239746 109.38647461 C179.64419016 101.56522171 179.94692831 93.74362001 180.24609375 85.921875 C180.27911968 85.06396866 180.31214561 84.20606232 180.34617233 83.32215881 C180.91680115 68.40558844 181.32623212 53.48786451 181.63609314 38.56365967 C181.91547673 25.69278694 182.46365931 12.8721765 183 0 C239.1 0 295.2 0 353 0 C354.98842806 15.90742449 355.1994391 31.98878199 356 48 C321.68 48 287.36 48 252 48 C252 58.56 252 69.12 252 80 C274.77 80 297.54 80 321 80 C323 113 323 113 323 123 C299.24 123 275.48 123 251 123 C251 146.76 251 170.52 251 195 C203.15 195 155.3 195 106 195 C100 170 100 170 100 164 C70.96 164 41.92 164 12 164 C11.01 166.97 11.01 166.97 10 170 C5.71 178.25 1.42 186.5 -3 195 C-28.41 195 -53.82 195 -80 195 C-78.45770867 191.14427169 -76.98728107 188.14436671 -74.83203125 184.66796875 C-74.19394531 183.63478516 -73.55585937 182.60160156 -72.8984375 181.53710938 C-71.86589844 179.87905273 -71.86589844 179.87905273 -70.8125 178.1875 C-70.08954421 177.02036778 -69.36689271 175.85304703 -68.64453125 174.68554688 C-63.34008927 166.12095958 -57.99656914 157.58059256 -52.64770508 149.04370117 C-48.06147644 141.71833323 -43.52222873 134.36502242 -39 127 C-33.86921176 118.64386133 -28.70675581 110.3090174 -23.5 102 C-16.23129917 90.39903076 -9.05908503 78.7398495 -1.89160156 67.07617188 C5.26781452 55.43334242 12.46388323 43.81403326 19.75 32.25 C20.26401367 31.43281494 20.77802734 30.61562988 21.30761719 29.77368164 C21.77844727 29.02852295 22.24927734 28.28336426 22.734375 27.515625 C23.14913086 26.85852539 23.56388672 26.20142578 23.99121094 25.52441406 C25 24 25 24 26 23 C27.48638992 22.84344973 28.97949127 22.74933057 30.47265625 22.68359375 C31.37177734 22.64169922 32.27089844 22.59980469 33.19726562 22.55664062 C34.14279297 22.51732422 35.08832031 22.47800781 36.0625 22.4375 C37.01189453 22.39431641 37.96128906 22.35113281 38.93945312 22.30664062 C41.29281353 22.20020724 43.64628354 22.09818992 46 22 C45.06841064 21.57702637 44.13682129 21.15405273 43.17700195 20.71826172 C39.65614834 19.11954346 36.13553647 17.52029344 32.61499023 15.92089844 C31.10333538 15.23423431 29.59161862 14.54770645 28.07983398 13.86132812 C18.70544988 9.60505283 9.34138143 5.32836046 0 1 C0 0.67 0 0.34 0 0 Z " fill="#FDFEFE" transform="translate(162,127)"/>
<path d="M0 0 C7.26 0 14.52 0 22 0 C23.42587934 13.09152945 24.63723808 26.17601416 25.65625 39.3046875 C25.80536151 41.20347487 25.95465792 43.10224774 26.10412598 45.00100708 C26.41489743 48.95562866 26.72399309 52.91037617 27.03173828 56.86523438 C27.41901291 61.84140522 27.80970024 66.81730056 28.20149231 71.79311752 C29.59232069 89.4649175 30.97314653 107.13759143 32.21875 124.8203125 C32.30072632 125.9631369 32.38270264 127.1059613 32.46716309 128.28341675 C32.53922974 129.33215973 32.61129639 130.38090271 32.68554688 131.46142578 C32.74705933 132.34726349 32.80857178 133.2331012 32.87194824 134.14578247 C33.0341178 137.76047079 33 141.38167572 33 145 C61.05 145 89.1 145 118 145 C112.36239103 150.63760897 112.36239103 150.63760897 108.98046875 152.69140625 C108.21822998 153.15506592 107.45599121 153.61872559 106.6706543 154.09643555 C105.85121338 154.58023682 105.03177246 155.06403809 104.1875 155.5625 C103.31585205 156.07917236 102.4442041 156.59584473 101.54614258 157.12817383 C68.56221894 176.38263027 31.93422771 190.3671295 -5.61523438 197.54150391 C-7.77512234 197.95676492 -9.92683351 198.39807801 -12.078125 198.85546875 C-15.71143776 199.61691834 -19.3507309 200.31942891 -23 201 C-24.25425781 201.24492187 -25.50851562 201.48984375 -26.80078125 201.7421875 C-93.96703443 214.08208945 -166.24744996 207.59309256 -231 187 C-232.25804443 186.60458008 -232.25804443 186.60458008 -233.54150391 186.20117188 C-266.23904796 175.78702693 -296.73851767 159.77434364 -324 139 C-322.26302158 130.31510792 -318.28936519 122.22341298 -315 114 C-292.56 114 -270.12 114 -247 114 C-245.20453133 119.38640602 -243.96968016 124.52017492 -242.875 130.0625 C-242.69324219 130.94744141 -242.51148438 131.83238281 -242.32421875 132.74414062 C-242.06705078 134.03288086 -242.06705078 134.03288086 -241.8046875 135.34765625 C-241.64983887 136.12117432 -241.49499023 136.89469238 -241.33544922 137.69165039 C-241 140 -241 140 -241 145 C-183.25 145 -125.5 145 -66 145 C-66 121.57 -66 98.14 -66 74 C-42.9 74 -19.8 74 4 74 C3.34 68.06 2.68 62.12 2 56 C1.75624683 51.17770788 1.54979811 46.38584094 1.4375 41.5625 C1.24527171 34.18829556 0.93876965 26.89336369 0.21166992 19.55200195 C-0.11321003 15.63508143 -0.10790943 11.73981278 -0.0625 7.8125 C-0.041875 5.234375 -0.02125 2.65625 0 0 Z " fill="#E01E31" transform="translate(498,202)"/>
<path d="M0 0 C34.98 0 69.96 0 106 0 C103.45629565 1.6958029 101.21980244 2.8582773 98.43676758 4.06298828 C97.05567558 4.66338425 97.05567558 4.66338425 95.64668274 5.27590942 C94.65597275 5.70306244 93.66526276 6.13021545 92.64453125 6.5703125 C91.62775803 7.0114035 90.6109848 7.45249451 89.56340027 7.9069519 C86.31428299 9.31571638 83.06342061 10.72040267 79.8125 12.125 C77.60990993 13.0791591 75.40743452 14.03358292 73.20507812 14.98828125 C67.80471124 17.32859506 62.40277569 19.66525277 57 22 C62.94 22.33 68.88 22.66 75 23 C77.33927744 40.66588396 79.67285888 58.33251312 82 76 C82.11510925 76.87321899 82.23021851 77.74643799 82.34881592 78.64611816 C84.30998603 93.52759863 86.19992733 108.41666246 87.97549438 123.32144165 C88.1562891 124.83860976 88.33788901 126.35568216 88.52035522 127.87265015 C88.77190094 129.96943173 89.01940086 132.06665015 89.265625 134.1640625 C89.47880371 135.96544678 89.47880371 135.96544678 89.69628906 137.80322266 C90 141 90 141 90 146 C120.03 146 150.06 146 181 146 C185.50873265 162.90774742 185.50873265 162.90774742 186.921875 169.140625 C187.07158752 169.80036316 187.22130005 170.46010132 187.37554932 171.13983154 C187.68262533 172.49670627 187.98829247 173.85390069 188.29248047 175.21142578 C188.75937294 177.29176312 189.23298854 179.37050031 189.70703125 181.44921875 C190.00820777 182.78376502 190.30900421 184.11839715 190.609375 185.453125 C190.87717773 186.64067383 191.14498047 187.82822266 191.42089844 189.05175781 C192 192 192 192 192 195 C133.59 195 75.18 195 15 195 C13.02 168.93 11.04 142.86 9 116 C6.7110616 87.75473061 6.7110616 87.75473061 4.39453125 59.51171875 C2.81550682 39.68324116 1.41719291 19.84070074 0 0 Z " fill="#FEFEFE" transform="translate(529,127)"/>
<path d="M0 0 C7.92 0 15.84 0 24 0 C24 15.18 24 30.36 24 46 C33.57 46 43.14 46 53 46 C53 31.48 53 16.96 53 2 C61.06943701 2.8069437 68.9857799 3.82143822 77 5 C77 13.25 77 21.5 77 30 C86.9 30 96.8 30 107 30 C107 23.73 107 17.46 107 11 C148.17784042 16.14723005 204.41960094 36.41960094 234 66 C137.97 66 41.94 66 -57 66 C-57 80.19 -57 94.38 -57 109 C-57.22541613 118.87672815 -57.45392816 128.73999483 -57.79956055 138.61108398 C-57.91769853 141.99526667 -58.02862473 145.37952507 -58.13556576 148.76406956 C-58.24151265 152.09414522 -58.35323321 155.42401541 -58.46484375 158.75390625 C-58.50343002 159.94544815 -58.5420163 161.13699005 -58.58177185 162.36463928 C-58.81621694 168.9450228 -59.24042152 175.45862816 -60 182 C-61.73882414 179.39176378 -62.58515487 177.59503891 -63.53369141 174.67944336 C-63.96739044 173.35752991 -63.96739044 173.35752991 -64.40985107 172.00891113 C-64.72061584 171.0456189 -65.03138062 170.08232666 -65.3515625 169.08984375 C-65.68295227 168.07474731 -66.01434204 167.05965088 -66.35577393 166.01379395 C-67.45024184 162.65654673 -68.5378104 159.2971106 -69.625 155.9375 C-70.38273673 153.60612363 -71.14071498 151.27482575 -71.89892578 148.94360352 C-74.27440007 141.63179287 -76.6384972 134.31633322 -79 127 C-79.38502686 125.80777832 -79.77005371 124.61555664 -80.16674805 123.38720703 C-82.74346895 115.40630978 -85.31180369 107.42275014 -87.875 99.4375 C-88.21492981 98.38045868 -88.55485962 97.32341736 -88.90509033 96.23434448 C-89.87425164 93.21826239 -90.84001593 90.20111444 -91.8046875 87.18359375 C-92.08523987 86.31166382 -92.36579224 85.43973389 -92.65484619 84.54138184 C-94.61494285 78.39066713 -96.29743494 72.24273856 -98 66 C-134.96 66 -171.92 66 -210 66 C-205.4903537 61.4903537 -205.4903537 61.4903537 -202.5234375 59.5546875 C-201.8624707 59.122771 -201.20150391 58.69085449 -200.52050781 58.24584961 C-199.81249023 57.79346924 -199.10447266 57.34108887 -198.375 56.875 C-197.62573242 56.39490479 -196.87646484 55.91480957 -196.10449219 55.42016602 C-165.03014993 35.73522324 -131.47798255 22.39588423 -96 13 C-94.81132324 12.67322266 -94.81132324 12.67322266 -93.59863281 12.33984375 C-89.83504497 11.33434527 -86.9717909 11 -83 11 C-83 17.27 -83 23.54 -83 30 C-73.1 30 -63.2 30 -53 30 C-53 21.75 -53 13.5 -53 5 C-48.17375 4.2575 -48.17375 4.2575 -43.25 3.5 C-41.73841309 3.26506836 -41.73841309 3.26506836 -40.19628906 3.02539062 C-39.39416992 2.90357422 -38.59205078 2.78175781 -37.765625 2.65625 C-36.94868164 2.53056641 -36.13173828 2.40488281 -35.29003906 2.27539062 C-33 2 -33 2 -29 2 C-29 16.52 -29 31.04 -29 46 C-19.43 46 -9.86 46 0 46 C0 30.82 0 15.64 0 0 Z " fill="#E01E31" transform="translate(388,49)"/>
<path d="M0 0 C1.47331776 -0.00322876 2.94663523 -0.00659392 4.41995239 -0.01008606 C7.49416849 -0.01602912 10.5683567 -0.01793121 13.64257812 -0.01733398 C16.74322392 -0.01725313 19.8437207 -0.0241386 22.94433594 -0.0378418 C47.53111642 -0.14460291 71.50119449 1.08585593 95.8203125 4.91796875 C97.06776749 5.11155472 97.06776749 5.11155472 98.34042358 5.30905151 C111.69410556 7.39337111 124.83382464 9.97264095 137.89501953 13.48291016 C140.23880893 14.11249785 142.58788557 14.71275574 144.94140625 15.3046875 C167.44322255 21.10084324 189.42500385 29.31318202 210.4453125 39.16796875 C211.37424316 39.60222168 212.30317383 40.03647461 213.26025391 40.48388672 C226.6105367 46.78927481 239.20180609 53.91899812 251.4453125 62.16796875 C252.09467773 62.60496094 252.74404297 63.04195312 253.41308594 63.4921875 C262.24145432 69.49160146 270.4485437 76.10614555 278.4453125 83.16796875 C279.21488281 83.84279297 279.21488281 83.84279297 280 84.53125 C309.77564575 110.75497861 333.57970048 146.64896565 336.4453125 187.16796875 C337.91435456 219.22988464 337.91435456 219.22988464 332.4453125 230.16796875 C325.1853125 230.16796875 317.9253125 230.16796875 310.4453125 230.16796875 C311.50230732 220.65501538 311.50230732 220.65501538 312.5078125 215.91796875 C318.09467852 182.1835335 307.04170071 147.2657634 287.5078125 119.79296875 C285.86018516 117.552054 284.16809612 115.35151976 282.4453125 113.16796875 C282.02169434 112.63010742 281.59807617 112.09224609 281.16162109 111.53808594 C270.13926272 97.71764862 257.65950825 85.65665361 243.4453125 75.16796875 C242.87312988 74.74032227 242.30094727 74.31267578 241.71142578 73.87207031 C220.59419812 58.13392772 196.98687529 45.64746457 172.4453125 36.16796875 C171.48753906 35.78962891 170.52976562 35.41128906 169.54296875 35.02148438 C148.33543355 26.71765124 126.57029093 21.39872321 104.4453125 16.16796875 C104.4453125 23.09796875 104.4453125 30.02796875 104.4453125 37.16796875 C101.8053125 37.16796875 99.1653125 37.16796875 96.4453125 37.16796875 C96.4453125 29.57796875 96.4453125 21.98796875 96.4453125 14.16796875 C88.86829473 13.478648 88.86829473 13.478648 81.29077148 12.79492188 C77.87802858 12.48843085 74.46565064 12.17835426 71.0534668 11.86572266 C69.59038256 11.73243076 68.12716216 11.60062616 66.66381836 11.47021484 C64.52681843 11.27949156 62.39034304 11.0836373 60.25390625 10.88671875 C58.99376709 10.77263672 57.73362793 10.65855469 56.43530273 10.54101562 C53.4453125 10.16796875 53.4453125 10.16796875 51.4453125 9.16796875 C51.4453125 24.01796875 51.4453125 38.86796875 51.4453125 54.16796875 C48.4753125 54.16796875 45.5053125 54.16796875 42.4453125 54.16796875 C42.4453125 38.98796875 42.4453125 23.80796875 42.4453125 8.16796875 C27.9253125 8.16796875 13.4053125 8.16796875 -1.5546875 8.16796875 C-1.5546875 23.34796875 -1.5546875 38.52796875 -1.5546875 54.16796875 C-4.5246875 54.16796875 -7.4946875 54.16796875 -10.5546875 54.16796875 C-10.5546875 39.31796875 -10.5546875 24.46796875 -10.5546875 9.16796875 C-20.12683788 10.43469819 -20.12683788 10.43469819 -29.69775391 11.71069336 C-38.31734276 12.83708466 -46.87369935 13.62895315 -55.5546875 14.16796875 C-55.5546875 21.75796875 -55.5546875 29.34796875 -55.5546875 37.16796875 C-58.1946875 37.16796875 -60.8346875 37.16796875 -63.5546875 37.16796875 C-63.5546875 30.23796875 -63.5546875 23.30796875 -63.5546875 16.16796875 C-123.03935962 30.27258173 -179.5751472 51.20791802 -224.5546875 94.16796875 C-225.49183594 95.05226563 -226.42898437 95.9365625 -227.39453125 96.84765625 C-252.25675289 120.90787074 -271.39007611 155.7321731 -272.64819336 190.7722168 C-272.68784177 193.48825637 -272.6913121 196.2016862 -272.6796875 198.91796875 C-272.68355469 199.83707031 -272.68742187 200.75617188 -272.69140625 201.703125 C-272.68947266 203.03923828 -272.68947266 203.03923828 -272.6875 204.40234375 C-272.68637207 205.19866211 -272.68524414 205.99498047 -272.68408203 206.81542969 C-272.54480451 209.34765262 -272.07000687 211.68700817 -271.5546875 214.16796875 C-270.47826253 222.46000882 -272.70006958 227.34972136 -277.3671875 234.10546875 C-277.91439453 234.94142578 -278.46160156 235.77738281 -279.02539062 236.63867188 C-281.32361292 240.10689825 -283.51951874 243.30263897 -286.5546875 246.16796875 C-298.84815927 211.47413933 -299.30654538 176.19902159 -283.6171875 142.359375 C-271.19245372 116.72168419 -252.77041441 94.87662013 -230.5546875 77.16796875 C-229.83410156 76.55695313 -229.11351562 75.9459375 -228.37109375 75.31640625 C-179.27303138 34.1825572 -113.03622406 12.94721505 -50.5546875 4.16796875 C-48.55856436 3.8778063 -46.56247035 3.58744336 -44.56640625 3.296875 C-42.6460522 3.02319943 -40.72548714 2.75099923 -38.8046875 2.48046875 C-37.96043213 2.3609082 -37.11617676 2.24134766 -36.24633789 2.11816406 C-24.17882067 0.48437874 -12.1688618 0.00640723 0 0 Z " fill="#F9FBFC" transform="translate(379.5546875,30.83203125)"/>
<path d="M0 0 C2.72350535 2.04931738 4.88028067 4.454461 7.05078125 7.05859375 C7.52757324 7.63013184 8.00436523 8.20166992 8.49560547 8.79052734 C21.79969994 25.11411456 32.15866813 43.93365003 36.98828125 64.49609375 C37.28476562 65.55183594 37.58125 66.60757813 37.88671875 67.6953125 C42.56386658 85.82462403 40.52824073 105.56013791 35.98828125 123.49609375 C28.60100023 123.52136067 21.21373027 123.53892535 13.82641602 123.55102539 C11.3111123 123.55606738 8.79581153 123.56290078 6.28051758 123.5715332 C2.6739835 123.58360469 -0.93251198 123.58932324 -4.5390625 123.59375 C-6.23747536 123.60149193 -6.23747536 123.60149193 -7.97019958 123.60939026 C-9.53170494 123.60950356 -9.53170494 123.60950356 -11.12475586 123.60961914 C-12.04630966 123.61183975 -12.96786346 123.61406036 -13.91734314 123.61634827 C-16.01171875 123.49609375 -16.01171875 123.49609375 -17.01171875 122.49609375 C-17.41172566 119.76376835 -17.75455256 117.04395708 -18.0625 114.30078125 C-18.16117371 113.45413406 -18.25984741 112.60748688 -18.36151123 111.73518372 C-18.5745238 109.90491242 -18.78565941 108.07442192 -18.99514771 106.2437439 C-19.54841182 101.41398367 -20.11673345 96.58599258 -20.68359375 91.7578125 C-20.79683487 90.79049698 -20.91007599 89.82318146 -21.02674866 88.82655334 C-21.99174731 80.60538077 -23.01072077 72.39261949 -24.07421875 64.18359375 C-24.23220947 62.9620459 -24.3902002 61.74049805 -24.55297852 60.48193359 C-25.38483416 54.11329096 -26.25049171 47.7502158 -27.1484375 41.390625 C-27.28893272 40.39116096 -27.28893272 40.39116096 -27.43226624 39.37150574 C-27.87918933 36.19415614 -28.33130619 33.01774 -28.79321289 29.8425293 C-29.57457836 24.34066041 -30.2379467 19.05483769 -30.01171875 13.49609375 C-28.9959375 12.98820313 -27.98015625 12.4803125 -26.93359375 11.95703125 C-26.27262695 11.62622559 -25.61166016 11.29541992 -24.93066406 10.95458984 C-23.47792623 10.22887502 -22.0241376 9.50526007 -20.56933594 8.78369141 C-17.15830832 7.08871011 -13.76377503 5.37944071 -10.41796875 3.55859375 C-9.37640625 3.00171875 -8.33484375 2.44484375 -7.26171875 1.87109375 C-6.33875 1.36320313 -5.41578125 0.8553125 -4.46484375 0.33203125 C-2.01171875 -0.50390625 -2.01171875 -0.50390625 0 0 Z " fill="#E01E31" transform="translate(648.01171875,137.50390625)"/>
<path d="M0 0 C3.83253129 -0.20505665 7.66363766 -0.32820828 11.5 -0.4375 C13.11648437 -0.52547852 13.11648437 -0.52547852 14.765625 -0.61523438 C20.39010752 -0.73526906 24.03664359 -0.61857736 28.33984375 3.22265625 C29.56319342 4.47856716 30.78342162 5.73752875 32 7 C34.27311566 8.7515553 36.65637915 10.31272884 39.0625 11.875 C40.02349609 12.50607666 40.02349609 12.50607666 41.00390625 13.14990234 C84.79049205 41.68173767 134.37277358 59.31516499 186 67 C187.25731934 67.19464844 188.51463867 67.38929688 189.81005859 67.58984375 C229.42163136 73.58377245 272.40605976 74.34081359 312 68 C312.73806885 67.88358154 313.4761377 67.76716309 314.23657227 67.6472168 C334.09846276 64.50304091 353.76231901 60.95107182 373 55 C374.40060959 54.5857758 375.80163871 54.17296697 377.203125 53.76171875 C407.23042394 44.82051528 436.35284566 32.19735225 462.5 14.875 C463.25442383 14.37718018 464.00884766 13.87936035 464.78613281 13.36645508 C468.05407818 11.1647584 471.13672578 8.97651783 473.98046875 6.2421875 C481.67117556 -0.83814576 488.40306451 -0.78311472 498.43237305 -0.45996094 C500.95829563 -0.33738584 503.4781649 -0.18750299 506 0 C506 0.66 506 1.32 506 2 C503.7273195 3.90562577 501.44869504 5.68299346 499.0625 7.4375 C498.34175293 7.97101074 497.62100586 8.50452148 496.87841797 9.05419922 C469.92198334 28.79193039 440.07811384 43.91468059 408.62158203 55.06103516 C406.33732697 55.87918052 404.07136783 56.73014558 401.80859375 57.60546875 C329.06567768 85.34710894 239.60386087 87.898025 164 73 C163.21061035 72.84950195 162.4212207 72.69900391 161.60791016 72.54394531 C156.04439221 71.47716282 150.52041883 70.26983731 145 69 C143.98518555 68.76974121 142.97037109 68.53948242 141.92480469 68.30224609 C109.48247522 60.85497383 78.42864989 49.58072644 49 34 C48.28537598 33.62407715 47.57075195 33.2481543 46.83447266 32.86083984 C35.67845725 26.95272243 25.24578605 20.36329486 15 13 C14.29020996 12.49694336 13.58041992 11.99388672 12.84912109 11.47558594 C10.72661529 9.97125341 8.61188438 8.4566983 6.5 6.9375 C5.84620361 6.472229 5.19240723 6.00695801 4.51879883 5.52758789 C2.9748725 4.40162941 1.48150265 3.2069138 0 2 C0 1.34 0 0.68 0 0 Z " fill="#F8FAFC" transform="translate(147,347)"/>
<path d="M0 0 C1.65 0 3.3 0 5 0 C9.08285722 17.11825449 13.11156513 34.24582397 16.875 51.4375 C17.01970734 52.09564697 17.16441467 52.75379395 17.31350708 53.43188477 C19.03479792 61.27322513 20.56253677 69.09395226 22 77 C2.2 77 -17.6 77 -38 77 C-32.67694711 65.76244391 -27.35512944 54.5636332 -21.77734375 43.45703125 C-21.1398412 42.18390184 -20.5025215 40.91068086 -19.8653717 39.63737488 C-18.22495286 36.36027207 -16.58213279 33.0843794 -14.9387207 29.80877686 C-13.2473405 26.43643034 -11.55835659 23.06288407 -9.86914062 19.68945312 C-6.58170501 13.12515888 -3.29171901 6.56214754 0 0 Z " fill="#01539B" transform="translate(231,178)"/>
<path d="M0 0 C4.95757898 1.54826599 9.63810401 3.51780938 14.375 5.625 C15.47908203 6.11226562 15.47908203 6.11226562 16.60546875 6.609375 C18.40470969 7.40384503 20.20250496 8.20158771 22 9 C21.3762638 12.01710352 20.39706702 14.2910981 18.8046875 16.921875 C18.34416992 17.68709473 17.88365234 18.45231445 17.40917969 19.24072266 C16.90290039 20.06878418 16.39662109 20.8968457 15.875 21.75 C15.07690918 23.06750244 15.07690918 23.06750244 14.26269531 24.41162109 C9.52721237 32.20071176 4.69593211 39.92999172 -0.14892578 47.65136719 C-4.80679925 55.07614246 -9.41455105 62.53030868 -14 70 C-19.46168303 78.88589572 -24.93238217 87.76594609 -30.4375 96.625 C-31.40526367 98.19121094 -31.40526367 98.19121094 -32.39257812 99.7890625 C-32.98361328 100.7378125 -33.57464844 101.6865625 -34.18359375 102.6640625 C-34.70493896 103.50404785 -35.22628418 104.3440332 -35.76342773 105.20947266 C-36.17149658 105.80034668 -36.57956543 106.3912207 -37 107 C-37.33 107 -37.66 107 -38 107 C-40.43156771 92.74395381 -39.89717785 77.90390527 -36 64 C-35.75636719 62.93652344 -35.51273437 61.87304688 -35.26171875 60.77734375 C-29.49407505 37.40608611 -15.71756246 17.75446127 0 0 Z " fill="#DE1E32" transform="translate(151,138)"/>
<path d="M0 0 C4.6424664 1.6962858 7.62741674 3.61984628 10 8 C10.7518087 13.0938875 10.85568359 17.42027646 8.375 22 C4.16680588 25.54374242 0.99022632 27.31567571 -4.5625 26.9375 C-8.67022589 26.30128656 -11.09653723 25.07943022 -14 22 C-16.67644413 17.52338526 -16.91964266 13.08141538 -16 8 C-12.04431539 1.25349497 -7.76888936 -0.79718081 0 0 Z " fill="#145FA2" transform="translate(691,334)"/>
<path d="M0 0 C4.6424664 1.6962858 7.62741674 3.61984628 10 8 C10.7518087 13.0938875 10.85568359 17.42027646 8.375 22 C4.16680588 25.54374242 0.99022632 27.31567571 -4.5625 26.9375 C-8.67022589 26.30128656 -11.09653723 25.07943022 -14 22 C-16.67644413 17.52338526 -16.91964266 13.08141538 -16 8 C-12.04431539 1.25349497 -7.76888936 -0.79718081 0 0 Z M-13 7 C-14.63865585 10.2773117 -14.64613137 13.47161594 -14 17 C-12.50709478 20.03709344 -10.80407382 22.09621164 -8 24 C-4.08868906 25.08763727 -0.70825757 24.94310053 2.875 22.96484375 C5.56468425 20.85059675 6.91335896 19.25992311 8 16 C8.37935127 11.90300628 8.44928789 9.72206983 6.25 6.1875 C2.96556392 2.99429825 1.19035586 2.15430539 -3.375 1.5625 C-8.1853299 2.14305706 -9.61392593 3.61392593 -13 7 Z " fill="#E8EFF6" transform="translate(691,334)"/>
<path d="M0 0 C8.625 -0.25 8.625 -0.25 12 2 C12.1875 5.125 12.1875 5.125 12 8 C11.34 8 10.68 8 10 8 C10.66 10.31 11.32 12.62 12 15 C10.68 15 9.36 15 8 15 C7.34 13.02 6.68 11.04 6 9 C5.34 9 4.68 9 4 9 C4 11.31 4 13.62 4 16 C2.68 16 1.36 16 0 16 C0 10.72 0 5.44 0 0 Z " fill="#CBDCEA" transform="translate(682,339)"/>
<path d="M0 0 C0 4.95 0 9.9 0 15 C1.32 15 2.64 15 4 15 C4 12.69 4 10.38 4 8 C4.66 8 5.32 8 6 8 C6.61875 9.423125 6.61875 9.423125 7.25 10.875 C9.0040131 14.00716624 9.70851757 14.86500606 13 16 C9.4580666 18.36128893 7.4610646 18.60596972 3.296875 18.50390625 C-0.25053628 17.72564765 -1.86631621 15.95410146 -3.96484375 13.078125 C-5.79128508 9.41145787 -5.6741949 7.04516941 -5 3 C-2.09375 0 -2.09375 0 0 0 Z " fill="#08579E" transform="translate(682,340)"/>
<path d="M0 0 C0.33 0 0.66 0 1 0 C1.33770059 3.63028129 1.28595853 5.52706859 -0.625 8.6875 C-3.85933979 11.83672559 -6.56216248 13.89232166 -11.2109375 14.09765625 C-16.19623759 13.75812584 -19.56134475 12.86848715 -23 9 C-23.8125 6.25 -23.8125 6.25 -24 4 C-23.34 4 -22.68 4 -22 4 C-20.9790625 5.485 -20.9790625 5.485 -19.9375 7 C-18.28773985 9.06587175 -17.4383054 9.89022478 -14.84765625 10.5390625 C-10.9431948 10.68198788 -8.55882823 10.31585943 -5.125 8.375 C-2.78175932 5.75608395 -1.38918197 3.21705298 0 0 Z " fill="#D2E0ED" transform="translate(700,347)"/>
<path d="M0 0 C1.98 0 3.96 0 6 0 C5.01 0.33 4.02 0.66 3 1 C3 2.98 3 4.96 3 7 C3.66 7.33 4.32 7.66 5 8 C4.34 8 3.68 8 3 8 C3 9.98 3 11.96 3 14 C2.01 14 1.02 14 0 14 C0 9.38 0 4.76 0 0 Z " fill="#FFFFFF" transform="translate(683,340)"/>
<path d="M0 0 C2.475 0.495 2.475 0.495 5 1 C4.67 1.99 4.34 2.98 4 4 C2.68 4 1.36 4 0 4 C0 2.68 0 1.36 0 0 Z " fill="#0B599F" transform="translate(686,342)"/>
</svg>
