<?xml version="1.0" encoding="UTF-8"?>
<svg version="1.1" xmlns="http://www.w3.org/2000/svg" width="3840" height="2400">
<path d="M0 0 C1.94422852 0.05897461 1.94422852 0.05897461 3.92773438 0.11914062 C5.18779297 0.16103516 6.44785156 0.20292969 7.74609375 0.24609375 C9.42529907 0.30108032 9.42529907 0.30108032 11.13842773 0.35717773 C14.28742019 0.54600502 17.37827283 0.90730341 20.50462341 1.31971741 C23.95898126 1.727253 27.42177969 1.89029461 30.89453125 2.0625 C32.4498731 2.14577154 34.00521155 2.22910669 35.56054688 2.3125 C37.9809708 2.43886454 40.40145728 2.5638515 42.82202148 2.6875 C45.17972544 2.80897977 47.53711997 2.93548529 49.89453125 3.0625 C50.61953323 3.09794922 51.34453522 3.13339844 52.09150696 3.16992188 C55.13194201 3.33548282 57.65675627 3.59391876 60.5625 4.5625 C62.26575299 4.7545776 63.97397815 4.90414044 65.68359375 5.02734375 C66.69599121 5.10412354 67.70838867 5.18090332 68.75146484 5.26000977 C69.82348145 5.33920654 70.89549805 5.41840332 72 5.5 C79.44145861 6.08024677 86.76713172 6.74418493 94.109375 8.12890625 C96.63588233 8.57547044 99.13219585 8.83910685 101.6875 9.0625 C104.90786891 9.3505863 108.00578346 9.80968214 111.16796875 10.48046875 C115.69829495 11.40910204 120.23826536 12.18009184 124.80493164 12.90600586 C136.86299001 14.82621892 148.75626819 17.22958244 160.6640625 19.91699219 C163.64716547 20.58135575 166.63479459 21.21997745 169.625 21.8515625 C178.86048859 23.80668899 187.99205097 25.83237992 197.0390625 28.55078125 C200.40308405 29.51672535 203.77343145 30.35214284 207.17675781 31.16357422 C225.48526001 35.54899726 243.38409347 41.47034648 261.25 47.375 C262.45837524 47.77307861 262.45837524 47.77307861 263.69116211 48.17919922 C268.52193605 49.79843602 273.24563526 51.60882402 277.96606445 53.5246582 C281.57349311 54.96661206 285.21522364 56.30936492 288.85864258 57.65722656 C304.38026796 63.39941974 319.88529913 69.32179848 334.88671875 76.33203125 C337.63817465 77.59729929 340.4147836 78.79661489 343.19750977 79.99121094 C355.85247086 85.4403556 368.03931574 91.71204577 380.18920898 98.19775391 C385.10851099 100.81663033 390.06899679 103.33837401 395.0625 105.8125 C400.65086573 108.5890045 406.16653625 111.42689272 411.5625 114.5625 C412.38113525 115.03647217 412.38113525 115.03647217 413.21630859 115.52001953 C434.86904519 128.07917581 456.32153632 141.01171628 476.83789062 155.36474609 C478.6392298 156.61578941 480.45078314 157.85066575 482.265625 159.08203125 C499.19559235 170.5827185 515.49001339 182.8976816 531.5625 195.5625 C532.99335938 196.68591797 532.99335938 196.68591797 534.453125 197.83203125 C539.66289134 201.95783008 544.7380713 206.23001077 549.7890625 210.54736328 C553.76301972 213.93069348 557.8427276 217.13272098 562.05078125 220.22265625 C562.54964844 220.66480469 563.04851562 221.10695313 563.5625 221.5625 C563.5625 222.2225 563.5625 222.8825 563.5625 223.5625 C564.10390625 223.78550781 564.6453125 224.00851562 565.203125 224.23828125 C568.31219848 225.98327448 570.74123831 228.31546413 573.3125 230.75 C574.38470789 231.75075992 575.45762502 232.7507605 576.53125 233.75 C577.31048828 234.47703125 577.31048828 234.47703125 578.10546875 235.21875 C579.97116529 236.93939239 581.88561785 238.59838673 583.8125 240.25 C587.26902946 243.24039997 590.46514361 246.44098637 593.6640625 249.703125 C595.39543679 251.3988743 597.16991743 252.92698809 599.0625 254.4375 C599.8875 255.13875 600.7125 255.84 601.5625 256.5625 C601.5625 257.2225 601.5625 257.8825 601.5625 258.5625 C602.5525 258.8925 603.5425 259.2225 604.5625 259.5625 C604.5625 260.2225 604.5625 260.8825 604.5625 261.5625 C605.5525 261.8925 606.5425 262.2225 607.5625 262.5625 C607.5625 263.2225 607.5625 263.8825 607.5625 264.5625 C608.09875 264.76875 608.635 264.975 609.1875 265.1875 C612.48228009 267.09500426 615.15613628 269.61069384 617.5625 272.5625 C617.5625 273.2225 617.5625 273.8825 617.5625 274.5625 C618.2225 274.5625 618.8825 274.5625 619.5625 274.5625 C620.90234375 275.92578125 620.90234375 275.92578125 622.5 277.875 C625.53129287 281.45053335 628.724897 284.77080626 632.0625 288.0625 C635.78913117 291.7432862 639.36110696 295.49550363 642.76171875 299.48046875 C644.93574202 301.99403578 647.18640488 304.43026229 649.4375 306.875 C653.50667391 311.33638345 657.36227816 315.92194718 661.15234375 320.62109375 C663.37970804 323.33941678 665.6552053 326.00353702 667.95727539 328.65820312 C673.62571295 335.19587886 679.009235 341.88192518 684.22021484 348.79052734 C685.66458946 350.69726997 687.12195222 352.59353978 688.58203125 354.48828125 C699.89807294 369.18356292 711.05488052 383.96073006 721.20068359 399.49414062 C722.7283833 401.81444753 724.2785455 404.11875508 725.83203125 406.421875 C741.48161231 429.65073301 755.74511023 453.61408471 769.23388672 478.15234375 C770.6495726 480.72045308 772.07665984 483.2820495 773.50390625 485.84375 C779.84675351 497.28082048 785.75170876 508.84280245 791.24121094 520.71240234 C792.67241389 523.79959068 794.12092235 526.87834251 795.5703125 529.95703125 C800.64826921 540.7923952 805.58429159 551.63810304 809.88916016 562.80688477 C811.44141151 566.82902893 813.09617249 570.75957185 814.91796875 574.66796875 C818.11387992 581.62277942 820.77291348 588.76789931 823.4375 595.9375 C823.69984436 596.64014984 823.96218872 597.34279968 824.23248291 598.06674194 C828.61475208 609.81268197 832.75461128 621.61676463 836.5625 633.5625 C836.81692871 634.35333984 837.07135742 635.14417969 837.33349609 635.95898438 C838.86446637 640.71942074 840.36666664 645.48798153 841.84619141 650.26464844 C842.52533878 652.44329024 843.22046435 654.61624284 843.91796875 656.7890625 C855.80583031 694.45290729 863.95457872 733.59063353 870.5 772.5 C870.6931781 773.64779938 870.6931781 773.64779938 870.89025879 774.81878662 C873.46603571 790.22777835 875.44535229 805.6770574 877.18066406 821.20068359 C877.49246408 823.9458794 877.82488522 826.68591919 878.1796875 829.42578125 C879.67635144 841.25011606 880.24725026 853.1425544 880.86572266 865.03881836 C880.90484268 865.76734512 880.94396271 866.49587189 880.98426819 867.24647522 C881.09166519 869.25513584 881.19452626 871.26403749 881.29711914 873.27294922 C881.42914246 876.33097619 881.42914246 876.33097619 882.07099915 878.26748657 C882.80287784 881.68491998 882.70121491 885.09388609 882.69189453 888.57226562 C882.69364685 889.37597092 882.69539917 890.17967621 882.69720459 891.00773621 C882.70160176 893.66142951 882.69869261 896.31505603 882.6953125 898.96875 C882.69598615 900.81433118 882.69695669 902.65991228 882.69821167 904.50549316 C882.69968575 908.37232305 882.69754337 912.23912983 882.69287109 916.10595703 C882.68717399 921.0625416 882.69045454 926.01907202 882.69644356 930.9756546 C882.70005697 934.78632007 882.69890698 938.5969727 882.69631577 942.40763855 C882.69564866 944.23528551 882.69646738 946.06293363 882.69879532 947.89057922 C882.7013346 950.44466236 882.69746319 952.99865777 882.69189453 955.55273438 C882.69493088 956.6859034 882.69493088 956.6859034 882.69802856 957.84196472 C882.68429415 961.24214061 882.54547566 964.30140161 881.5625 967.5625 C881.3930788 969.66265021 881.26719994 971.76645896 881.16796875 973.87109375 C881.1019043 975.15564453 881.03583984 976.44019531 880.96777344 977.76367188 C880.93292847 978.45130615 880.8980835 979.13894043 880.86218262 979.84741211 C878.74943212 1020.38739276 873.68451758 1061.19956498 865.12841797 1100.88818359 C864.55809829 1103.58330086 864.02477276 1106.28319893 863.50390625 1108.98828125 C861.8396275 1117.63099218 859.97891012 1126.12697718 857.62109375 1134.61328125 C856.34362864 1139.27333003 855.27881966 1143.98113012 854.1875 1148.6875 C851.86338221 1158.62885496 849.12136653 1168.42176908 846.24707031 1178.21630859 C845.61968808 1180.36650232 845.00506409 1182.51965398 844.3984375 1184.67578125 C844.06070313 1185.87589844 843.72296875 1187.07601563 843.375 1188.3125 C843.09269531 1189.31796875 842.81039062 1190.3234375 842.51953125 1191.359375 C841.2942083 1195.46045588 839.93573992 1199.5089006 838.5625 1203.5625 C838.23757568 1204.52655762 837.91265137 1205.49061523 837.57788086 1206.48388672 C832.68115621 1220.96590256 827.60122236 1235.36750206 822.25 1249.6875 C822.00178497 1250.35532501 821.75356995 1251.02315002 821.49783325 1251.71121216 C818.83392787 1258.86640478 816.03559174 1265.91320876 812.81079102 1272.83691406 C810.46586195 1277.95695867 808.35340071 1283.17737441 806.1875 1288.375 C802.82931946 1296.36856522 799.40511633 1304.23130404 795.4140625 1311.9296875 C793.45233445 1315.72439837 791.64180662 1319.58737005 789.81884766 1323.45019531 C785.28105582 1333.05831588 780.57951144 1342.56700161 775.6875 1352 C775.15237793 1353.03552002 774.61725586 1354.07104004 774.06591797 1355.13793945 C771.49665411 1360.05706122 768.83087343 1364.829805 765.83422852 1369.49951172 C763.7831597 1372.82673988 761.97119467 1376.28128029 760.11572266 1379.72021484 C757.59560028 1384.33185657 754.92888725 1388.8542517 752.25 1393.375 C751.67950928 1394.33784912 751.10901855 1395.30069824 750.52124023 1396.29272461 C746.03462782 1403.83111878 741.40605269 1411.24744627 736.5625 1418.5625 C736.05106445 1419.33916016 735.53962891 1420.11582031 735.01269531 1420.91601562 C727.55900311 1432.22773546 719.97179753 1443.42904118 712.08203125 1454.44140625 C711.0383352 1455.89828789 709.99678257 1457.35670671 708.95703125 1458.81640625 C698.1974028 1473.92077778 686.77812944 1488.38323836 675.04785156 1502.74072266 C673.71195103 1504.37919895 672.38288316 1506.02324048 671.0546875 1507.66796875 C666.77840455 1512.94999769 662.36073405 1518.0447591 657.7734375 1523.05859375 C654.74574726 1526.48747969 651.96201575 1530.08838841 649.19140625 1533.7265625 C648.65386719 1534.33242187 648.11632813 1534.93828125 647.5625 1535.5625 C646.9025 1535.5625 646.2425 1535.5625 645.5625 1535.5625 C645.30597656 1536.14773438 645.04945312 1536.73296875 644.78515625 1537.3359375 C643.45687838 1539.75484608 641.99725199 1541.29448872 640 1543.1875 C637.42234611 1545.60771959 637.42234611 1545.60771959 635.5625 1548.5625 C634.9025 1548.5625 634.2425 1548.5625 633.5625 1548.5625 C633.17862122 1549.4333725 633.17862122 1549.4333725 632.7869873 1550.32183838 C631.44126997 1552.78433608 629.95079186 1554.42812621 627.97070312 1556.41308594 C626.86946106 1557.52378448 626.86946106 1557.52378448 625.74597168 1558.65692139 C624.95323853 1559.44560608 624.16050537 1560.23429077 623.34375 1561.046875 C622.53006958 1561.86246887 621.71638916 1562.67806274 620.87805176 1563.51837158 C619.15895354 1565.23882978 617.43733106 1566.9567689 615.71337891 1568.67236328 C613.06570366 1571.30930932 610.42888469 1573.9567738 607.79296875 1576.60546875 C606.123037 1578.27407942 604.45248522 1579.94206986 602.78125 1581.609375 C601.98851685 1582.40615662 601.19578369 1583.20293823 600.37902832 1584.02386475 C599.64486694 1584.7517218 598.91070557 1585.47957886 598.15429688 1586.22949219 C597.50746948 1586.87472839 596.86064209 1587.5199646 596.19421387 1588.18475342 C594.5625 1589.5625 594.5625 1589.5625 592.5625 1589.5625 C592.2325 1590.5525 591.9025 1591.5425 591.5625 1592.5625 C589.85546875 1594.31640625 589.85546875 1594.31640625 587.75 1596.125 C586.71939453 1597.02412109 586.71939453 1597.02412109 585.66796875 1597.94140625 C583.69694155 1599.45898749 581.82285739 1600.54152958 579.5625 1601.5625 C579.5625 1602.2225 579.5625 1602.8825 579.5625 1603.5625 C578.3046875 1604.8671875 578.3046875 1604.8671875 576.4375 1606.4375 C575.33341797 1607.37529297 575.33341797 1607.37529297 574.20703125 1608.33203125 C573.33433594 1609.06808594 572.46164062 1609.80414062 571.5625 1610.5625 C570.54442748 1611.44007919 569.52756878 1612.31906785 568.51171875 1613.19921875 C554.8365604 1625.02938007 540.87215003 1636.50820831 526.5625 1647.5625 C525.79454102 1648.15788574 525.02658203 1648.75327148 524.23535156 1649.36669922 C506.8343573 1662.83570549 488.93055239 1675.45319139 470.5625 1687.5625 C469.47710938 1688.31273437 468.39171875 1689.06296875 467.2734375 1689.8359375 C464.5625 1691.5625 464.5625 1691.5625 462.5625 1691.5625 C462.2325 1692.2225 461.9025 1692.8825 461.5625 1693.5625 C453.48006229 1699.34670809 444.58754714 1704.12806491 436 1709.125 C433.49816928 1710.58373054 430.99710756 1712.04377572 428.49609375 1713.50390625 C427.59552246 1714.02879387 427.59552246 1714.02879387 426.67675781 1714.56428528 C423.11776452 1716.64168216 419.58162555 1718.75291759 416.05859375 1720.890625 C412.51015067 1723.02812308 408.92565243 1724.95780096 405.1875 1726.75 C400.25196626 1729.15107047 395.44549502 1731.72316656 390.66430664 1734.41821289 C379.47572367 1740.71668478 367.98322053 1746.10787153 356.26660156 1751.34619141 C352.53414677 1753.0250547 348.82813286 1754.75765991 345.125 1756.5 C342.93768819 1757.52123649 340.75021246 1758.54212207 338.5625 1759.5625 C337.63824219 1759.995625 336.71398438 1760.42875 335.76171875 1760.875 C334.95347656 1761.24625 334.14523437 1761.6175 333.3125 1762 C332.64734375 1762.30808594 331.9821875 1762.61617187 331.296875 1762.93359375 C329.5625 1763.5625 329.5625 1763.5625 326.5625 1763.5625 C326.2325 1764.2225 325.9025 1764.8825 325.5625 1765.5625 C323.13399634 1766.58109748 320.72976631 1767.49947342 318.25 1768.375 C316.76368037 1768.91490103 315.27800513 1769.45657924 313.79296875 1770 C313.06255371 1770.26683594 312.33213867 1770.53367187 311.57958984 1770.80859375 C309.04079103 1771.75749362 306.55176967 1772.80338615 304.0625 1773.875 C297.89831273 1776.48521447 291.64099888 1778.83538554 285.375 1781.1875 C283.84166016 1781.76431519 283.84166016 1781.76431519 282.27734375 1782.3527832 C277.7241889 1784.05393351 273.16371247 1785.73510407 268.57421875 1787.3359375 C267.89190186 1787.57489746 267.20958496 1787.81385742 266.5065918 1788.06005859 C264.5625 1788.5625 264.5625 1788.5625 260.5625 1788.5625 C260.2325 1789.2225 259.9025 1789.8825 259.5625 1790.5625 C257.41015625 1791.30859375 257.41015625 1791.30859375 254.625 1792 C247.83819688 1793.74718476 241.13288237 1795.67137128 234.5 1797.9375 C222.05036857 1802.12183979 209.35870504 1805.47718688 196.61328125 1808.62011719 C194.29853976 1809.19094266 191.98512175 1809.76689993 189.671875 1810.34375 C177.70996825 1813.31917899 165.74763915 1816.24718437 153.625 1818.5 C152.73804443 1818.6662085 151.85108887 1818.83241699 150.93725586 1819.00366211 C149.07821378 1819.35112068 147.21891783 1819.6972236 145.359375 1820.04199219 C142.60282711 1820.55499499 139.84825097 1821.0776943 137.09375 1821.6015625 C125.91012227 1823.70642214 114.72108765 1825.43278831 103.4375 1826.90625 C99.58636928 1827.4126678 95.7628437 1828.01009539 91.9375 1828.6875 C87.05618889 1829.54225925 82.1969348 1829.98687101 77.25390625 1830.31640625 C74.61286511 1830.50549654 74.61286511 1830.50549654 72.26049805 1831.04663086 C69.3971848 1831.594109 66.61046292 1831.85383493 63.703125 1832.0625 C62.02863281 1832.18625 62.02863281 1832.18625 60.3203125 1832.3125 C58.58394531 1832.43625 58.58394531 1832.43625 56.8125 1832.5625 C47.96240945 1833.17619828 47.96240945 1833.17619828 39.13671875 1834.05859375 C2.81717761 1838.28141184 -33.98969664 1836.7243872 -70.4375 1835.5625 C-72.25169434 1835.50642578 -72.25169434 1835.50642578 -74.10253906 1835.44921875 C-85.22630668 1835.09156263 -96.20257276 1834.38645372 -107.25 1833.03515625 C-112.68348757 1832.38643846 -118.13100947 1832.09457055 -123.59375 1831.80859375 C-126.4375 1831.5625 -126.4375 1831.5625 -128.4375 1830.5625 C-131.37531464 1830.23308144 -134.30590059 1829.94710217 -137.25 1829.6875 C-151.73679395 1828.32527937 -166.15139522 1826.33629845 -180.4375 1823.5625 C-182.08685547 1823.25892578 -182.08685547 1823.25892578 -183.76953125 1822.94921875 C-195.39980349 1820.80522418 -206.99060548 1818.4678058 -218.58398438 1816.13378906 C-221.03910756 1815.64226029 -223.49538057 1815.15789628 -225.953125 1814.6796875 C-234.65230818 1812.97922988 -243.25586239 1811.06117036 -251.7734375 1808.59765625 C-256.37216465 1807.29844229 -261.00533782 1806.17430703 -265.65234375 1805.0625 C-269.39619937 1804.14622176 -272.87188109 1803.0057267 -276.4375 1801.5625 C-278.84669827 1800.88934166 -281.26427295 1800.24576495 -283.6875 1799.625 C-289.3685319 1798.16938291 -294.88720228 1796.45234297 -300.4375 1794.5625 C-302.06200617 1794.02324963 -303.68701932 1793.48552446 -305.3125 1792.94921875 C-315.6991351 1789.50882207 -326.04620584 1785.97986302 -336.35058594 1782.30078125 C-338.52389277 1781.53193709 -340.70246616 1780.77988308 -342.8828125 1780.03125 C-350.01136335 1777.57377589 -356.94388124 1775.01250405 -363.765625 1771.77734375 C-366.78041425 1770.40658431 -369.83854297 1769.2300648 -372.9375 1768.0625 C-377.83260432 1766.21247231 -382.57339378 1764.17073216 -387.31640625 1761.96484375 C-393.94633082 1758.98594147 -400.70555132 1756.30105357 -407.4375 1753.5625 C-407.4375 1752.9025 -407.4375 1752.2425 -407.4375 1751.5625 C-408.49396729 1751.39814453 -408.49396729 1751.39814453 -409.57177734 1751.23046875 C-412.76052983 1750.48720526 -415.34976062 1749.31558404 -418.2890625 1747.875 C-419.38734375 1747.34132813 -420.485625 1746.80765625 -421.6171875 1746.2578125 C-422.75414063 1745.69835938 -423.89109375 1745.13890625 -425.0625 1744.5625 C-427.32478784 1743.4568323 -429.58777646 1742.35259697 -431.8515625 1741.25 C-432.8513916 1740.75886719 -433.8512207 1740.26773437 -434.88134766 1739.76171875 C-437.46821398 1738.48745773 -437.46821398 1738.48745773 -440.4375 1737.5625 C-440.4375 1736.9025 -440.4375 1736.2425 -440.4375 1735.5625 C-440.99872559 1735.44567871 -441.55995117 1735.32885742 -442.13818359 1735.20849609 C-446.72721691 1733.9192009 -450.85777569 1731.39359825 -455.0625 1729.1875 C-456.0848877 1728.65310303 -457.10727539 1728.11870605 -458.16064453 1727.56811523 C-466.11786652 1723.36155331 -473.81538206 1718.82934856 -481.4296875 1714.03515625 C-487.56981386 1710.18850499 -493.92471888 1706.73539337 -500.4375 1703.5625 C-500.4375 1702.9025 -500.4375 1702.2425 -500.4375 1701.5625 C-501.16630371 1701.28809082 -501.89510742 1701.01368164 -502.64599609 1700.73095703 C-510.92846595 1697.26411247 -518.39240141 1691.68294501 -525.8125 1686.6875 C-527.6730677 1685.43863911 -529.53374388 1684.18993982 -531.39453125 1682.94140625 C-532.71251709 1682.05606201 -532.71251709 1682.05606201 -534.05712891 1681.15283203 C-536.85451623 1679.28389039 -539.67808608 1677.45662744 -542.5 1675.625 C-548.85566198 1671.40003272 -554.90084302 1666.75935467 -560.97973633 1662.14990234 C-566.95948349 1657.62650469 -573.03851394 1653.32690663 -579.296875 1649.19921875 C-580.00328125 1648.65910156 -580.7096875 1648.11898438 -581.4375 1647.5625 C-581.4375 1646.9025 -581.4375 1646.2425 -581.4375 1645.5625 C-582.00339844 1645.30597656 -582.56929687 1645.04945312 -583.15234375 1644.78515625 C-585.70005465 1643.42202204 -587.76066138 1641.82614929 -590 1640 C-590.88171875 1639.28328125 -591.7634375 1638.5665625 -592.671875 1637.828125 C-593.58453125 1637.08046875 -594.4971875 1636.3328125 -595.4375 1635.5625 C-596.30890625 1634.85609375 -597.1803125 1634.1496875 -598.078125 1633.421875 C-607.90412844 1625.43465583 -617.58461548 1617.30711498 -626.9375 1608.76953125 C-630.63617978 1605.50429051 -634.50325145 1602.45684754 -638.3828125 1599.41015625 C-639.06085937 1598.80042969 -639.73890625 1598.19070313 -640.4375 1597.5625 C-640.4375 1596.9025 -640.4375 1596.2425 -640.4375 1595.5625 C-641.02990479 1595.29679199 -641.62230957 1595.03108398 -642.23266602 1594.75732422 C-644.49449757 1593.53161238 -645.93140782 1592.28501079 -647.71484375 1590.4453125 C-648.31103516 1589.83816406 -648.90722656 1589.23101563 -649.52148438 1588.60546875 C-650.13314453 1587.97253906 -650.74480469 1587.33960938 -651.375 1586.6875 C-655.24215665 1582.70961883 -659.06221015 1578.99072353 -663.4375 1575.5625 C-664.77083333 1573.89583333 -666.10416667 1572.22916667 -667.4375 1570.5625 C-668.200625 1569.964375 -668.96375 1569.36625 -669.75 1568.75 C-672.14638886 1566.79945092 -673.94412286 1564.90179942 -675.9375 1562.5625 C-677.87227883 1560.29413861 -679.6006184 1558.43200528 -681.9375 1556.5625 C-684.83043279 1554.24815376 -687.06740099 1551.66526455 -689.46484375 1548.8515625 C-692.40017684 1545.44541361 -695.46618034 1542.15972676 -698.51953125 1538.859375 C-700.2339109 1536.80630935 -701.37974795 1535.00260525 -702.4375 1532.5625 C-703.0975 1532.5625 -703.7575 1532.5625 -704.4375 1532.5625 C-705.97601766 1530.84298026 -707.44481759 1529.06062503 -708.875 1527.25 C-711.88985569 1523.39782998 -711.88985569 1523.39782998 -715.22265625 1519.83203125 C-716.4375 1518.5625 -716.4375 1518.5625 -716.4375 1516.5625 C-717.0975 1516.5625 -717.7575 1516.5625 -718.4375 1516.5625 C-720.10055235 1514.61919253 -721.65006447 1512.66490648 -723.1875 1510.625 C-727.47148486 1505.04669259 -731.87048936 1499.5890585 -736.375 1494.1875 C-743.01593705 1486.18476204 -749.2877076 1477.9462315 -755.4375 1469.5625 C-756.47777344 1468.15291016 -756.47777344 1468.15291016 -757.5390625 1466.71484375 C-767.17780102 1453.56570046 -776.50851548 1440.20324696 -785.4375 1426.5625 C-786.15550781 1425.47066406 -786.87351562 1424.37882812 -787.61328125 1423.25390625 C-792.4375 1415.81938878 -792.4375 1415.81938878 -792.4375 1413.5625 C-793.0975 1413.5625 -793.7575 1413.5625 -794.4375 1413.5625 C-794.69402344 1413.08683594 -794.95054687 1412.61117188 -795.21484375 1412.12109375 C-799.75200846 1403.82587343 -804.68057022 1395.76143414 -809.58007812 1387.67724609 C-817.41359798 1374.75193834 -824.96857712 1361.74603185 -831.6328125 1348.171875 C-833.24503255 1344.91148796 -834.94876775 1341.70563957 -836.67041016 1338.50195312 C-850.13022249 1313.43528253 -861.54015848 1287.08557029 -872.125 1260.6875 C-872.70302368 1259.24769775 -872.70302368 1259.24769775 -873.29272461 1257.77880859 C-875.55042823 1252.06023327 -877.54202154 1246.2887728 -879.45361328 1240.44628906 C-880.33960498 1237.84943199 -881.31048311 1235.32514803 -882.35546875 1232.7890625 C-885.1469348 1225.9539857 -887.42629405 1218.94154912 -889.75 1211.9375 C-889.98983612 1211.21749817 -890.22967224 1210.49749634 -890.47677612 1209.75567627 C-894.79195586 1196.78304271 -898.74615357 1183.72678553 -902.4375 1170.5625 C-903.71980434 1166.05753729 -903.71980434 1166.05753729 -905.0246582 1161.55908203 C-910.10905494 1144.12963799 -913.83277429 1126.42814238 -917.56835938 1108.67333984 C-918.28452356 1105.27466865 -919.01905755 1101.88042304 -919.765625 1098.48828125 C-921.53604949 1090.40365667 -923.00436451 1082.38083795 -923.9453125 1074.15234375 C-924.33646558 1071.29940979 -924.82466499 1068.53976203 -925.40234375 1065.72265625 C-926.40018836 1060.8549538 -927.18484229 1055.9824217 -927.875 1051.0625 C-928.06231689 1049.73593384 -928.06231689 1049.73593384 -928.25341797 1048.38256836 C-930.3534316 1033.21973588 -932.35407208 1017.97685597 -933.2265625 1002.6875 C-933.39249786 1000.22919842 -933.62749718 997.81044167 -933.8984375 995.36328125 C-934.73526203 987.18320674 -935.03295102 978.96028996 -935.4375 970.75 C-935.60208969 967.43088183 -935.76877122 964.11187905 -935.9375 960.79296875 C-935.97811554 959.98223907 -936.01873108 959.1715094 -936.06057739 958.33621216 C-936.28610838 953.97466471 -936.59261249 949.63489704 -936.9921875 945.28515625 C-937.70353791 936.49021505 -937.58644635 927.66763036 -937.56787109 918.85009766 C-937.56248667 915.80496296 -937.5678574 912.75997412 -937.57421875 909.71484375 C-937.57355828 907.75260385 -937.57227776 905.79036403 -937.5703125 903.828125 C-937.57233673 902.93103821 -937.57436096 902.03395142 -937.57644653 901.10968018 C-937.55877917 896.29907695 -937.27471921 891.6354942 -936.68673706 886.8626709 C-936.2215655 882.56967334 -936.1021791 878.25845457 -935.9375 873.9453125 C-935.85422058 871.93749776 -935.77088566 869.92968533 -935.6875 867.921875 C-935.56112374 864.78813869 -935.43619163 861.65435123 -935.3125 858.52050781 C-935.19115058 855.47444785 -935.0645788 852.42863799 -934.9375 849.3828125 C-934.90205078 848.44220978 -934.86660156 847.50160706 -934.83007812 846.53250122 C-934.79333984 845.6608432 -934.75660156 844.78918518 -934.71875 843.89111328 C-934.68845703 843.12550079 -934.65816406 842.35988831 -934.62695312 841.57107544 C-934.4375 839.5625 -934.4375 839.5625 -933.4375 836.5625 C-933.24406943 834.72499858 -933.09513255 832.88265312 -932.97265625 831.0390625 C-932.85772827 829.39393677 -932.85772827 829.39393677 -932.74047852 827.71557617 C-932.66112061 826.55131104 -932.5817627 825.3870459 -932.5 824.1875 C-931.93019178 816.3477248 -931.33656525 808.58781142 -929.99609375 800.8359375 C-929.26090183 796.52761002 -928.66759373 792.20322344 -928.0625 787.875 C-926.87678187 779.51422616 -925.64337139 771.16113128 -924.375 762.8125 C-924.21273926 761.73009033 -924.05047852 760.64768066 -923.88330078 759.5324707 C-923.0660031 754.19348395 -922.13903031 748.92543563 -920.91772461 743.6640625 C-920.27846179 740.86651579 -919.73974389 738.05314591 -919.19555664 735.23583984 C-915.11337973 714.17851742 -910.54159297 693.13238825 -904.4375 672.5625 C-904.02284685 671.14209938 -903.60879513 669.72152306 -903.1953125 668.30078125 C-902.3674272 665.46410864 -901.53256354 662.6296395 -900.69140625 659.796875 C-899.83555554 656.91415033 -898.98993824 654.02870668 -898.15234375 651.140625 C-897.93835937 650.40529541 -897.724375 649.66996582 -897.50390625 648.91235352 C-897.1050419 647.54094763 -896.7077193 646.16909163 -896.3125 644.79663086 C-894.84033323 639.7512869 -893.19341773 634.77192862 -891.51928711 629.7902832 C-890.41659886 626.50013621 -889.33337539 623.20408215 -888.25390625 619.90625 C-887.50263242 617.62499069 -886.75133015 615.34374076 -886 613.0625 C-885.63068359 611.92941406 -885.26136719 610.79632812 -884.88085938 609.62890625 C-882.39692227 602.11252119 -879.54345922 594.84095958 -876.4375 587.5625 C-875.59149278 585.42163174 -874.75504594 583.27689771 -873.9375 581.125 C-873.525 580.04605469 -873.1125 578.96710937 -872.6875 577.85546875 C-871.85070951 575.65104881 -871.01740261 573.44530351 -870.1875 571.23828125 C-867.9479287 565.32441328 -865.59089042 559.51967907 -862.92578125 553.78515625 C-861.77828774 551.3004262 -860.65316608 548.8099609 -859.54296875 546.30859375 C-853.44728114 532.59364898 -847.00353621 519.05790101 -840.4375 505.5625 C-839.89875244 504.4499585 -839.89875244 504.4499585 -839.34912109 503.31494141 C-827.83458203 479.59066787 -814.86479508 456.63074239 -800.8046875 434.33203125 C-798.64766293 430.90877589 -796.53970126 427.45723461 -794.4375 424 C-781.66727258 403.21958985 -767.37509031 383.3146349 -752.93359375 363.671875 C-751.41465257 361.64402704 -751.41465257 361.64402704 -750.4375 359.5625 C-749.7775 359.5625 -749.1175 359.5625 -748.4375 359.5625 C-748.19515625 359.01980469 -747.9528125 358.47710938 -747.703125 357.91796875 C-737.05854579 338.10722412 -718.26111043 319.9723391 -703.08203125 303.453125 C-701.37968348 301.65485265 -701.37968348 301.65485265 -700.4375 299.5625 C-699.7775 299.5625 -699.1175 299.5625 -698.4375 299.5625 C-698.04111328 298.67304687 -698.04111328 298.67304687 -697.63671875 297.765625 C-696.39379575 295.48220946 -695.13348354 294.08823277 -693.25 292.3125 C-690.76692837 289.96317695 -688.50507335 287.50299976 -686.27929688 284.91308594 C-682.61246997 280.7099055 -678.76397945 276.72767819 -674.82421875 272.78125 C-674.12859329 272.08229614 -673.43296783 271.38334229 -672.71626282 270.66320801 C-671.26128308 269.20320796 -669.80498513 267.74452046 -668.34741211 266.28710938 C-666.10827889 264.04576235 -663.87729722 261.79649986 -661.64648438 259.546875 C-660.22705107 258.12451227 -658.80714637 256.70261977 -657.38671875 255.28125 C-656.71903976 254.6063855 -656.05136078 253.931521 -655.3634491 253.23620605 C-654.74552994 252.62136353 -654.12761078 252.006521 -653.4909668 251.37304688 C-652.94804489 250.82869995 -652.40512299 250.28435303 -651.8457489 249.72351074 C-650.4375 248.5625 -650.4375 248.5625 -648.4375 248.5625 C-648.4375 247.9025 -648.4375 247.2425 -648.4375 246.5625 C-646.79296875 244.94140625 -646.79296875 244.94140625 -644.625 243.125 C-641.61286735 240.58910668 -641.61286735 240.58910668 -638.80078125 237.83984375 C-637.4375 236.5625 -637.4375 236.5625 -635.4375 236.5625 C-635.4375 235.9025 -635.4375 235.2425 -635.4375 234.5625 C-633.96875 233.08203125 -633.96875 233.08203125 -631.9375 231.375 C-628.26357068 228.26327339 -624.6688696 225.08097245 -621.1015625 221.84765625 C-619.4375 220.5625 -619.4375 220.5625 -617.4375 220.5625 C-617.4375 219.9025 -617.4375 219.2425 -617.4375 218.5625 C-612.96691176 214.5625 -612.96691176 214.5625 -610.4375 214.5625 C-610.4375 213.9025 -610.4375 213.2425 -610.4375 212.5625 C-608.4529956 210.85625431 -606.45899832 209.26469904 -604.375 207.6875 C-603.09445714 206.70129285 -601.814531 205.71428453 -600.53515625 204.7265625 C-599.86500488 204.21125977 -599.19485352 203.69595703 -598.50439453 203.16503906 C-595.07410558 200.50541035 -591.694537 197.78304357 -588.3125 195.0625 C-586.02542648 193.22331293 -583.73446004 191.38932202 -581.4375 189.5625 C-580.67695313 188.9540625 -579.91640625 188.345625 -579.1328125 187.71875 C-577.4375 186.5625 -577.4375 186.5625 -575.4375 186.5625 C-575.4375 185.9025 -575.4375 185.2425 -575.4375 184.5625 C-570.02573529 180.5625 -570.02573529 180.5625 -567.4375 180.5625 C-567.4375 179.9025 -567.4375 179.2425 -567.4375 178.5625 C-565.61522978 177.1579595 -563.72542516 175.84082708 -561.8125 174.5625 C-560.60862407 173.74980919 -559.40552416 172.93596788 -558.203125 172.12109375 C-557.57857422 171.69940918 -556.95402344 171.27772461 -556.31054688 170.84326172 C-553.35638473 168.82324938 -550.46259245 166.7215071 -547.5625 164.625 C-537.67012293 157.51628217 -527.5085971 150.81005899 -517.203125 144.31640625 C-515.26691229 143.08849734 -513.34057021 141.84494878 -511.421875 140.58984375 C-482.91920383 121.98205724 -452.57743577 104.50828026 -421.5390625 90.46875 C-418.03304224 88.87754569 -414.61955441 87.12715907 -411.19140625 85.375 C-403.06616521 81.26491015 -394.72013486 77.69819823 -386.33520508 74.15576172 C-383.76809936 73.07015407 -381.20520559 71.97503634 -378.64257812 70.87890625 C-368.7071276 66.65163203 -358.70026574 62.73562724 -348.54711914 59.06323242 C-345.46340072 57.94626748 -342.41481027 56.77143408 -339.3828125 55.51953125 C-331.81452538 52.4415432 -324.04164146 49.88953862 -316.3125 47.25 C-315.46879852 46.96148163 -314.62509705 46.67296326 -313.75582886 46.3757019 C-300.08869781 41.71182397 -286.38355402 37.32556415 -272.4375 33.5625 C-271.46296875 33.29888672 -270.4884375 33.03527344 -269.484375 32.76367188 C-258.41163504 29.78751444 -247.30264459 26.99262408 -236.12890625 24.421875 C-233.65073418 23.84494605 -231.17915324 23.23900057 -228.71484375 22.60546875 C-223.32999923 21.25029049 -217.88375315 20.20054833 -212.4375 19.125 C-211.32536133 18.90473145 -210.21322266 18.68446289 -209.06738281 18.45751953 C-206.85441537 18.02038619 -204.64120528 17.58447915 -202.42773438 17.14990234 C-200.63696356 16.7981229 -198.8464919 16.44480745 -197.05664062 16.08837891 C-187.8577057 14.25682848 -178.64653108 12.8161494 -169.35253906 11.56396484 C-168.49756836 11.44746582 -167.64259766 11.3309668 -166.76171875 11.2109375 C-165.99947998 11.10958496 -165.23724121 11.00823242 -164.4519043 10.90380859 C-162.24090457 10.58213686 -162.24090457 10.58213686 -159.4375 9.5625 C-133.27264846 5.46690509 -106.36857469 2.53756673 -79.89453125 1.73828125 C-76.37700331 1.62861143 -72.88610222 1.36824034 -69.37890625 1.078125 C-62.46128204 0.52662199 -55.54388641 0.26115315 -48.60888672 0.05981445 C-46.57114454 0.00025267 -44.53363996 -0.06496614 -42.49609375 -0.13085938 C-28.31683865 -0.57285038 -14.17766099 -0.4824293 0 0 Z M-85.75390625 517.12890625 C-88.23155073 517.52922435 -90.6903112 517.81918417 -93.1875 518.0625 C-96.01714611 518.35506826 -98.72634096 518.80709949 -101.49609375 519.453125 C-104.942672 520.23768897 -108.39443238 520.96115346 -111.86328125 521.640625 C-124.98754329 524.23567986 -137.72989364 527.37966511 -150.4375 531.5625 C-151.23542969 531.82256836 -152.03335938 532.08263672 -152.85546875 532.35058594 C-167.0195708 537.00922981 -180.76876909 542.61808938 -194.4375 548.5625 C-195.2119043 548.89862305 -195.98630859 549.23474609 -196.78417969 549.58105469 C-232.13312735 565.10756106 -264.71876487 587.90636306 -293.4375 613.5625 C-294.40171875 614.41585937 -295.3659375 615.26921875 -296.359375 616.1484375 C-308.08646912 626.70282221 -319.73967669 637.66798093 -329.48046875 650.109375 C-331.46921307 652.60225211 -333.57607188 654.9177574 -335.75 657.25 C-345.85416487 668.3751432 -354.3273777 680.94207397 -362.4375 693.5625 C-362.85241699 694.20687012 -363.26733398 694.85124023 -363.69482422 695.51513672 C-369.98493071 705.32634857 -375.85680464 715.33243468 -381.4375 725.5625 C-381.82856934 726.27615723 -382.21963867 726.98981445 -382.62255859 727.72509766 C-386.83670019 735.44274747 -390.89928615 743.12435431 -394.13671875 751.3125 C-395.13923297 753.81728028 -396.18192078 756.28232165 -397.26953125 758.75 C-402.53485646 770.775727 -406.66415538 782.99551717 -410.4375 795.5625 C-410.6945874 796.41465088 -410.9516748 797.26680176 -411.21655273 798.14477539 C-411.9605763 800.61625844 -412.70002074 803.08905713 -413.4375 805.5625 C-413.64850342 806.26656982 -413.85950684 806.97063965 -414.0769043 807.69604492 C-424.80139937 843.79681004 -429.42302054 882.94132443 -428.4375 920.5625 C-428.41961426 921.2853418 -428.40172852 922.00818359 -428.38330078 922.75292969 C-427.75986474 945.36955096 -425.52567396 967.80418096 -421.5 990.0625 C-421.37879791 990.74083893 -421.25759583 991.41917786 -421.13272095 992.11807251 C-419.64038889 1000.38119603 -417.73908264 1008.40897743 -415.3503418 1016.45800781 C-414.60356499 1018.99772803 -413.92185279 1021.52830714 -413.3046875 1024.1015625 C-410.92598428 1033.96842344 -407.84456682 1043.50186612 -404.4375 1053.0625 C-404.02226074 1054.23119629 -403.60702148 1055.39989258 -403.17919922 1056.60400391 C-400.91623437 1062.85007165 -398.46117785 1068.93294475 -395.65234375 1074.953125 C-394.46681572 1077.49953247 -393.33620336 1080.06372188 -392.21875 1082.640625 C-374.33807657 1123.39729453 -348.04505877 1163.11030988 -315.84765625 1194.08984375 C-314.4375 1195.5625 -314.4375 1195.5625 -312.4375 1198.5625 C-311.7775 1198.5625 -311.1175 1198.5625 -310.4375 1198.5625 C-309.9425 1200.0475 -309.9425 1200.0475 -309.4375 1201.5625 C-307.84683714 1203.17494386 -307.84683714 1203.17494386 -305.875 1204.75 C-302.97790523 1207.20020249 -300.26104814 1209.70886339 -297.625 1212.4375 C-292.89001031 1217.22765462 -287.70894109 1221.38053518 -282.4375 1225.5625 C-281.32937545 1226.4504564 -280.22130423 1227.33847936 -279.11328125 1228.2265625 C-255.17710777 1247.32133173 -229.37142031 1263.89148289 -201.49707031 1276.61279297 C-199.49563377 1277.53569341 -197.50815299 1278.4831467 -195.5234375 1279.44140625 C-188.3925508 1282.87038645 -181.22347069 1285.83070513 -173.7265625 1288.390625 C-170.77307568 1289.44293622 -167.97720072 1290.64181 -165.125 1291.9375 C-154.96702114 1296.25975409 -144.08015077 1298.72601077 -133.4375 1301.5625 C-132.6842041 1301.76762207 -131.9309082 1301.97274414 -131.15478516 1302.18408203 C-101.49549029 1310.25568387 -71.12056169 1313.9896986 -40.4375 1314.5625 C-39.39658203 1314.58441406 -38.35566406 1314.60632812 -37.28320312 1314.62890625 C-11.39035239 1315.10692811 14.09864823 1313.30972664 39.5625 1308.5625 C40.64644043 1308.36221191 41.73038086 1308.16192383 42.84716797 1307.95556641 C54.94176571 1305.69524132 66.80124156 1303.19217067 78.5625 1299.5625 C79.78453125 1299.22992187 81.0065625 1298.89734375 82.265625 1298.5546875 C109.86219607 1291.02557132 138.01838315 1279.56992565 162.52832031 1264.78564453 C164.86960691 1263.37783778 167.227397 1261.99978963 169.5859375 1260.62109375 C178.59352169 1255.32452426 187.23006145 1249.87329772 195.5625 1243.5625 C197.3068881 1242.32538203 199.05685509 1241.09609034 200.8125 1239.875 C201.61945312 1239.31039062 202.42640625 1238.74578125 203.2578125 1238.1640625 C204.74667185 1237.12943143 206.24112648 1236.10278529 207.7421875 1235.0859375 C209.38281735 1233.95923989 210.97859819 1232.76764268 212.5625 1231.5625 C212.5625 1230.9025 212.5625 1230.2425 212.5625 1229.5625 C213.28050781 1229.32660156 213.99851562 1229.09070312 214.73828125 1228.84765625 C218.02867742 1227.35036671 220.1243608 1225.47469474 222.75 1223 C227.39783448 1218.64483276 227.39783448 1218.64483276 229.5625 1217.5625 C229.5625 1216.9025 229.5625 1216.2425 229.5625 1215.5625 C230.1090625 1215.33304688 230.655625 1215.10359375 231.21875 1214.8671875 C239.11844951 1210.46968811 245.87749256 1202.34014723 252.3125 1196 C252.83779297 1195.48775879 253.36308594 1194.97551758 253.90429688 1194.44775391 C255.16358725 1193.1914216 256.36868134 1191.88120395 257.5625 1190.5625 C257.5625 1189.9025 257.5625 1189.2425 257.5625 1188.5625 C258.2225 1188.5625 258.8825 1188.5625 259.5625 1188.5625 C260.99950222 1187.219946 260.99950222 1187.219946 262.5 1185.375 C263.12777344 1184.63378906 263.75554688 1183.89257812 264.40234375 1183.12890625 C265.11519531 1182.28199219 265.82804687 1181.43507813 266.5625 1180.5625 C267.34753906 1179.66402344 268.13257812 1178.76554687 268.94140625 1177.83984375 C281.29079855 1163.64392327 292.42503204 1148.40463935 302.5625 1132.5625 C302.98901855 1131.90266113 303.41553711 1131.24282227 303.85498047 1130.56298828 C309.30488758 1122.11673385 314.2264685 1113.64319424 318.5625 1104.5625 C319.88582325 1101.89080637 321.22459412 1099.22691456 322.5625 1096.5625 C323.52150119 1094.64550023 324.47950589 1092.72804573 325.43408203 1090.80883789 C326.2679423 1089.14887503 327.11463308 1087.49534316 327.96826172 1085.84545898 C331.68372924 1078.59369019 334.80715874 1071.24382066 337.6875 1063.625 C338.10386719 1062.54798828 338.52023437 1061.47097656 338.94921875 1060.36132812 C341.45837394 1053.78954392 343.67312824 1047.18246102 345.66357422 1040.43530273 C346.50596048 1037.74319 347.503086 1035.17485726 348.5625 1032.5625 C354.63353285 1012.51157178 358.47286879 992.26462997 361.5625 971.5625 C361.82087646 969.87205566 361.82087646 969.87205566 362.08447266 968.14746094 C368.25164492 926.76143236 367.59382968 882.6621304 359.5625 841.5625 C359.37349121 840.56750488 359.18448242 839.57250977 358.98974609 838.54736328 C352.4342939 804.50846794 342.3461649 770.49848321 326.5625 739.5625 C325.93455326 738.30159897 325.30833014 737.03983848 324.68359375 735.77734375 C322.66340338 731.69544882 320.61987704 727.62577014 318.5625 723.5625 C318.09505371 722.63630859 318.09505371 722.63630859 317.61816406 721.69140625 C312.34863931 711.31964325 306.2836389 701.52400061 299.96337891 691.76220703 C299.00716285 690.26072452 298.07273291 688.7452001 297.15771484 687.21826172 C296.71766113 686.48494629 296.27760742 685.75163086 295.82421875 684.99609375 C295.43580811 684.33536865 295.04739746 683.67464355 294.6472168 682.99389648 C294.28926025 682.52153564 293.93130371 682.0491748 293.5625 681.5625 C292.9025 681.5625 292.2425 681.5625 291.5625 681.5625 C291.31242187 681.02367187 291.06234375 680.48484375 290.8046875 679.9296875 C285.07994509 669.02027271 276.66609409 659.73188641 268.5625 650.5625 C267.31214422 649.12530945 266.06207615 647.68786845 264.8125 646.25 C264.28785156 645.65574219 263.76320313 645.06148437 263.22265625 644.44921875 C261.94951556 643.00233181 260.68879241 641.54451043 259.43359375 640.08203125 C258.71300781 639.25058594 257.99242188 638.41914062 257.25 637.5625 C256.59386719 636.799375 255.93773438 636.03625 255.26171875 635.25 C253.7251146 633.32761472 253.7251146 633.32761472 251.5625 633.5625 C251.35625 633.02625 251.15 632.49 250.9375 631.9375 C249.02999574 628.64271991 246.51430616 625.96886372 243.5625 623.5625 C242.9025 623.5625 242.2425 623.5625 241.5625 623.5625 C241.5625 622.9025 241.5625 622.2425 241.5625 621.5625 C240.9025 621.5625 240.2425 621.5625 239.5625 621.5625 C239.2325 620.5725 238.9025 619.5825 238.5625 618.5625 C237.17932135 617.08249802 237.17932135 617.08249802 235.375 615.625 C234.66214844 615.02171875 233.94929688 614.4184375 233.21484375 613.796875 C232.33957031 613.05953125 231.46429687 612.3221875 230.5625 611.5625 C229.41656101 610.56933029 228.27213342 609.57441505 227.12890625 608.578125 C225.89855758 607.51027829 224.66808824 606.44257061 223.4375 605.375 C222.85202393 604.86396729 222.26654785 604.35293457 221.66333008 603.82641602 C215.76246987 598.18590482 215.76246987 598.18590482 208.5625 595.5625 C208.5625 594.9025 208.5625 594.2425 208.5625 593.5625 C206.51229107 591.93082485 204.46490204 590.42393468 202.3125 588.9375 C201.67135254 588.48874512 201.03020508 588.03999023 200.36962891 587.57763672 C198.43915421 586.23151676 196.50163549 584.8961024 194.5625 583.5625 C193.60601563 582.89734375 192.64953125 582.2321875 191.6640625 581.546875 C182.23540511 575.11701695 172.40286606 569.33368505 162.5625 563.5625 C161.80662598 563.11583984 161.05075195 562.66917969 160.27197266 562.20898438 C147.82602178 554.89403978 134.90915323 549.04012957 121.5625 543.5625 C120.09659424 542.96042725 120.09659424 542.96042725 118.60107422 542.34619141 C87.1615801 529.5340379 54.3806296 520.65519999 20.60546875 516.80078125 C18.52666443 516.55832033 16.45094692 516.29700202 14.375 516.03125 C12.95835064 515.85402824 11.54168442 515.67694126 10.125 515.5 C8.88878906 515.34402344 7.65257813 515.18804688 6.37890625 515.02734375 C-7.08277813 513.60155745 -20.60055182 513.35964817 -34.125 513.375 C-34.95111786 513.37493958 -35.77723572 513.37487915 -36.62838745 513.37481689 C-53.18478938 513.39199469 -69.40588162 514.3865198 -85.75390625 517.12890625 Z " fill="#1991D0" transform="translate(2884.4375,307.4375)"/>
<path d="M0 0 C37.14798469 -0.09148887 74.29595245 -0.16200479 111.44402694 -0.20426132 C115.82637296 -0.20926434 120.20871876 -0.21444161 124.59106445 -0.21972656 C125.46353704 -0.2207758 126.33600962 -0.22182505 127.23492076 -0.22290608 C141.37522187 -0.24032716 155.51545814 -0.27187418 169.65572075 -0.30861118 C184.15718032 -0.3459733 198.65860587 -0.36822582 213.16011161 -0.37635398 C222.11352738 -0.3818516 231.06675994 -0.39923586 240.02011933 -0.43166587 C246.1537917 -0.45275544 252.28736889 -0.45921271 258.4210749 -0.45400551 C261.96376351 -0.45143501 265.50613124 -0.45546692 269.04876328 -0.4768219 C272.88389169 -0.49977209 276.71859741 -0.49198707 280.55378723 -0.48101807 C281.68120561 -0.49266943 282.80862399 -0.5043208 283.97020656 -0.51632524 C285.50489354 -0.50437894 285.50489354 -0.50437894 287.0705843 -0.49219131 C287.95647183 -0.4937102 288.84235936 -0.49522908 289.75509197 -0.49679399 C292 0 292 0 293.74586314 1.90428185 C294.97392825 3.95643295 295.96419288 5.9466812 296.8671875 8.16015625 C297.19275635 8.94793457 297.5183252 9.73571289 297.85375977 10.54736328 C298.19076904 11.3773584 298.52777832 12.20735352 298.875 13.0625 C299.58863554 14.79086395 300.30347166 16.51873268 301.01953125 18.24609375 C301.36193848 19.07351074 301.7043457 19.90092773 302.05712891 20.75341797 C303.16970305 23.404352 304.3498619 26.01843238 305.5625 28.625 C307.64009128 33.11370892 309.51511724 37.66834997 311.375 42.25 C313.75754253 48.10532526 316.29351755 53.84648739 319.01855469 59.55273438 C322.79183653 67.54564465 326.19482042 75.7048182 329.64916992 83.83911133 C332.31091663 90.09861801 335.03984842 96.31555989 337.87451172 102.49853516 C339.81805485 106.81817569 341.56618281 111.21455295 343.31640625 115.61523438 C344.84430998 119.39235453 346.49839726 123.04620472 348.3515625 126.67578125 C351.492529 132.86452986 354.17191598 139.23569554 356.875 145.625 C357.67521359 147.50680111 358.47657224 149.38811157 359.27807617 151.2693634 C360.05470903 153.09228167 360.83058495 154.91552235 361.60644531 156.73876953 C363.29546327 160.69145031 365.01453103 164.63004515 366.75 168.5625 C369.2327185 174.20285076 371.62749069 179.87501629 374 185.5625 C376.70638307 192.04400398 379.55116774 198.43521853 382.56201172 204.78051758 C384.7488054 209.40526519 386.75201963 214.08395849 388.6640625 218.828125 C389.82295972 221.57965875 391.03793378 224.28993446 392.28125 227.00390625 C395.25670381 233.51827189 398.06778552 240.09926794 400.875 246.6875 C401.93924518 249.17875305 403.00466127 251.66950437 404.0703125 254.16015625 C404.57723633 255.34496582 405.08416016 256.52977539 405.60644531 257.75048828 C408.94126065 265.52666069 412.33618773 273.27616603 415.78393555 281.00292969 C420.62122244 291.843909 425.36411505 302.72319863 430.0625 313.625 C439.24423372 334.91858326 439.24423372 334.91858326 448.625 356.125 C453.70858185 367.51990153 458.63842742 378.98209658 463.59040833 390.43458557 C465.74048417 395.40514564 467.9029014 400.37024952 470.06811523 405.33422852 C473.53555025 413.28477059 476.9628313 421.24907252 480.3125 429.25 C483.09241284 435.8899931 485.97662551 442.46670998 489 449 C493.46411956 458.65466457 497.66625199 468.41978734 501.875 478.1875 C508.16352404 492.77029373 514.47385164 507.34147845 520.9375 521.84765625 C525.02171857 531.01703678 529.02083702 540.22213034 533 549.4375 C533.3482785 550.2429425 533.69655701 551.04838501 534.0553894 551.87823486 C538.25155101 561.58254215 542.41058021 571.29973383 546.47216797 581.0612793 C548.66943896 586.30715559 551.05291876 591.44937654 553.49829102 596.58349609 C556.04976604 601.98722089 558.21656131 607.49829081 560.39306641 613.05932617 C561.8565719 616.71294365 563.49401268 620.26274781 565.1875 623.81640625 C569.33289518 632.60084492 573.16801233 641.51300241 577 650.4375 C578.35339541 653.58236354 579.70793892 656.72673214 581.0625 659.87109375 C581.55635193 661.01816048 581.55635193 661.01816048 582.06018066 662.18840027 C584.28642951 667.35575638 586.52670703 672.51680098 588.78125 677.671875 C589.19177612 678.61098976 589.19177612 678.61098976 589.6105957 679.56907654 C591.54944232 683.99457406 593.52091041 688.40492122 595.5 692.8125 C600.34691233 703.6494115 604.97850751 714.58060965 609.6328125 725.5012207 C612.65520795 732.58469851 615.71938478 739.63784639 618.93383789 746.63696289 C620.51252633 750.13596115 621.9463787 753.68777421 623.375 757.25 C625.75509473 763.10626022 628.29359545 768.84665052 631.01855469 774.55273438 C634.79183653 782.54564465 638.19482042 790.7048182 641.64916992 798.83911133 C644.31091663 805.09861801 647.03984842 811.31555989 649.87451172 817.49853516 C651.51620596 821.14729855 653.01138438 824.84932395 654.5 828.5625 C656.71923717 834.03653807 659.10412515 839.32182212 661.828125 844.56640625 C663.18631723 847.38691877 664.28014397 850.25484991 665.375 853.1875 C667.30563661 858.32796804 669.48569063 863.26639892 671.85107422 868.21972656 C676.76077566 878.6061291 681.19266578 889.21676025 685.73904419 899.76577759 C687.76233488 904.45786917 689.81184558 909.13784244 691.875 913.8125 C694.50509407 919.795313 697.01072326 925.82264591 699.42919922 931.89379883 C700.9153627 935.57189418 702.53980578 939.12229959 704.34375 942.65625 C707.48610147 948.85211903 710.16903634 955.22932227 712.875 961.625 C713.67519864 963.50575481 714.47660488 965.38599206 715.27807617 967.26620483 C716.05482478 969.08866173 716.83064453 970.91151442 717.60644531 972.734375 C719.30150803 976.7065472 721.01575891 980.66979481 722.75 984.625 C723.018125 985.23657959 723.28625 985.84815918 723.5625 986.47827148 C725.31717547 990.46941287 727.09225042 994.45132754 728.86914062 998.43261719 C733.69077288 1009.24149958 738.35550656 1020.11403265 743 1031 C744.8193724 1035.26191566 746.64004651 1039.52326835 748.46276855 1043.78375244 C749.22651974 1045.57008225 749.98877202 1047.35705268 750.75097656 1049.14404297 C753.38940489 1055.31250031 756.08641716 1061.44710437 758.87890625 1067.54736328 C762.95600987 1076.46691533 766.8087109 1085.47744261 770.5 1094.5625 C772.84126932 1100.31335977 775.34265434 1105.94894038 778.01904297 1111.55395508 C781.7924378 1119.54631547 785.19499701 1127.70523402 788.64916992 1135.83911133 C791.31398171 1142.10582604 794.04564114 1148.33027696 796.88330078 1154.52050781 C798.76051199 1158.6886226 800.45206878 1162.92854546 802.140625 1167.17578125 C804.02650847 1171.83660754 806.10411641 1176.39151974 808.25 1180.9375 C812.26132347 1189.4489454 815.94976657 1198.08934596 819.625 1206.75 C820.90715759 1209.76634968 822.19093133 1212.78200418 823.4765625 1215.796875 C823.78391327 1216.51763214 824.09126404 1217.23838928 824.40792847 1217.98098755 C826.49188016 1222.85212351 828.64802325 1227.68540699 830.85986328 1232.5 C832.84288646 1236.84821357 834.72899382 1241.23832232 836.625 1245.625 C840.16073212 1253.78279547 843.7236314 1261.92794828 847.3125 1270.0625 C851.49462589 1279.54693727 855.63301823 1289.04966501 859.75 1298.5625 C860.0294043 1299.2080484 860.30880859 1299.8535968 860.59667969 1300.51870728 C861.14934896 1301.79564657 861.70201225 1303.07258845 862.25466919 1304.34953308 C866.69785101 1314.6156731 871.15596395 1324.8742216 875.7144928 1335.0897522 C880.23934961 1345.23592298 884.66563987 1355.42283557 889.0625 1365.625 C898.24439571 1386.9185119 898.24439571 1386.9185119 907.625 1408.125 C915.44191533 1425.65534806 923.05687018 1443.28150763 930.46264648 1460.98925781 C932.4730185 1465.78475955 934.5682616 1470.53167614 936.74609375 1475.25390625 C938.54653302 1479.19692434 940.27329752 1483.17153878 942.00561523 1487.14477539 C943.80810223 1491.27722593 945.6179855 1495.40626371 947.4375 1499.53125 C952.58073932 1511.19160763 957.6881166 1522.86664165 962.75 1534.5625 C963.03012939 1535.2097403 963.31025879 1535.85698059 963.59887695 1536.52383423 C964.15383397 1537.80611456 964.70878606 1539.08839703 965.26373291 1540.37068176 C969.61058523 1550.41457497 973.9899622 1560.44347467 978.40625 1570.45703125 C984.1282393 1583.43581973 989.80184863 1596.4344361 995.43286133 1609.45288086 C998.20952343 1615.87178747 1000.99529543 1622.28627777 1003.8125 1628.6875 C1005.55816739 1632.66158724 1007.2759486 1636.64334762 1008.94921875 1640.6484375 C1009.46101685 1641.87300659 1009.46101685 1641.87300659 1009.9831543 1643.12231445 C1010.62443328 1644.66123005 1011.26299484 1646.2012835 1011.89770508 1647.74291992 C1013.9032751 1652.56281798 1016.06271204 1657.29819093 1018.2890625 1662.01953125 C1022.18815939 1670.30234337 1025.79252356 1678.70149476 1029.375 1687.125 C1030.03473068 1688.67068512 1030.69472698 1690.21625689 1031.35498047 1691.76171875 C1032.95351859 1695.50458686 1034.54964948 1699.24847447 1036.14477539 1702.99279785 C1042.79549399 1718.67777705 1042.79549399 1718.67777705 1049.73828125 1734.234375 C1051.45576745 1737.99901968 1053.13947422 1741.7779167 1054.8125 1745.5625 C1055.12719238 1746.26673096 1055.44188477 1746.97096191 1055.76611328 1747.6965332 C1058 1752.76965393 1058 1752.76965393 1058 1755 C1053.94496449 1756.3516785 1050.03496775 1756.12733964 1045.80704212 1756.10743046 C1044.37095312 1756.10662866 1044.37095312 1756.10662866 1042.90585223 1756.10581067 C1039.66709291 1756.10275948 1036.42839567 1756.0924801 1033.18965149 1756.08229065 C1030.85655076 1756.07859927 1028.52344929 1756.07534939 1026.19034737 1756.07250541 C1020.43117209 1756.06433247 1014.67202041 1756.05146081 1008.91285867 1756.03665729 C1002.01741959 1756.01919752 995.12197391 1756.00756755 988.22652259 1755.99616829 C975.50004352 1755.97496576 962.77357798 1755.94907549 950.04711342 1755.92053413 C937.44225757 1755.89228075 924.83740023 1755.86609829 912.23253441 1755.84269524 C911.05791484 1755.84051261 911.05791484 1755.84051261 909.85956559 1755.83828588 C905.88286714 1755.83090736 901.90616863 1755.82356597 897.92947008 1755.81623887 C869.74618434 1755.76424413 841.56290971 1755.70758561 813.37963867 1755.64819336 C785.99617946 1755.59049725 758.61271729 1755.53490806 731.22924805 1755.48217773 C730.38550104 1755.48055215 729.54175402 1755.47892657 728.67243892 1755.47725173 C720.1993569 1755.46092963 711.72627479 1755.44465043 703.25319263 1755.42840267 C685.99180791 1755.39530171 668.73042375 1755.36191436 651.46903992 1755.32835388 C650.67535055 1755.3268111 649.88166117 1755.32526832 649.06392061 1755.32367879 C596.04260405 1755.22058276 543.02130097 1755.11078913 490 1755 C488.74178045 1751.87604324 487.48661852 1748.75086615 486.23193359 1745.62548828 C485.88146469 1744.75543655 485.53099579 1743.88538483 485.16990662 1742.9889679 C481.78250346 1734.54330988 478.64921057 1726.01286856 475.55770874 1717.45535278 C473.94149393 1712.98407015 472.31308322 1708.51724037 470.68359375 1704.05078125 C470.36423355 1703.17536179 470.04487335 1702.29994232 469.71583557 1701.397995 C465.62505066 1690.20816604 461.32669039 1679.10044339 457 1668 C446.93570858 1642.14829026 446.93570858 1642.14829026 443.0703125 1630.16015625 C441.68012429 1626.05554946 440.00780277 1622.10384467 438.3046875 1618.12109375 C434.92338036 1610.03227816 431.98957919 1601.75325746 429.015625 1593.5078125 C428.32307847 1591.58848327 427.63036892 1589.66921287 426.9375 1587.75 C426.59517334 1586.80157227 426.25284668 1585.85314453 425.90014648 1584.87597656 C423.7867331 1579.05759829 421.52285917 1573.33651899 419.078125 1567.6484375 C417.5239541 1563.8305829 416.2973641 1559.92086948 415.03125 1556 C413.97765659 1552.93500099 412.77277153 1549.98014797 411.5 1547 C409.80987987 1543.04264555 408.32231179 1539.09490103 407 1535 C405.35628551 1529.91702748 403.38461434 1525.05167288 401.2890625 1520.140625 C399.41774508 1515.58141528 397.81117134 1510.93701329 396.17578125 1506.2890625 C394.92004402 1502.77633578 393.56092511 1499.32223516 392.15625 1495.8671875 C390.61606417 1492.04794291 389.11931213 1488.21238703 387.625 1484.375 C387.35703613 1483.68954102 387.08907227 1483.00408203 386.81298828 1482.29785156 C380.66811375 1466.50699476 374.86311065 1450.58158518 368.95898438 1434.69970703 C361.02398961 1413.31544205 361.02398961 1413.31544205 352.93286133 1391.98999023 C349.8518195 1383.97250818 346.89057047 1375.92856959 344.07592773 1367.81396484 C342.69818183 1363.87553619 341.21224186 1360.02261419 339.5625 1356.1875 C336.94516187 1350.08598829 334.79806694 1343.84201723 332.67407227 1337.55541992 C331.17079319 1333.1552014 329.54441991 1328.85307172 327.72265625 1324.57421875 C323.79155944 1315.27374644 320.45493013 1305.74287598 317.00854492 1296.25512695 C316.1007434 1293.75897241 315.18915999 1291.26422152 314.27734375 1288.76953125 C314.00744125 1288.02242386 313.73753876 1287.27531647 313.4594574 1286.50556946 C311.79116089 1281.94437886 309.94153658 1277.50636435 307.92266846 1273.08883667 C306.36573475 1269.56408171 305.08583539 1265.94729375 303.8125 1262.3125 C303.42288086 1261.23258789 303.42288086 1261.23258789 303.02539062 1260.13085938 C301.88376561 1256.8947802 300.99161433 1253.94736655 300.44921875 1250.54296875 C300.22685547 1249.28419922 300.22685547 1249.28419922 300 1248 C299.34 1247.67 298.68 1247.34 298 1247 C297.32421875 1245.13671875 297.32421875 1245.13671875 296.6875 1242.6875 C295.60032577 1238.84723281 294.32523554 1235.22944174 292.75 1231.5625 C290.46501603 1226.22626856 288.42498936 1220.82683783 286.4375 1215.375 C283.81056576 1208.15245383 283.81056576 1208.15245383 281 1201 C276.78693855 1190.65720536 273.08090046 1180.0956745 269.375 1169.5625 C267.4974298 1164.26221166 265.38555092 1159.10188596 263.18359375 1153.9296875 C261.99322428 1150.98322842 260.97762415 1148.02317507 260 1145 C258.36573419 1139.95338719 256.4193581 1135.11722589 254.34375 1130.23828125 C251.71237976 1123.89698494 249.37572287 1117.44040262 247 1111 C246.72397949 1110.25298828 246.44795898 1109.50597656 246.16357422 1108.73632812 C243.48785076 1101.493079 240.81722019 1094.24801818 238.17578125 1086.9921875 C235.37565246 1079.3171448 232.52435466 1071.70122861 229.31594849 1064.18511963 C227.87581021 1060.69941122 226.53723899 1057.18159597 225.22216797 1053.64746094 C224.96180189 1052.95038403 224.70143581 1052.25330711 224.43317986 1051.53510666 C221.87492883 1044.6799091 219.33328756 1037.81853701 216.79504776 1030.95590973 C215.40516072 1027.19924311 214.01294105 1023.44344068 212.62109375 1019.6875 C210.87342406 1014.97122483 209.12642722 1010.25470485 207.38232422 1005.53710938 C199.21554491 983.39317111 199.21554491 983.39317111 190.58639526 961.42672729 C187.62984565 954.13886191 184.91922991 946.77213275 182.25 939.375 C178.77561163 929.70753238 178.77561163 929.70753238 175.046875 920.13671875 C173.30133153 915.83551609 171.69999997 911.4870002 170.125 907.12109375 C169.87127625 906.41784973 169.61755249 905.71460571 169.35614014 904.99005127 C168.30453898 902.07053192 167.25523892 899.15019955 166.20898438 896.22875977 C162.35569649 885.47508277 162.35569649 885.47508277 157.87597656 874.97045898 C156.33087232 871.4948357 155.11133819 867.90703882 153.875 864.3125 C153.62363281 863.59255859 153.37226562 862.87261719 153.11328125 862.13085938 C151.70899523 858.09813224 150.34080381 854.05433533 149 850 C146.23600504 856.01564847 143.79157418 862.08040164 141.5625 868.3125 C139.69250148 873.53529587 137.73371457 878.69436283 135.58203125 883.80859375 C132.94877649 890.0690936 130.518465 896.39454593 128.125 902.75 C127.66593262 903.96357178 127.20686523 905.17714355 126.73388672 906.42749023 C123.84647265 914.06610492 120.98348544 921.71380211 118.125 929.36328125 C117.45557381 931.15332308 116.78614021 932.94336214 116.11669922 934.73339844 C114.81339345 938.21867161 113.51338126 941.70514896 112.21533203 945.19238281 C109.28914911 953.03507181 106.30481516 960.8291848 103.03710938 968.5378418 C101.66765345 971.78901011 100.41728518 975.06832685 99.1875 978.375 C98.94523682 979.02436523 98.70297363 979.67373047 98.45336914 980.34277344 C96.95115158 984.38435345 95.47852397 988.4362229 94.015625 992.4921875 C93.67120361 993.44561035 93.32678223 994.3990332 92.97192383 995.38134766 C92.30475717 997.23152662 91.64032522 999.0826951 90.97924805 1000.93505859 C88.91196413 1006.67509853 86.64296831 1012.30087336 84.2746582 1017.92285156 C82.10772461 1023.15403927 80.12040937 1028.45151743 78.125 1033.75 C77.66593262 1034.96357178 77.20686523 1036.17714355 76.73388672 1037.42749023 C73.84647265 1045.06610492 70.98348544 1052.71380211 68.125 1060.36328125 C67.45557381 1062.15332308 66.78614021 1063.94336214 66.11669922 1065.73339844 C64.81339345 1069.21867161 63.51338126 1072.70514896 62.21533203 1076.19238281 C59.29786775 1084.01108713 56.34415668 1091.78919251 53.03857422 1099.45483398 C51.8910962 1102.26688343 50.93301641 1105.11028533 50 1108 C48.35537626 1113.08578424 46.38267063 1117.95374402 44.28515625 1122.8671875 C42.91298233 1126.21212209 41.69597701 1129.58827874 40.5 1133 C38.94280334 1137.44215976 37.28555668 1141.7959131 35.4375 1146.125 C33.77062403 1150.04034107 32.3093227 1153.95109045 31 1158 C29.35948245 1163.05935614 27.42820824 1167.92360968 25.34765625 1172.81640625 C21.75256438 1181.30915951 18.38691233 1189.89483281 15.1640625 1198.53515625 C14.90614426 1199.2247493 14.64822601 1199.91434235 14.38249207 1200.62483215 C13.84843133 1202.05282189 13.31465336 1203.48091742 12.78115845 1204.90911865 C11.58116332 1208.12107576 10.37837318 1211.33198297 9.17578125 1214.54296875 C8.94406723 1215.16179428 8.71235321 1215.78061981 8.47361755 1216.41819763 C-9.53571447 1264.51060916 -9.53571447 1264.51060916 -14.4375 1276.5625 C-16.51896036 1281.68883951 -18.30694108 1286.85552802 -20.01171875 1292.1171875 C-21.37642708 1296.0980363 -23.00615593 1299.94509606 -24.65234375 1303.81640625 C-30.42750025 1317.45916725 -35.57731362 1331.34539528 -40.6484375 1345.26171875 C-41.13188655 1346.58651839 -41.61536675 1347.91130666 -42.09887695 1349.23608398 C-43.0538811 1351.85288491 -44.00501171 1354.47104857 -44.95385742 1357.09008789 C-47.02522343 1362.77270478 -49.13680144 1368.41447053 -51.49609375 1373.984375 C-54.42182983 1380.89628946 -56.95671681 1387.94145478 -59.5 1395 C-62.45824952 1403.21022925 -65.50105915 1411.35669808 -68.90576172 1419.39501953 C-70.29979518 1422.7137025 -71.56633218 1426.06042286 -72.8125 1429.4375 C-73.33017716 1430.83223626 -73.84843468 1432.22675721 -74.3671875 1433.62109375 C-74.63499023 1434.34151855 -74.90279297 1435.06194336 -75.17871094 1435.80419922 C-76.57752162 1439.54406346 -78.00989041 1443.27105665 -79.4375 1447 C-82.21485289 1454.26004841 -84.95188475 1461.53471671 -87.671875 1468.81640625 C-87.99974503 1469.69348236 -88.32761505 1470.57055847 -88.66542053 1471.47421265 C-90.32384811 1475.91084077 -91.98004102 1480.3482802 -93.63256836 1484.78710938 C-96.60741036 1492.75883747 -99.63272814 1500.68549787 -102.95629883 1508.52026367 C-104.39613952 1511.94119043 -105.7056058 1515.3963156 -107 1518.875 C-107.24927246 1519.54281494 -107.49854492 1520.21062988 -107.75537109 1520.89868164 C-109.42690333 1525.3952415 -111.03352496 1529.91204798 -112.625 1534.4375 C-113.9564874 1538.19873988 -115.33147222 1541.87595767 -117 1545.5 C-118.57301927 1548.92472305 -119.87969681 1552.38011291 -121.125 1555.9375 C-123.41883924 1562.46665085 -125.8750652 1568.92214681 -128.375 1575.375 C-131.56698174 1583.61811152 -134.71340201 1591.87630287 -137.80859375 1600.15625 C-138.13861389 1601.03882477 -138.46863403 1601.92139954 -138.80865479 1602.83071899 C-140.45380308 1607.23272792 -142.09561419 1611.63595519 -143.73388672 1616.04052734 C-146.67300402 1623.92461869 -149.66573985 1631.76134418 -152.9519043 1639.50927734 C-154.39301693 1642.93397595 -155.7042212 1646.39259448 -157 1649.875 C-157.24927246 1650.54281494 -157.49854492 1651.21062988 -157.75537109 1651.89868164 C-159.42690333 1656.3952415 -161.03352496 1660.91204798 -162.625 1665.4375 C-163.9564874 1669.19873988 -165.33147222 1672.87595767 -167 1676.5 C-168.57301927 1679.92472305 -169.87969681 1683.38011291 -171.125 1686.9375 C-173.86572242 1694.74314409 -176.84690108 1702.44857066 -179.83642578 1710.16186523 C-182.35146817 1716.66748485 -184.82321805 1723.18615238 -187.24609375 1729.7265625 C-187.51748672 1730.45753143 -187.7888797 1731.18850037 -188.0684967 1731.94161987 C-189.68562263 1736.29756579 -189.68562263 1736.29756579 -191.29153442 1740.65765381 C-192.0333894 1742.67979792 -192.78174171 1744.6994326 -193.53125 1746.71875 C-193.95986328 1747.88341797 -194.38847656 1749.04808594 -194.83007812 1750.24804688 C-196 1753 -196 1753 -198 1755 C-201.06351079 1755.19592261 -204.03650199 1755.26389922 -207.10114479 1755.24609566 C-208.06076036 1755.24840335 -209.02037593 1755.25071103 -210.00907075 1755.25308865 C-213.26145552 1755.25843056 -216.51364679 1755.24936997 -219.76602173 1755.24050903 C-222.10651012 1755.24138024 -224.44699832 1755.24312966 -226.78748548 1755.24568737 C-232.56882267 1755.24970925 -238.35009967 1755.24437342 -244.13142976 1755.23520601 C-251.05258551 1755.22475663 -257.97372658 1755.22589279 -264.8948883 1755.22749493 C-277.66911721 1755.23012621 -290.44332547 1755.22342672 -303.21754837 1755.21146011 C-315.87068407 1755.19963725 -328.52381118 1755.19193048 -341.17695236 1755.18975449 C-341.96287351 1755.18961701 -342.74879465 1755.18947953 -343.55853159 1755.18933788 C-347.54961913 1755.18866124 -351.54070668 1755.18805846 -355.53179424 1755.18748413 C-383.8210067 1755.18328022 -412.11020793 1755.16979689 -440.39941406 1755.15087891 C-467.88671814 1755.13251836 -495.37401915 1755.11834706 -522.86132812 1755.10986328 C-524.1316281 1755.1094687 -524.1316281 1755.1094687 -525.4275907 1755.10906615 C-533.93195919 1755.10642918 -542.43632771 1755.10387754 -550.94069625 1755.10138843 C-568.26599615 1755.09631563 -585.59129585 1755.09067313 -602.91659546 1755.08468628 C-603.7132331 1755.0844117 -604.50987074 1755.08413712 -605.33064891 1755.08385422 C-658.55377067 1755.0654443 -711.776886 1755.03371139 -765 1755 C-764.33317555 1751.43621841 -763.44840653 1748.52185199 -761.875 1745.25 C-759.58988801 1740.36937063 -757.5194982 1735.43148688 -755.5 1730.4375 C-753.27912 1724.96410541 -750.89594768 1719.6783181 -748.171875 1714.43359375 C-746.81368277 1711.61308123 -745.71985603 1708.74515009 -744.625 1705.8125 C-742.84505076 1701.06042367 -740.87172218 1696.45277328 -738.6875 1691.875 C-735.5332002 1685.2604708 -732.65098783 1678.55196416 -729.84057617 1671.78466797 C-726.93393013 1664.78921481 -723.87891803 1657.87025262 -720.6875 1651 C-718.53995229 1646.29772429 -716.56912627 1641.53846987 -714.625 1636.75 C-712.24241797 1630.89468623 -709.70648446 1625.15351682 -706.98144531 1619.44726562 C-703.20816347 1611.45435535 -699.80517958 1603.2951818 -696.35083008 1595.16088867 C-693.71911677 1588.97201014 -691.03467772 1582.8168826 -688.23291016 1576.703125 C-686.02584873 1571.86419746 -683.89030258 1566.99373582 -681.75 1562.125 C-681.03493286 1560.4996936 -681.03493286 1560.4996936 -680.30541992 1558.84155273 C-676.89344604 1551.07125539 -673.53579552 1543.27903371 -670.20849609 1535.47216797 C-667.81758825 1529.87334245 -665.36589239 1524.30498506 -662.875 1518.75 C-659.95216713 1512.23132773 -657.19201841 1505.6603173 -654.50341797 1499.04199219 C-652.33664595 1493.73828867 -649.96478481 1488.55240695 -647.52734375 1483.3671875 C-645.76939331 1479.49160367 -644.1600107 1475.56870288 -642.5625 1471.625 C-640.20220641 1465.80996068 -637.68664953 1460.11193059 -634.98120117 1454.44677734 C-631.20804402 1446.45400894 -627.80510882 1438.29501518 -624.35083008 1430.16088867 C-621.68601829 1423.89417396 -618.95435886 1417.66972304 -616.11669922 1411.47949219 C-614.52288463 1407.94062446 -613.06946645 1404.3517352 -611.625 1400.75 C-609.24586718 1394.89610658 -606.7063179 1389.15914824 -603.98583984 1383.45385742 C-600.73739025 1376.56496556 -597.75034995 1369.56188667 -594.75 1362.5625 C-594.23026611 1361.35295654 -593.71053223 1360.14341309 -593.17504883 1358.8972168 C-590.64514147 1352.97574613 -588.19106798 1347.05545158 -586 1341 C-585.34 1341 -584.68 1341 -584 1341 C-583.896875 1340.14535156 -583.79375 1339.29070312 -583.6875 1338.41015625 C-582.9369206 1334.68711186 -581.67422821 1331.84408934 -580 1328.4375 C-577.12092972 1322.45547335 -574.41177845 1316.42127142 -571.8125 1310.3125 C-571.26094238 1309.01807983 -571.26094238 1309.01807983 -570.69824219 1307.69750977 C-569.90381403 1305.83100382 -569.11006161 1303.96421016 -568.31689453 1302.09716797 C-566.06426549 1296.79927179 -563.80143234 1291.50575295 -561.53622437 1286.21322632 C-560.77275626 1284.42820511 -560.01098571 1282.64245813 -559.24926758 1280.85668945 C-555.49777113 1272.08554067 -551.57992048 1263.4019902 -547.5625 1254.75 C-545.1072363 1249.3652472 -542.94482256 1243.88055683 -540.8203125 1238.359375 C-539.28963407 1234.56240542 -537.55092771 1230.86912941 -535.8046875 1227.16796875 C-531.66636833 1218.38653093 -527.82976327 1209.48181709 -524 1200.5625 C-522.64660459 1197.41763646 -521.29206108 1194.27326786 -519.9375 1191.12890625 C-519.60826538 1190.3641951 -519.27903076 1189.59948395 -518.93981934 1188.81159973 C-516.71357049 1183.64424362 -514.47329297 1178.48319902 -512.21875 1173.328125 C-511.80822388 1172.38901024 -511.80822388 1172.38901024 -511.3894043 1171.43092346 C-509.45055654 1167.00542335 -507.47871515 1162.59524801 -505.5 1158.1875 C-501.6547696 1149.57836215 -497.92908581 1140.91755451 -494.20898438 1132.2538147 C-493.53330285 1130.68029954 -492.85704253 1129.10703278 -492.18017578 1127.5340271 C-491.21577494 1125.29176537 -490.25399209 1123.04839857 -489.29296875 1120.8046875 C-489.00572433 1120.13749191 -488.71847992 1119.47029633 -488.42253113 1118.78288269 C-486.47943993 1114.23451044 -484.71017532 1109.64112095 -483 1105 C-482.34 1105 -481.68 1105 -481 1105 C-480.938125 1104.236875 -480.87625 1103.47375 -480.8125 1102.6875 C-479.90092613 1098.55035704 -478.36549374 1095.16036553 -476.55810547 1091.34521484 C-474.94475624 1087.88139297 -473.40182625 1084.39083545 -471.87890625 1080.88671875 C-471.25802291 1079.46279886 -470.63691849 1078.03897535 -470.015625 1076.61523438 C-469.68844482 1075.86532227 -469.36126465 1075.11541016 -469.02416992 1074.34277344 C-467.24399277 1070.27064472 -465.45148428 1066.20395125 -463.66015625 1062.13671875 C-462.89902571 1060.40692869 -462.13795869 1058.67711067 -461.37695312 1056.94726562 C-460.22187286 1054.32168403 -459.06637494 1051.69629101 -457.90942383 1049.0715332 C-453.38852821 1038.81335319 -448.92341662 1028.53642725 -444.6030426 1018.19194031 C-442.594827 1013.3857354 -440.50835496 1008.62563025 -438.328125 1003.89453125 C-431.97052584 990.03870484 -425.97918439 976.02198109 -420 962 C-418.41819678 958.2910111 -416.83457982 954.58280338 -415.25 950.875 C-414.89752197 950.04701904 -414.54504395 949.21903809 -414.18188477 948.3659668 C-412.3636469 944.11175915 -410.49924258 939.8849523 -408.5703125 935.6796875 C-405.78847268 929.59147508 -403.20674974 923.42509964 -400.625 917.25 C-397.14099048 908.95909421 -393.55250436 900.76274895 -389.68359375 892.64453125 C-387.23340573 887.4263484 -385.05744811 882.088825 -382.84130859 876.76831055 C-381.10463758 872.60444917 -379.33513497 868.46891413 -377.4375 864.375 C-375.31100851 859.78550153 -373.40099121 855.12333436 -371.5 850.4375 C-369.27843678 844.96435982 -366.89598057 839.67838141 -364.171875 834.43359375 C-362.81368277 831.61308123 -361.71985603 828.74515009 -360.625 825.8125 C-358.84505261 821.06042862 -356.87176587 816.45274794 -354.6875 811.875 C-351.93619969 806.10687659 -349.39177611 800.27555705 -346.9375 794.375 C-344.698693 788.99247258 -342.41782455 783.65228627 -339.9375 778.375 C-337.36234709 772.89062028 -335.03354643 767.33058899 -332.79858398 761.70068359 C-330.93912023 757.0814443 -328.87913581 752.57236031 -326.75390625 748.0703125 C-322.74117613 739.556284 -319.0513803 730.91335662 -315.375 722.25 C-308.0001701 704.90028732 -308.0001701 704.90028732 -304.15771484 696.53515625 C-302.08979025 692.00682874 -300.10876488 687.44067741 -298.125 682.875 C-297.69082764 681.87726562 -297.25665527 680.87953125 -296.80932617 679.8515625 C-294.24100619 673.92795627 -291.7396971 667.98265613 -289.3125 662 C-286.92149035 656.11288635 -284.35169842 650.34116459 -281.62866211 644.60058594 C-279.1402913 639.34619599 -276.79938698 634.03481878 -274.48657227 628.70117188 C-272.84759318 624.92481612 -271.16943263 621.17249848 -269.4375 617.4375 C-266.95710491 612.02942547 -264.78303748 606.51098263 -262.625 600.96875 C-260.9928838 596.8858048 -259.15716023 592.90166592 -257.32519531 588.90527344 C-255.12585647 584.08358364 -253.00372416 579.22817919 -250.875 574.375 C-249.90894798 572.17443798 -248.9427993 569.97391839 -247.9765625 567.7734375 C-247.48575195 566.65549805 -246.99494141 565.53755859 -246.48925781 564.38574219 C-245.0262657 561.05971357 -243.55715699 557.73645904 -242.0859375 554.4140625 C-237.46410719 543.96676733 -232.89504544 533.51385647 -228.6328125 522.9140625 C-226.98124721 518.87919233 -225.16622045 514.9228534 -223.35205078 510.95898438 C-216.22662492 495.36487793 -209.3561764 479.65883394 -202.74169922 463.84155273 C-200.3012639 458.01652754 -197.77677322 452.24226494 -195.14526367 446.50097656 C-191.05461449 437.56799633 -187.1976812 428.53916553 -183.5 419.4375 C-181.07203365 413.46866488 -178.46598094 407.62113101 -175.6953125 401.80444336 C-172.93526716 395.96618079 -170.46142099 390.01908206 -167.98510742 384.05615234 C-165.63977043 378.43892548 -163.12839179 372.9261958 -160.50830078 367.43286133 C-158.16010218 362.4612741 -156.12817568 357.40247274 -154.1328125 352.28344727 C-152.39485973 347.86790261 -150.40414705 343.66641206 -148.21655273 339.45996094 C-147.10497792 337.21227324 -146.15733403 334.97806918 -145.25390625 332.640625 C-142.78048828 326.37790757 -140.10281349 320.2067743 -137.41870117 314.0324707 C-136.56573864 312.06995154 -135.71532459 310.10634291 -134.86523438 308.14257812 C-132.03761409 301.62049235 -129.16560835 295.12173606 -126.20874023 288.65698242 C-124.01358137 283.831712 -121.88344732 278.97779545 -119.75 274.125 C-119.27618896 273.04871338 -118.80237793 271.97242676 -118.31420898 270.86352539 C-114.81599667 262.90048175 -111.37177446 254.91543646 -107.99316406 246.90087891 C-106.39782856 243.14153569 -104.75189799 239.44456383 -102.8984375 235.8046875 C-101.21817662 232.50372032 -99.84057698 229.16793799 -98.5625 225.6875 C-96.70191789 220.75413835 -94.66361184 215.97409945 -92.44140625 211.1953125 C-90.58540862 207.08093293 -88.85928967 202.9168266 -87.125 198.75 C-84.17223134 191.67017679 -81.05944506 184.69944022 -77.73828125 177.78515625 C-75.84683837 173.75454168 -74.16686474 169.63978689 -72.46557617 165.52612305 C-69.84859455 159.22976029 -67.16877329 152.96017546 -64.48876953 146.69042969 C-63.82829635 145.14378089 -63.16912127 143.59657714 -62.51123047 142.04882812 C-59.19922953 134.25781848 -55.86928029 126.53338291 -51.99707031 119 C-50.669928 116.33791629 -49.62940276 113.61047913 -48.625 110.8125 C-46.6794697 105.62841003 -44.47251653 100.65212968 -42.08740234 95.65722656 C-38.80160358 88.70173326 -35.77942903 81.63223419 -32.75 74.5625 C-31.97064087 72.74866821 -31.97064087 72.74866821 -31.17553711 70.89819336 C-28.6453847 64.97642895 -26.19119219 59.05579485 -24 53 C-23.34 53 -22.68 53 -22 53 C-21.938125 52.236875 -21.87625 51.47375 -21.8125 50.6875 C-20.89222733 46.51087788 -19.32801965 43.08685547 -17.51171875 39.23046875 C-15.84060665 35.65938423 -14.2577866 32.05359503 -12.6875 28.4375 C-10.02254468 22.32325469 -7.33300466 16.22030333 -4.625 10.125 C-4.27912842 9.34568115 -3.93325684 8.5663623 -3.5769043 7.76342773 C-1.12430765 2.24861531 -1.12430765 2.24861531 0 0 Z " fill="#1991D0" transform="translate(853,350)"/>
</svg>
