<svg width="74" height="76" viewBox="0 0 74 76" fill="none" xmlns="http://www.w3.org/2000/svg">
<path fill-rule="evenodd" clip-rule="evenodd" d="M10.102 16.616C9.2233 17.4947 9.2233 18.9089 9.2233 21.7373V53.8022C9.2233 56.6306 9.2233 58.0448 10.102 58.9235C10.9807 59.8022 12.3949 59.8022 15.2233 59.8022H58.5631C61.3915 59.8022 62.8057 59.8022 63.6844 58.9235C64.5631 58.0448 64.5631 56.6306 64.5631 53.8022V21.7373C64.5631 18.9089 64.5631 17.4947 63.6844 16.616C62.8057 15.7373 61.3915 15.7373 58.563 15.7373H15.2233C12.3949 15.7373 10.9807 15.7373 10.102 16.616ZM21.2652 24.1975C18.9844 22.6408 15.8735 23.2278 14.3168 25.5086C12.7601 27.7895 13.3471 30.9004 15.628 32.4571L33.5108 44.6623C35.5508 46.0546 38.2356 46.0546 40.2755 44.6623L58.1584 32.4571C60.4392 30.9004 61.0263 27.7895 59.4696 25.5086C57.9129 23.2278 54.802 22.6408 52.5211 24.1975L36.8932 34.8637L21.2652 24.1975Z" fill="white"/>
</svg>
