<?xml version="1.0" encoding="UTF-8"?>
<svg version="1.1" xmlns="http://www.w3.org/2000/svg" width="1280" height="320">
<path d="M0 0 C7.37226802 0.01066865 14.74452332 0.0093161 22.11679716 0.00772695 C35.71508065 0.00511775 49.31334449 0.01171048 62.91162227 0.02376176 C76.35299518 0.03564314 89.79435989 0.04330315 103.23573802 0.04546739 C104.07511959 0.04560487 104.91450115 0.04574235 105.77931852 0.04588399 C110.04304806 0.04656077 114.30677761 0.0471635 118.57050716 0.04773775 C148.67936608 0.05192561 178.78821435 0.0653639 208.89706729 0.08434297 C238.12623338 0.10274611 267.35539655 0.11689649 296.58456729 0.1253586 C297.48738192 0.12562165 298.39019654 0.1258847 299.32036919 0.12615572 C308.38776471 0.12879303 317.45516025 0.13134462 326.52255581 0.13383344 C344.98976475 0.13890429 363.4569735 0.14454679 381.92418216 0.1505356 C383.19749584 0.15094747 383.19749584 0.15094747 384.49653303 0.15136766 C441.07104826 0.16973289 497.64555746 0.20146089 554.22006534 0.23522188 C553.82687147 0.68157929 553.4336776 1.1279367 553.02856877 1.58782009 C550.02623852 5.03560926 547.25361225 8.46243919 544.77818988 12.31687261 C514.875305 58.02207019 473.34419092 113.28870977 417.02476953 125.21238722 C386.92181517 130.98544909 356.07213921 131.4648673 325.51694034 131.41881563 C324.28143931 131.41802997 323.04593829 131.41724431 321.77299784 131.41643484 C289.69097442 131.36893444 257.67550394 130.22161278 225.63347123 128.70653404 C207.11061374 127.84015189 188.59433534 127.25569322 170.05551455 126.86437227 C168.74106525 126.8365407 167.42661594 126.80870914 166.07233484 126.78003419 C159.46785075 126.6417555 152.86327783 126.50847117 146.25863336 126.37809457 C133.37088377 126.12307548 120.48372773 125.84227647 107.59683536 125.54724885 C106.34941677 125.51876568 105.10199818 125.49028251 103.81677903 125.46093621 C85.60172449 125.03896725 67.39669678 124.45898579 49.19046329 123.7546158 C48.04810739 123.710897 46.9057515 123.6671782 45.72877876 123.6221346 C34.98367308 123.21049332 24.23944011 122.78709581 13.4971378 122.30746258 C-50.2714766 119.49059565 -109.2466029 122.25965244 -158.44790341 167.12194063 C-160.53028203 169.00898724 -162.6449653 170.84580421 -164.77993466 172.67272188 C-168.8401993 176.20089538 -172.57919241 180.01992518 -176.35805966 183.84459688 C-178.3599493 185.82065568 -180.38471239 187.6700338 -182.52993466 189.48522188 C-187.11119658 193.39605522 -191.29481399 197.69665775 -195.5055206 201.99791719 C-198.42965831 204.96542488 -201.39623418 207.805943 -204.56118466 210.51647188 C-209.73691343 214.98415297 -214.4824779 219.86893503 -219.27993466 224.73522188 C-229.29793849 234.89695603 -229.29793849 234.89695603 -233.68618466 238.64147188 C-239.36546927 243.50532836 -244.53059018 248.91783034 -249.77993466 254.23522188 C-261.35059975 265.95587706 -261.35059975 265.95587706 -265.71743466 269.67272188 C-271.75055931 274.82082204 -277.20931046 280.59846816 -282.77993466 286.23522188 C-296.1997872 299.81438301 -296.1997872 299.81438301 -301.48153188 304.10617639 C-303.38730819 305.87152599 -304.94959139 307.59683832 -306.59593083 309.58974649 C-311.60212951 315.45297413 -316.17021955 320.76815437 -324.13576176 321.79193093 C-328.12888896 322.01835411 -332.0809063 321.94940918 -336.07632138 321.82457735 C-337.87146388 321.82061915 -339.66662896 321.82286289 -341.46175839 321.83077241 C-346.29338581 321.8347589 -351.12006018 321.75298296 -355.95054461 321.65473701 C-361.01378438 321.56668765 -366.07716193 321.55895386 -371.14104917 321.5423813 C-380.71106238 321.4990199 -390.27881284 321.38435102 -399.84783353 321.24348844 C-410.74968528 321.08652014 -421.65165023 321.00990953 -432.5543523 320.93975235 C-454.96412999 320.79376377 -477.37190506 320.54782157 -499.77993466 320.23522188 C-495.80442808 315.47346328 -491.65955413 310.97084971 -487.26580503 306.5941086 C-486.63745594 305.96419952 -486.00910685 305.33429044 -485.36171689 304.68529321 C-483.27317776 302.59279212 -481.18111462 300.50385189 -479.0890167 298.41490938 C-477.58368272 296.90821921 -476.07856131 295.40131665 -474.57363584 293.89421846 C-470.4974072 289.81344097 -466.41803362 285.7358211 -462.33794333 281.65890504 C-458.06140051 277.38489945 -453.78730434 273.10844827 -449.5128143 268.83238985 C-442.33395847 261.65171611 -435.15300007 254.4731501 -427.97085263 247.29576875 C-419.67792485 239.00828078 -411.3886028 230.71719938 -403.10114851 222.42423822 C-395.97584234 215.29438768 -388.8485812 208.16649579 -381.71969571 201.04022409 C-377.46628071 196.78836484 -373.21353643 192.53584066 -368.96255567 188.28154756 C-364.96425155 184.28034557 -360.96349139 180.28161542 -356.96085813 176.28474428 C-355.4959172 174.82112077 -354.03181759 173.35665459 -352.5686424 171.89126588 C-339.56382432 158.86859564 -339.56382432 158.86859564 -333.4189861 153.64954378 C-330.67282814 151.27991018 -328.13326762 148.71203038 -325.58266904 146.1356125 C-325.0188905 145.5703737 -324.45511197 145.0051349 -323.87424924 144.42276765 C-322.66572268 143.21047259 -321.45835107 141.99702523 -320.25205686 140.78250886 C-318.33616998 138.85370425 -316.41704194 136.92817585 -314.49709775 135.00341035 C-310.42187494 130.91683347 -306.35060749 126.82633041 -302.27993466 122.73522188 C-297.55788147 117.98946289 -292.83416397 113.24538524 -288.10618283 108.50553133 C-286.2275655 106.62049412 -284.35201718 104.7324409 -282.47658994 102.84423067 C-277.26109939 97.60649404 -272.06673596 92.40907551 -266.4175842 87.63228609 C-263.32566605 84.9945983 -260.41672368 82.15498698 -257.46743466 79.36022188 C-251.44374666 73.70183178 -245.25154085 68.3786334 -238.77993466 63.23522188 C-237.68722385 62.32955467 -236.59616806 61.42188809 -235.50649716 60.51256563 C-196.04999199 27.85137777 -151.10705822 10.26631887 -100.46743466 3.98522188 C-99.26224179 3.8340793 -98.05704892 3.68293672 -96.81533505 3.52721406 C-92.4748728 3.0296208 -88.13098963 2.627366 -83.77993466 2.23522188 C-82.88852839 2.15170984 -81.99712212 2.0681978 -81.07870354 1.9821551 C-54.10948589 -0.43773061 -27.05079382 -0.04073635 0 0 Z " fill="#EE0000" transform="translate(499.7799346637912,-0.23522187676280737)"/>
<path d="M0 0 C5.3343598 0.00436155 10.66871857 0.00285407 16.00307965 0.00209773 C25.22115489 0.00157607 34.43922298 0.0046852 43.65729642 0.01033556 C56.98470805 0.01849945 70.31211627 0.02107077 83.63953014 0.02232356 C105.26794793 0.02450643 126.89636192 0.0311457 148.52477765 0.04062617 C169.52152225 0.04982012 190.51826582 0.05689124 211.51501203 0.06113398 C212.81156218 0.0613967 214.10811234 0.06165943 215.44395189 0.06193011 C221.94905299 0.06323525 228.4541541 0.06449893 234.95925522 0.06574202 C288.83477704 0.0760908 342.71029474 0.09368821 396.58581281 0.11606562 C395.75792752 1.05816889 394.93004224 2.00027216 394.07706952 2.97092402 C390.85974028 6.7243165 387.87874497 10.62979031 384.89887738 14.57273734 C311.25387266 111.68271176 311.25387266 111.68271176 256.25017053 119.95229805 C241.07339395 122.02319222 225.88765026 122.57622404 210.58581281 122.55356562 C209.77577094 122.55333305 208.96572906 122.55310048 208.13114047 122.55286086 C187.31360417 122.52139899 166.58621814 121.47572952 145.82192254 120.0677067 C133.84461598 119.26468504 121.87659413 118.73348505 109.87780499 118.38120234 C109.02342737 118.35603797 108.16904974 118.33087359 107.28878188 118.30494666 C102.99436053 118.17990388 98.69982527 118.05946825 94.40520215 117.94157565 C86.0285212 117.71078731 77.65269441 117.45357266 69.27721906 117.18271601 C68.06173989 117.14347287 68.06173989 117.14347287 66.82170558 117.10343695 C55.02806821 116.71690241 43.24685868 116.19054354 31.46471906 115.54355586 C30.72748648 115.50329763 29.9902539 115.46303941 29.23068094 115.42156124 C21.67468033 115.00726645 14.12087643 114.56802161 6.56832623 114.09456599 C-41.01612554 111.21093725 -41.01612554 111.21093725 -83.41418719 130.11606562 C-84.44257205 130.89646708 -84.44257205 130.89646708 -85.49173236 131.69263422 C-90.83239412 136.090031 -94.62945683 140.69543728 -98.5638473 146.35231936 C-110.07964657 162.65604478 -124.02123677 179.66979224 -144.6320827 183.36569941 C-167.46442927 186.85145599 -191.18607737 185.26101521 -214.15427446 184.14119184 C-224.12499496 183.66379561 -234.09719919 183.43888057 -244.07657433 183.22965705 C-264.53517298 182.79534285 -284.97320437 182.06108683 -305.41418719 181.11606562 C-299.75335991 174.20707645 -293.42372553 167.98469482 -287.10998797 161.68247187 C-285.86080862 160.4319358 -284.61184173 159.18118746 -283.36307025 157.93024409 C-279.98516288 154.54779414 -276.60411946 151.16849557 -273.22235227 147.78990519 C-269.67451536 144.24460888 -266.12912904 140.69686325 -262.58334613 137.14951289 C-256.62852934 131.19287913 -250.67161269 125.23835144 -244.7135036 119.28501093 C-237.83839662 112.41534316 -230.96689599 105.54208386 -224.09726226 98.66694319 C-218.18638489 92.75151826 -212.27354897 86.83805633 -206.3590914 80.926211 C-202.83226465 77.40093831 -199.30610518 73.87500531 -195.7817142 70.34729731 C-192.4662973 67.0289779 -189.14841713 63.71314076 -185.82867312 60.39915049 C-184.61529238 59.18708473 -183.40274826 57.97418072 -182.19113421 56.76034892 C-176.10765374 50.66676625 -170.00228109 44.67087114 -163.41418719 39.11606562 C-162.46414813 38.28462031 -161.51410907 37.453175 -160.53528094 36.59653437 C-115.00391762 -2.30726515 -56.75599481 -0.05831357 0 0 Z " fill="#EE0000" transform="translate(518.4141871929169,138.88393437862396)"/>
<path d="M0 0 C-10.515999 12.39973082 -21.48010995 24.42467005 -32.33496094 36.52709961 C-33.00709775 37.27650279 -33.67923456 38.02590597 -34.37173915 38.79801834 C-61.20159262 68.6958069 -88.56790012 98.06992884 -116.21868114 127.20907247 C-120.65761188 131.88777658 -125.09213255 136.5706385 -129.52392578 141.25610352 C-130.84659757 142.65425938 -130.84659757 142.65425938 -132.19599 144.08066083 C-144.52063714 157.12709032 -156.58344145 170.37541722 -168.46548682 183.82567294 C-188.98757271 207.05577935 -209.94164502 229.791445 -231.796875 251.77734375 C-233.06964833 253.06080953 -233.06964833 253.06080953 -234.36813426 254.37020391 C-283.16493907 303.43324645 -326.06002717 329.9198567 -396.53570554 330.62482544 C-435.56657301 330.66527424 -474.55865448 326.5465334 -513 320 C-502.484001 307.60026918 -491.51989005 295.57532995 -480.66503906 283.47290039 C-479.99290225 282.72349721 -479.32076544 281.97409403 -478.62826085 281.20198166 C-451.79840738 251.3041931 -424.43209988 221.93007116 -396.78131886 192.79092753 C-392.34238812 188.11222342 -387.90786745 183.4293615 -383.47607422 178.74389648 C-382.15340243 177.34574062 -382.15340243 177.34574062 -380.80401 175.91933917 C-368.47936286 162.87290968 -356.41655855 149.62458278 -344.53451318 136.17432706 C-324.01242729 112.94422065 -303.05835498 90.208555 -281.203125 68.22265625 C-280.35460944 67.3670124 -279.50609389 66.51136854 -278.63186574 65.62979609 C-196.56354713 -16.88629124 -110.33945423 -18.79072943 0 0 Z " fill="#ED0000" transform="translate(1280,0)"/>
<path d="M0 0 C3.63 0 7.26 0 11 0 C14.3 9.24 17.6 18.48 21 28 C24.3 18.76 27.6 9.52 31 0 C34.63 0 38.26 0 42 0 C42 13.2 42 26.4 42 40 C39.69 40 37.38 40 35 40 C34.505 27.625 34.505 27.625 34 15 C31.03 23.25 28.06 31.5 25 40 C22.36 40 19.72 40 17 40 C14.03 31.75 11.06 23.5 8 15 C7.67 23.25 7.34 31.5 7 40 C4.69 40 2.38 40 0 40 C0 26.8 0 13.6 0 0 Z " fill="#EE0000" transform="translate(1078,280)"/>
<path d="M0 0 C10.89 0 21.78 0 33 0 C33 2.31 33 4.62 33 7 C29.04 7 25.08 7 21 7 C21 17.89 21 28.78 21 40 C18.36 40 15.72 40 13 40 C13 29.11 13 18.22 13 7 C8.71 7 4.42 7 0 7 C0 4.69 0 2.38 0 0 Z " fill="#EF0000" transform="translate(1041,280)"/>
</svg>
