<?xml version="1.0" encoding="UTF-8"?>
<svg version="1.1" xmlns="http://www.w3.org/2000/svg" width="2560" height="1401">
<path d="M0 0 C2.02431401 -0.00131132 4.0486275 -0.00394373 6.07293832 -0.0077675 C11.58490312 -0.01442022 17.09669035 -0.00255232 22.60863256 0.01256669 C28.57156169 0.02559872 34.53448189 0.02113255 40.49742126 0.01885986 C51.48180674 0.01718977 62.46612827 0.02879793 73.45049763 0.04688251 C83.5894814 0.06343232 93.72844624 0.07308176 103.86744308 0.07613182 C104.54135665 0.07633804 105.21527022 0.07654426 105.90960541 0.07675673 C109.33254601 0.07777183 112.75548663 0.07867594 116.17842726 0.07953735 C140.3768914 0.08582631 164.57532579 0.10600396 188.77377319 0.13444519 C212.27149295 0.16203081 235.76920454 0.18326578 259.26693726 0.19596863 C260.35479389 0.1965605 260.35479389 0.1965605 261.46462743 0.19716432 C268.74824998 0.20112013 276.03187259 0.20494753 283.31549525 0.2086809 C298.15098409 0.21628804 312.98647239 0.22475179 327.82196045 0.23373413 C328.50396234 0.234146 329.18596422 0.23455787 329.88863283 0.23498222 C375.3747729 0.26255003 420.86089575 0.31014429 466.34701538 0.36076355 C465.089091 2.88756548 463.82996352 5.41375615 462.57015991 7.93962097 C462.21851273 8.64628654 461.86686554 9.35295212 461.50456238 10.0810318 C458.20872378 16.68493868 454.73768881 23.18359647 451.22201538 29.67326355 C446.10970454 39.14852848 441.09041218 48.66450754 436.15951538 58.23576355 C431.54623853 67.18566186 426.81522294 76.05573401 421.95565796 84.87394714 C417.44926714 93.08969018 413.16030682 101.41282627 408.87802124 109.74650574 C404.82291815 117.63342005 400.69579812 125.47126777 396.40951538 133.23576355 C391.55690174 142.02864657 386.9297836 150.92550886 382.34701538 159.86076355 C377.31343457 169.67499031 372.18586411 179.41856626 366.85482788 189.0756073 C362.7179075 196.60234923 358.77198906 204.22232248 354.84701538 211.86076355 C350.47075749 220.37745455 346.0375757 228.85214609 341.40951538 237.23576355 C336.55690174 246.02864657 331.9297836 254.92550886 327.34701538 263.86076355 C322.31343457 273.67499031 317.18586411 283.41856626 311.85482788 293.0756073 C307.7179075 300.60234923 303.77198906 308.22232248 299.84701538 315.86076355 C295.47075749 324.37745455 291.0375757 332.85214609 286.40951538 341.23576355 C281.55690174 350.02864657 276.9297836 358.92550886 272.34701538 367.86076355 C267.31343457 377.67499031 262.18586411 387.41856626 256.85482788 397.0756073 C252.7179075 404.60234923 248.77198906 412.22232248 244.84701538 419.86076355 C240.47075749 428.37745455 236.0375757 436.85214609 231.40951538 445.23576355 C226.18951402 454.69434912 221.23587209 464.2782741 216.30627441 473.88999939 C211.64165969 482.97985594 206.86534727 491.99103631 201.92514038 500.9349823 C197.58412449 508.83516444 193.4603329 516.84062059 189.34701538 524.86076355 C184.32067044 534.66094887 179.20333984 544.39232427 173.87680054 554.03385925 C168.81915563 563.23090976 164.03005797 572.56518766 159.24520874 581.90617371 C158.9341066 582.51210861 158.62300446 583.11804352 158.30247498 583.74234009 C157.45355051 585.3964579 156.60699272 587.05178971 155.7605896 588.7071991 C154.34701538 591.36076355 154.34701538 591.36076355 152.34701538 594.36076355 C304.80701538 594.69076355 457.26701538 595.02076355 614.34701538 595.36076355 C615.00701538 593.38076355 615.66701538 591.40076355 616.34701538 589.36076355 C617.20315914 587.54593096 618.10078726 585.75020674 619.03451538 583.9740448 C619.56295044 582.96358093 620.0913855 581.95311707 620.63583374 580.91203308 C621.20052368 579.84323914 621.76521362 578.77444519 622.34701538 577.67326355 C622.93297485 576.55548523 623.51893433 575.43770691 624.12265015 574.28605652 C625.85953667 570.97519798 627.60231655 567.66751064 629.34701538 564.36076355 C630.2104182 562.72150466 631.07371287 561.0821888 631.93685913 559.4427948 C633.11250996 557.21036558 634.28853769 554.97814195 635.46615601 552.74674988 C639.12693312 545.80225569 642.73776573 538.83214653 646.34701538 531.86076355 C650.73159119 523.39181289 655.13661683 514.93476346 659.58920288 506.50138855 C663.03529686 499.96840257 666.44327352 493.4158992 669.84701538 486.86076355 C673.63891747 479.55808503 677.44270177 472.26231118 681.28451538 464.98576355 C685.34323867 457.29696102 689.34972326 449.58166317 693.34701538 441.86076355 C697.73159119 433.39181289 702.13661683 424.93476346 706.58920288 416.50138855 C710.03529686 409.96840257 713.44327352 403.4158992 716.84701538 396.86076355 C720.63891747 389.55808503 724.44270177 382.26231118 728.28451538 374.98576355 C732.34323874 367.29696089 736.34970828 359.58165551 740.34701538 351.86076355 C744.75458154 343.34776993 749.17128247 334.84035404 753.65951538 326.36955261 C755.90085636 322.13407738 758.10544326 317.88264974 760.27670288 313.61076355 C780.38883264 274.19317463 809.2611818 242.4500767 850.34701538 224.36076355 C850.97269409 224.08297058 851.5983728 223.80517761 852.24301147 223.51896667 C870.79246707 215.40208778 889.31029761 212.05027095 909.4511261 212.08229065 C910.8005106 212.07727109 912.14989211 212.07139053 913.49926955 212.06473792 C917.15950511 212.04912441 920.81966355 212.0455177 924.47992837 212.04408932 C928.44495865 212.04036219 932.4099482 212.02519069 936.37495422 212.01147461 C943.22878012 211.98930102 950.08259134 211.97422851 956.93644524 211.96410751 C966.84571753 211.94946416 976.75493862 211.92391183 986.6641807 211.89577623 C1002.74488737 211.8504105 1018.82560146 211.81375366 1034.90634155 211.78263855 C1050.51865946 211.75241101 1066.13095929 211.71804154 1081.74325562 211.67814636 C1082.70710133 211.67568481 1083.67094704 211.67322327 1084.66400021 211.67068712 C1089.49977995 211.65831171 1094.33555948 211.64585533 1099.17133892 211.63335872 C1139.22987263 211.52994408 1179.28842832 211.44069055 1219.34701538 211.36076355 C1221.26544379 207.79862254 1223.18379626 204.23644065 1225.10208225 200.67422295 C1225.75292695 199.46564221 1226.4037914 198.25707212 1227.05467701 197.04851341 C1231.64094059 188.53273741 1236.22100426 180.01375688 1240.78451538 171.48576355 C1241.72323636 169.73256408 1242.6619579 167.9793649 1243.60070801 166.22618103 C1244.5525302 164.44849933 1245.50422627 162.67075017 1246.4559021 160.89299011 C1250.20873775 153.88295353 1253.96449206 146.87447983 1257.71957397 139.86564636 C1260.5420855 134.59725242 1263.36437078 129.32873821 1266.18518066 124.05943298 C1273.12788338 111.09044372 1280.0749986 98.12392411 1287.06454468 85.18009949 C1289.82165102 80.07027799 1292.56729368 74.95504415 1295.27859497 69.82078552 C1296.60263871 67.31398442 1297.93113525 64.80955292 1299.25961304 62.30509949 C1300.18526305 60.55524057 1301.10417181 58.80182069 1302.02279663 57.04826355 C1315.09923555 32.40980625 1333.26980585 12.53757408 1360.40951538 3.92326355 C1366.89948899 2.06063277 1372.95479919 1.23566153 1379.71221924 1.24050903 C1380.43196745 1.23965461 1381.15171566 1.23880018 1381.89327443 1.23791987 C1384.29308229 1.23627925 1386.69281948 1.24176312 1389.09262085 1.24723816 C1390.81762185 1.24752036 1392.54262297 1.24736165 1394.2676239 1.24679565 C1398.94274989 1.24650898 1403.61785016 1.25238482 1408.29297018 1.25936961 C1413.18168094 1.26562467 1418.0703923 1.26620865 1422.95910645 1.26739502 C1432.21310456 1.27050198 1441.46709085 1.27870683 1450.72108376 1.28874451 C1461.25790111 1.29992534 1471.79471902 1.30542107 1482.33154082 1.31043994 C1504.00337227 1.32088996 1525.67519308 1.33847713 1547.34701538 1.36076355 C1546.6182217 5.39017149 1545.46168159 8.38051441 1543.49545288 11.9896698 C1542.60104492 13.64410095 1542.60104492 13.64410095 1541.68856812 15.33195496 C1541.03310996 16.52909036 1540.37759069 17.7261923 1539.72201538 18.92326355 C1539.04302075 20.17467946 1538.36472861 21.42647675 1537.68710327 22.67863464 C1536.27809735 25.2810209 1534.86607804 27.88173789 1533.45199585 30.48136902 C1530.19970661 36.46687192 1526.99520084 42.47787081 1523.78451538 48.48576355 C1518.40953551 58.52422622 1513.01579904 68.55247695 1507.61410522 78.57658386 C1501.46918426 89.983406 1495.35312452 101.40565457 1489.23812866 112.82853699 C1487.35707476 116.34221515 1485.47517998 119.85544249 1483.59310913 123.36857605 C1482.97435913 124.52381775 1482.35560913 125.67905945 1481.71810913 126.86930847 C1480.47565051 129.18773236 1479.23216891 131.50560833 1477.98764038 133.82292175 C1475.09055915 139.22040577 1472.20352256 144.62205452 1469.35583496 150.04573059 C1468.03056993 152.5681572 1466.69902416 155.08724398 1465.36703491 157.60612488 C1464.44541895 159.35512733 1463.53275001 161.1088354 1462.62045288 162.86271667 C1458.75114656 170.17092333 1454.38871328 176.80888289 1449.34701538 183.36076355 C1448.90945923 183.94124451 1448.47190308 184.52172546 1448.02108765 185.11979675 C1436.17358732 200.16506281 1416.09550579 211.78763152 1397.34701538 215.36076355 C1391.57424939 215.79701959 1385.82042752 215.79929357 1380.03378296 215.7931366 C1378.30803736 215.80216809 1376.58229815 215.81249868 1374.85656738 215.82402039 C1370.20239127 215.85145366 1365.54833733 215.86085621 1360.89409089 215.86687446 C1356.01870582 215.87629392 1351.14341074 215.90250007 1346.26808167 215.92687988 C1337.04968967 215.97045064 1327.83131524 215.99905539 1318.6128518 216.02220327 C1308.11213982 216.04930559 1297.61151879 216.09321392 1287.11087191 216.13849199 C1265.52296875 216.23120322 1243.93503836 216.30294572 1222.34701538 216.36076355 C1221.79959686 217.42792603 1221.25217834 218.4950885 1220.68817139 219.59458923 C1218.63410906 223.59857009 1216.5794394 227.60223904 1214.52459717 231.6058197 C1213.63962817 233.33026422 1212.75481833 235.05479043 1211.87017822 236.77940369 C1206.54355416 247.16340628 1201.19294893 257.53213297 1195.72982788 267.84513855 C1192.73742093 273.50060758 1189.79495302 279.18202884 1186.84701538 284.86076355 C1183.05519665 292.16348492 1179.25132868 299.45921651 1175.40951538 306.73576355 C1171.35079209 314.42456608 1167.3443075 322.13986393 1163.34701538 329.86076355 C1158.96243957 338.32971421 1154.55741393 346.78676364 1150.10482788 355.22013855 C1146.6587339 361.75312453 1143.25075725 368.3056279 1139.84701538 374.86076355 C1136.05511329 382.16344207 1132.25132899 389.45921592 1128.40951538 396.73576355 C1123.73211594 405.59657964 1119.12557327 414.49366001 1114.51913452 423.39152527 C1110.76630058 430.63616191 1106.9855923 437.86505792 1103.17514038 445.07951355 C1099.53123268 451.98874114 1095.93839374 458.92411652 1092.34701538 465.86076355 C1081.58608663 486.63209308 1081.58608663 486.63209308 1076.63168335 495.94181824 C1075.7181829 497.66187952 1074.8087802 499.38411979 1073.90219116 501.10783386 C1068.08442107 512.15281338 1062.40307811 522.76575196 1054.34701538 532.36076355 C1053.87231812 532.9326239 1053.39762085 533.50448425 1052.90853882 534.09367371 C1025.88129765 566.58642364 987.28942004 593.01477537 944.27019906 597.15440261 C938.76080391 597.54333607 933.25091875 597.49395289 927.73028564 597.48101807 C926.37284517 597.48145489 925.01540477 597.48233184 923.65796483 597.48360723 C919.95223275 597.48583039 916.24652988 597.48186093 912.54080153 597.47682917 C908.53548659 597.47249339 904.53017319 597.47397331 900.52485657 597.47473145 C893.59344979 597.4752547 886.66205245 597.47212863 879.73064804 597.46649361 C869.7091151 597.45835173 859.6875867 597.45576063 849.66605081 597.45450561 C833.40508068 597.45231932 817.14411559 597.44567068 800.88314819 597.436203 C785.09115626 597.42701796 769.2991657 597.41994247 753.50717163 597.41569519 C752.04599115 597.41530111 752.04599115 597.41530111 750.55529188 597.41489906 C745.66820693 597.41359398 740.78112197 597.41233028 735.89403701 597.41108716 C695.37835964 597.40072769 654.8626878 597.38312086 614.34701538 597.36076355 C613.90044586 598.74657623 613.90044586 598.74657623 613.44485474 600.16038513 C612.23915287 603.67520012 610.67954348 606.75732208 608.92514038 610.03263855 C608.42066879 610.97895142 608.42066879 610.97895142 607.90600586 611.94438171 C606.80748622 614.00227246 605.7023446 616.05652356 604.59701538 618.11076355 C603.82466551 619.55424668 603.05269748 620.99793417 602.28109741 622.44181824 C599.97604075 626.75153039 597.66220822 631.05649057 595.34701538 635.36076355 C594.70404737 636.55734355 594.06113986 637.75395606 593.41830444 638.9506073 C590.55153573 644.28515336 587.67974275 649.61696273 584.80404663 654.94670105 C581.15990393 661.70296448 577.53316545 668.46849157 573.90951538 675.23576355 C573.28673706 676.39882019 572.66395874 677.56187683 572.02230835 678.76017761 C570.76081205 681.11624223 569.49944592 683.47237651 568.23812866 685.82853699 C565.10910578 691.67333462 561.97788847 697.51695688 558.84701538 703.36076355 C557.59700635 705.69409204 556.34700635 708.02742538 555.09701538 710.36076355 C476.34701538 857.36076355 476.34701538 857.36076355 397.59701538 1004.36076355 C396.97729858 1005.51761658 396.35758179 1006.6744696 395.71908569 1007.86637878 C394.47901417 1010.18108192 393.2387819 1012.49569895 391.99838257 1014.81022644 C389.07154637 1020.2720357 386.14635166 1025.73469635 383.22689819 1031.20045471 C381.84936301 1033.77921625 380.47090555 1036.35748425 379.09237671 1038.93571472 C378.43615359 1040.16365836 377.78038132 1041.39184306 377.12509155 1042.62028503 C376.21583743 1044.32475443 375.30489732 1046.02832411 374.39389038 1047.7318573 C373.61803589 1049.18483215 373.61803589 1049.18483215 372.82650757 1050.66716003 C371.39786307 1053.26818888 369.87380927 1055.81610707 368.34701538 1058.36076355 C529.22201538 1058.85576355 529.22201538 1058.85576355 693.34701538 1059.36076355 C683.89857474 1078.25764484 683.89857474 1078.25764484 679.59701538 1086.48576355 C679.08807739 1087.46037537 678.5791394 1088.43498718 678.05477905 1089.43913269 C674.18260814 1096.82658416 670.208812 1104.15444647 666.19515991 1111.46574402 C661.71543805 1119.64292295 657.33781411 1127.87242935 652.97201538 1136.11076355 C647.18963637 1147.02024408 641.37554417 1157.91139471 635.51327515 1168.77824402 C631.29896665 1176.59045594 627.09965252 1184.41056047 622.90951538 1192.23576355 C622.28673706 1193.39882019 621.66395874 1194.56187683 621.02230835 1195.76017761 C619.76081205 1198.11624223 618.49944592 1200.47237651 617.23812866 1202.82853699 C614.10910578 1208.67333462 610.97788847 1214.51695688 607.84701538 1220.36076355 C606.59700635 1222.69409204 605.34700635 1225.02742538 604.09701538 1227.36076355 C601.59701538 1232.02743022 599.09701538 1236.69409688 596.59701538 1241.36076355 C595.97818481 1242.51592468 595.35935425 1243.67108582 594.72177124 1244.86125183 C593.47262118 1247.19297692 592.22343502 1249.52468267 590.97421265 1251.85636902 C588.15177195 1257.12458166 585.32958653 1262.3929301 582.50886536 1267.6620636 C568.51538804 1293.80195048 568.51538804 1293.80195048 561.55917358 1306.67985535 C558.56046911 1312.23346793 555.58370783 1317.79731738 552.63998413 1323.3802948 C552.02582642 1324.53835632 551.4116687 1325.69641785 550.77890015 1326.88957214 C549.61762954 1329.08031125 548.46262969 1331.27439219 547.31552124 1333.47257996 C541.38041487 1344.63305327 534.00970056 1354.18938874 525.34701538 1363.36076355 C524.67283569 1364.09939636 523.99865601 1364.83802917 523.30404663 1365.5990448 C506.55085575 1383.29519201 480.30613087 1398.88472897 455.62191176 1400.54393792 C452.64765003 1400.61077158 449.67937673 1400.6179231 446.70440674 1400.60127258 C445.57288559 1400.60298143 444.44136444 1400.60469028 443.27555478 1400.60645092 C439.50617784 1400.60972982 435.73698123 1400.5987684 431.96762085 1400.58781433 C429.25681954 1400.58613406 426.54602168 1400.58747952 423.83522034 1400.58869934 C418.01040679 1400.58974492 412.18563826 1400.58350261 406.36083603 1400.57222366 C397.93929377 1400.55592714 389.51777313 1400.55075642 381.09621681 1400.54824768 C367.43078058 1400.54387708 353.7653683 1400.53058524 340.09994507 1400.51164246 C326.83008951 1400.4932672 313.56024048 1400.47911876 300.29037476 1400.47062683 C299.47157821 1400.47010138 298.65278166 1400.46957594 297.80917309 1400.46903457 C293.70125988 1400.46642438 289.59334663 1400.46389699 285.48543334 1400.46141076 C251.43927665 1400.44069803 217.39314896 1400.40548984 183.34701538 1400.36076355 C184.60576231 1397.83327466 185.86560688 1395.30634268 187.12606812 1392.77970886 C187.47800987 1392.07274872 187.82995163 1391.36578857 188.19255829 1390.6374054 C191.47539818 1384.06061217 194.91633784 1377.57848092 198.40951538 1371.11076355 C199.05689908 1369.90777213 199.70402768 1368.7046434 200.35092163 1367.50138855 C201.68605125 1365.01844271 203.02224088 1362.53607203 204.35922241 1360.05412292 C207.53206935 1354.16183119 210.6884555 1348.26072285 213.84701538 1342.36076355 C215.09694305 1340.02739147 216.34694318 1337.6940582 217.59701538 1335.36076355 C218.21576538 1334.20576355 218.83451538 1333.05076355 219.47201538 1331.86076355 C330.09701532 1125.36076366 330.09701532 1125.36076366 331.97372437 1121.85758972 C333.21804583 1119.5348455 334.46234935 1117.21209167 335.70663452 1114.889328 C338.58348958 1109.51902262 341.46049761 1104.14879954 344.3381958 1098.77894592 C345.66787024 1096.29771342 346.99743654 1093.81642298 348.32699585 1091.33512878 C349.24241912 1089.62682106 350.15799483 1087.91859502 351.07357788 1086.21037292 C355.50884937 1077.93286062 359.92774765 1069.64689054 364.34701538 1061.36076355 C211.55701538 1061.03076355 58.76701538 1060.70076355 -98.65298462 1060.36076355 C-97.11302732 1056.51087031 -95.4936361 1052.9724506 -93.59829712 1049.3021698 C-93.30113297 1048.72593872 -93.00396881 1048.14970764 -92.69779968 1047.55601501 C-91.72731239 1045.6769754 -90.75294983 1043.79998322 -89.77798462 1041.92326355 C-89.44118683 1041.273284 -89.10438904 1040.62330444 -88.75738525 1039.95362854 C-84.08524667 1030.94052172 -79.31730676 1021.98785645 -74.42056274 1013.09440613 C-69.78068188 1004.64832524 -65.27674064 996.13252218 -60.77798462 987.61076355 C-54.8720841 976.42590837 -48.92839871 965.26406637 -42.91567993 954.13615417 C-37.87348208 944.79488032 -32.90009093 935.41782023 -27.92971802 926.03822327 C-22.98598627 916.71219521 -17.97901742 907.42475505 -12.89859009 898.17228699 C-8.87188247 890.81604132 -4.99849229 883.38464776 -1.13858032 875.93986511 C2.15664568 869.59998036 5.53087208 863.31001612 8.97201538 857.04826355 C14.19765848 847.538155 19.28292815 837.95746318 24.34701538 828.36076355 C29.87318382 817.88839681 35.4487382 807.44922695 41.15170288 797.07170105 C44.63653683 790.71187909 48.00910714 784.2987729 51.34701538 777.86076355 C55.14083295 770.54341651 59.00236304 763.27172928 62.97201538 756.04826355 C68.19766095 746.53815052 73.28274675 736.95737063 78.34701538 727.36076355 C83.28984983 717.99539971 88.24589874 708.64124927 93.34701538 699.36076355 C98.37916277 690.2019193 103.2786815 680.97579019 108.15951538 671.73576355 C115.54387747 657.75674061 122.98021699 643.80723652 130.45883179 629.87834167 C133.54478866 624.12938039 136.62690116 618.37836024 139.70849609 612.62705994 C140.70188612 610.77332613 141.69568802 608.91981361 142.68954468 607.06632996 C143.28549438 605.95435242 143.88144409 604.84237488 144.49545288 603.69670105 C145.28701782 602.22016052 145.28701782 602.22016052 146.09457397 600.71379089 C146.8622026 599.27160675 147.61637883 597.82203664 148.34701538 596.36076355 C-46.35298462 596.36076355 -241.05298462 596.36076355 -441.65298462 596.36076355 C-440.62144731 592.23461433 -438.98174587 588.82820508 -437.03970337 585.08732605 C-436.67435486 584.37618652 -436.30900635 583.665047 -435.93258667 582.93235779 C-434.73974636 580.61446005 -433.54040807 578.30000143 -432.34048462 575.98576355 C-431.50977582 574.37658281 -430.67912839 572.76737038 -429.84854126 571.15812683 C-425.08484996 561.94798592 -420.22454504 552.80072407 -415.20254517 543.72843933 C-410.68524922 535.52457901 -406.42069624 527.19612321 -402.15298462 518.86076355 C-396.96273546 508.72389614 -391.69079243 498.65266383 -386.18032837 488.6849823 C-381.85392575 480.8198645 -377.74893611 472.84735328 -373.65298462 464.86076355 C-369.11281001 456.00799467 -364.52960926 447.19386158 -359.71548462 438.48576355 C-354.67719173 429.36951536 -349.89951677 420.13091505 -345.15298462 410.86076355 C-339.96268594 400.72391973 -334.69079367 390.65266607 -329.18032837 380.6849823 C-324.85392575 372.8198645 -320.74893611 364.84735328 -316.65298462 356.86076355 C-312.11281001 348.00799467 -307.52960926 339.19386158 -302.71548462 330.48576355 C-297.67719173 321.36951536 -292.89951677 312.13091505 -288.15298462 302.86076355 C-282.96268594 292.72391973 -277.69079367 282.65266607 -272.18032837 272.6849823 C-267.85392575 264.8198645 -263.74893611 256.84735328 -259.65298462 248.86076355 C-255.11281001 240.00799467 -250.52960926 231.19386158 -245.71548462 222.48576355 C-240.67719173 213.36951536 -235.89951677 204.13091505 -231.15298462 194.86076355 C-225.9656975 184.72980142 -220.69920426 174.66295431 -215.18911743 164.70256042 C-210.07128581 155.40312849 -205.24819051 145.95230883 -200.43399048 136.49308777 C-194.60083114 125.06500982 -188.59297411 113.69525676 -181.21548462 103.17326355 C-180.75158325 102.50601257 -180.28768188 101.8387616 -179.8097229 101.15129089 C-175.70569443 95.31348251 -171.32213109 89.75866972 -166.65298462 84.36076355 C-165.99427368 83.59119324 -165.33556274 82.82162292 -164.65689087 82.0287323 C-153.94268343 69.81575104 -142.49443508 58.32511846 -129.41372681 48.66398621 C-127.5874513 47.31225872 -125.78007383 45.93763766 -123.97329712 44.5599823 C-115.54783886 38.19005006 -106.87177266 32.51256337 -97.65298462 27.36076355 C-96.87181274 26.92232117 -96.09064087 26.48387878 -95.28579712 26.03215027 C-65.22486004 9.32187469 -34.42337178 -0.16812808 0 0 Z " fill="#000000" transform="translate(441.6529846191406,-0.3607635498046875)"/>
<path d="M0 0 C1.51082002 -0.00627844 3.02163854 -0.01292642 4.53245544 -0.01991272 C9.46099811 -0.04079112 14.38954051 -0.05129972 19.31811523 -0.0612793 C21.02588351 -0.0653329 22.73365163 -0.06944999 24.4414196 -0.07362938 C32.46914481 -0.0926453 40.49686103 -0.10688388 48.52460438 -0.11524135 C57.74265519 -0.12500089 66.96046507 -0.15130206 76.17843109 -0.19174224 C83.33637826 -0.22205068 90.49425691 -0.23672407 97.65226692 -0.24002236 C101.91224956 -0.24235595 106.17197378 -0.25109326 110.43188667 -0.27648354 C114.44661087 -0.30002938 118.46091127 -0.3038931 122.47568703 -0.29372215 C123.93438389 -0.29323306 125.39310358 -0.2993642 126.85173416 -0.3132782 C145.53005639 -0.48122737 163.76046458 3.43853021 177.62280273 16.7668457 C186.14070382 26.13501856 189.47598049 37.42629573 189.09936523 49.9855957 C187.62936152 66.43755511 181.72643666 81.06463816 174.17651367 95.55541992 C172.56665317 98.65339162 170.97577124 101.76083689 169.38452148 104.8684082 C163.15174529 117.01980527 156.82326774 129.10753178 150.2331543 141.07006836 C146.48845467 147.88602364 142.88308573 154.7675551 139.31420898 161.67700195 C134.74578331 170.5205616 130.05881009 179.28672356 125.26342773 188.0090332 C121.69273025 194.52085782 118.23100641 201.08326028 114.81420898 207.67700195 C110.92322117 215.18583707 106.95110281 222.64109664 102.87670898 230.05200195 C98.57863334 237.87179927 94.4099251 245.74939672 90.31420898 253.67700195 C84.73389099 264.46978738 79.00693115 275.17187557 73.12182617 285.80151367 C71.93285632 287.96146078 70.76479755 290.13112461 69.60327148 292.3059082 C65.52111786 299.85245613 60.91969512 306.13489456 54.81420898 312.17700195 C54.15163086 312.8730957 53.48905273 313.56918945 52.80639648 314.28637695 C41.19953586 325.67257483 26.43303323 330.5184078 10.53686523 330.37231445 C9.37037949 330.36948456 8.20389374 330.36665466 7.00205994 330.36373901 C3.29350322 330.35258583 -0.41480786 330.32748981 -4.12329102 330.30200195 C-6.64477189 330.29196589 -9.16625657 330.28284113 -11.68774414 330.2746582 C-17.85384291 330.25266239 -24.01979941 330.21923313 -30.18579102 330.17700195 C-28.94212402 326.20714139 -27.49465063 322.58107124 -25.56860352 318.89575195 C-25.05048096 317.90075684 -24.5323584 316.90576172 -23.99853516 315.88061523 C-23.44157959 314.82342285 -22.88462402 313.76623047 -22.31079102 312.67700195 C-21.72998779 311.56695801 -21.14918457 310.45691406 -20.55078125 309.31323242 C-16.38009263 301.37041155 -12.102896 293.4897796 -7.77807617 285.63012695 C-3.17286405 277.22911275 1.21557788 268.72104884 5.60302734 260.20483398 C9.71362807 252.24616779 13.95367702 244.37032068 18.27514648 236.5246582 C22.23811721 229.30114807 26.04092639 222.00112472 29.81420898 214.67700195 C34.51335923 205.5557256 39.32494211 196.51179395 44.27514648 187.5246582 C48.86600864 179.15665814 53.23690635 170.68004246 57.60766602 162.19555664 C61.21033402 155.21990432 64.89682253 148.30114574 68.68920898 141.42700195 C73.69774198 132.33861393 78.49925449 123.15099377 83.25170898 113.92700195 C83.59304871 113.26478638 83.93438843 112.6025708 84.28607178 111.92028809 C86.47149344 107.67727655 88.64589183 103.42877967 90.81420898 99.17700195 C91.32556396 98.17838135 91.83691895 97.17976074 92.36376953 96.15087891 C92.81405518 95.26360107 93.26434082 94.37632324 93.72827148 93.4621582 C94.11321777 92.70555908 94.49816406 91.94895996 94.89477539 91.16943359 C96.63943586 87.38871823 97.12910897 84.53107189 96.18920898 80.48950195 C94.37454642 77.43756946 93.12180687 76.51411599 89.81420898 75.17700195 C81.5870518 73.86704683 75.42407038 76.95554879 68.56420898 81.17700195 C67.65670898 81.83700195 66.74920898 82.49700195 65.81420898 83.17700195 C64.57670898 83.98137695 64.57670898 83.98137695 63.31420898 84.80200195 C56.27742325 91.4869484 52.20022427 101.8877654 47.68920898 110.36450195 C47.02744883 111.60365313 46.36558184 112.84274725 45.70361328 114.08178711 C41.13094352 122.65192448 36.63141826 131.25899043 32.15893555 139.88183594 C28.83297521 146.27590001 25.4123699 152.61185208 21.93920898 158.92700195 C16.80995523 168.25460429 11.90063432 177.68615178 7.02563477 187.14868164 C2.91496507 195.10751748 -1.32517114 202.98352362 -5.64672852 210.8293457 C-9.60969924 218.05285583 -13.41250842 225.35287919 -17.18579102 232.67700195 C-21.88173948 241.79206348 -26.68197891 250.83461385 -31.64013672 259.80957031 C-34.74097529 265.44890855 -37.71942449 271.139642 -40.6388092 276.87503052 C-52.14710386 299.47878693 -52.14710386 299.47878693 -59.18579102 308.17700195 C-59.71688477 308.83700195 -60.24797852 309.49700195 -60.79516602 310.17700195 C-69.39867113 319.71752247 -83.68616444 327.57672812 -96.18579102 330.17700195 C-97.95724722 330.26244792 -99.73161624 330.29474999 -101.50512695 330.29052734 C-102.56592468 330.29045181 -103.62672241 330.29037628 -104.71966553 330.29029846 C-105.85833069 330.28513718 -106.99699585 330.27997589 -108.17016602 330.2746582 C-109.34089661 330.27324326 -110.5116272 330.27182831 -111.71783447 330.27037048 C-115.45717931 330.26477285 -119.19646428 330.25222075 -122.93579102 330.23950195 C-125.4709464 330.23448665 -128.00610272 330.2299238 -130.54125977 330.22583008 C-136.75612394 330.21480419 -142.9709532 330.19806839 -149.18579102 330.17700195 C-144.00369992 319.76658168 -138.7688502 309.38592805 -133.43579102 299.05200195 C-133.09163147 298.38446899 -132.74747192 297.71693604 -132.3928833 297.0291748 C-127.59170204 287.72479952 -122.68192093 278.49106919 -117.62426758 269.32299805 C-113.69061282 262.16884607 -109.92454477 254.93464266 -106.18579102 247.67700195 C-101.48667186 238.55571037 -96.67505736 229.511793 -91.72485352 220.5246582 C-87.13477844 212.15809278 -82.76466954 203.68291553 -78.39453125 195.19995117 C-74.76973478 188.18167518 -71.06163282 181.21946566 -67.24829102 174.30200195 C-62.58135525 165.83377173 -58.10486837 157.27612158 -53.68579102 148.67700195 C-49.18147595 139.91275883 -44.617538 131.18971801 -39.87329102 122.55200195 C-36.06370036 115.61387903 -32.27335062 108.66766548 -28.56079102 101.67700195 C-27.93950317 100.51950439 -27.93950317 100.51950439 -27.30566406 99.33862305 C-23.56626766 92.26315254 -21.48542625 87.15563661 -23.18579102 79.17700195 C-24.76625421 77.04681243 -25.83349632 76.3531493 -28.18579102 75.17700195 C-38.12339796 74.03107752 -45.25836691 77.4116026 -53.18579102 83.17700195 C-53.98791016 83.75699951 -54.7900293 84.33699707 -55.61645508 84.93457031 C-58.46858785 87.4238177 -60.10382315 89.81216782 -62.04516602 93.0559082 C-62.38529724 93.62346329 -62.72542847 94.19101837 -63.0758667 94.77577209 C-66.45592812 100.48992095 -69.51506582 106.36853958 -72.51245117 112.29101562 C-74.12559391 115.4767806 -75.75730983 118.65300728 -77.38891602 121.8293457 C-77.71380005 122.46238617 -78.03868408 123.09542664 -78.37341309 123.74765015 C-81.21862588 129.27540745 -84.17974956 134.73508334 -87.18579102 140.17700195 C-91.83385396 148.60260081 -96.28816156 157.11910051 -100.68579102 165.67700195 C-105.56266404 175.16732454 -110.54600632 184.58599764 -115.69750977 193.9309082 C-119.64548034 201.11959259 -123.42990729 208.38637963 -127.18579102 215.67700195 C-131.88492571 224.79828592 -136.6965244 233.84221043 -141.64672852 242.8293457 C-145.60971669 250.05288765 -149.4113751 257.35343914 -153.18579102 264.67700195 C-181.32917429 319.11823732 -181.32917429 319.11823732 -208.2346344 328.52775574 C-219.250693 331.84172509 -231.25832233 330.69029645 -242.62329102 330.48950195 C-245.10829449 330.46437471 -247.59332258 330.44156941 -250.07836914 330.42114258 C-256.1147212 330.36653089 -262.15013857 330.2832592 -268.18579102 330.17700195 C-263.00370062 319.76658309 -257.76892456 309.38588875 -252.43579102 299.05200195 C-252.09229614 298.38579834 -251.74880127 297.71959473 -251.39489746 297.03320312 C-246.544876 287.63485489 -241.58810703 278.30496077 -236.48364258 269.04174805 C-232.9582228 262.63352575 -229.55036169 256.17098806 -226.18579102 249.67700195 C-222.29485806 242.16813962 -218.32268399 234.7129057 -214.24829102 227.30200195 C-209.37473818 218.4351977 -204.68497404 209.48299279 -200.04150391 200.49389648 C-196.03747806 192.76293174 -191.90130968 185.11365726 -187.70532227 177.4855957 C-183.93091273 170.60051794 -180.28928879 163.65286001 -176.68579102 156.67700195 C-172.59040275 148.74922642 -168.42117348 140.8718971 -164.12329102 133.05200195 C-160.01486531 125.57531609 -155.99703089 118.05832172 -152.06079102 110.48950195 C-151.5612793 109.52931152 -151.06176758 108.56912109 -150.54711914 107.57983398 C-148.65042572 103.93000421 -146.75590969 100.27906265 -144.8659668 96.62573242 C-134.11904669 75.87149186 -123.33873176 56.29306523 -107.18579102 39.17700195 C-106.43942383 38.35458008 -105.69305664 37.5321582 -104.92407227 36.68481445 C-78.30333028 8.43602709 -37.28123938 0.06866435 0 0 Z " fill="#D90042" transform="translate(1184.185791015625,662.822998046875)"/>
<path d="M0 0 C8.06640897 6.66589723 13.67263885 15.7320649 15.33984375 26.12109375 C17.55754488 53.33584595 3.51015726 75.88595439 -9.26953125 98.9453125 C-13.46155752 106.53227178 -17.49103799 114.20467139 -21.53515625 121.87109375 C-27.44162507 133.05934858 -33.38856963 144.22318144 -39.40185547 155.35449219 C-44.02629492 163.92318924 -48.59839827 172.51893611 -53.16015625 181.12109375 C-58.895599 191.93516225 -64.65458623 202.73567136 -70.47900391 213.50219727 C-73.20526855 218.54480619 -75.91655688 223.59408856 -78.58267212 228.66873169 C-79.90797548 231.19051926 -81.23932829 233.70909432 -82.57073975 236.22766113 C-83.49871284 237.9894064 -84.41775634 239.7558464 -85.33642578 241.52246094 C-105.61504951 279.84346918 -143.11593869 307.02574856 -184.0859375 319.8046875 C-210.43780977 327.61875357 -241.42382113 331.20003709 -266.66015625 318.12109375 C-277.66793857 311.65244006 -285.70159035 303.01379847 -289.41015625 290.61328125 C-293.95378841 270.48246656 -285.82960789 252.72540471 -276.59765625 235.24609375 C-275.74675415 233.6216333 -275.74675415 233.6216333 -274.87866211 231.96435547 C-270.7548126 224.1199333 -266.5238819 216.33711796 -262.25170898 208.57275391 C-257.64659255 200.17231109 -253.25853588 191.66465252 -248.87133789 183.14892578 C-244.76073716 175.19025959 -240.52068821 167.31441247 -236.19921875 159.46875 C-232.23624782 152.24523949 -228.43345135 144.94521042 -224.66015625 137.62109375 C-219.93848236 128.4564402 -215.1062105 119.36741301 -210.13330078 110.33691406 C-206.32697637 103.40229445 -202.66548393 96.39921277 -199.03515625 89.37109375 C-182.63275077 57.74307184 -182.63275077 57.74307184 -172.66015625 46.12109375 C-171.95221924 45.29569092 -171.95221924 45.29569092 -171.22998047 44.45361328 C-164.64232563 36.87052923 -157.71003618 30.17208312 -149.66015625 24.12109375 C-149.13728027 23.72325684 -148.6144043 23.32541992 -148.07568359 22.91552734 C-139.07689984 16.10599597 -129.66815277 10.32610328 -119.66015625 5.12109375 C-118.98082031 4.76772949 -118.30148437 4.41436523 -117.6015625 4.05029297 C-106.66441918 -1.55008264 -95.51525516 -5.67352273 -83.66015625 -8.87890625 C-82.90492676 -9.09063477 -82.14969727 -9.30236328 -81.37158203 -9.52050781 C-54.86429627 -16.7160756 -23.04522741 -16.27717237 0 0 Z M-111.66015625 73.12109375 C-116.76684392 80.56042096 -120.75831711 88.82177213 -124.94628906 96.80224609 C-126.93756399 100.59647775 -128.93825589 104.38574454 -130.9375 108.17578125 C-131.54100784 109.32080109 -131.54100784 109.32080109 -132.15670776 110.48895264 C-135.79266835 117.3835528 -139.47044638 124.25509471 -143.16015625 131.12109375 C-148.69841487 141.43443284 -154.18952259 151.77177749 -159.66015625 162.12109375 C-165.17459307 172.55251901 -170.70768569 182.97321159 -176.28515625 193.37109375 C-176.8795752 194.47960693 -177.47399414 195.58812012 -178.08642578 196.73022461 C-180.30126327 200.85994252 -182.51627387 204.98956755 -184.73217773 209.11871338 C-186.97401798 213.29654316 -189.21345002 217.47564892 -191.44989014 221.65637207 C-192.16781212 222.99741367 -192.88658948 224.33799772 -193.60626221 225.67810059 C-194.60296051 227.53424732 -195.59673613 229.39193027 -196.58984375 231.25 C-197.15944824 232.3129126 -197.72905273 233.3758252 -198.31591797 234.47094727 C-200.81862883 239.40500581 -201.53949955 243.95545786 -200.03515625 249.37109375 C-197.91923408 252.0640856 -195.86067409 252.93571677 -192.66015625 254.12109375 C-184.30642139 255.09569615 -177.26092257 252.17671362 -170.47265625 247.37109375 C-161.69909558 240.13548115 -156.77446555 231.32561383 -151.66015625 221.37109375 C-150.91258744 219.93670571 -150.16378675 218.5029591 -149.41381836 217.06982422 C-147.887549 214.15182862 -146.36584478 211.2315239 -144.84716797 208.30957031 C-141.69533957 202.25812889 -138.45790384 196.25328679 -135.22265625 190.24609375 C-129.70809621 179.97303765 -124.23654068 169.67779025 -118.78515625 159.37109375 C-118.40806519 158.65816162 -118.03097412 157.94522949 -117.64245605 157.21069336 C-116.1169755 154.32649771 -114.59152947 151.44228381 -113.06613159 148.55804443 C-109.39518365 141.61802487 -105.71763957 134.68151815 -102.03543091 127.74746704 C-101.32993852 126.41891294 -100.62459461 125.09027998 -99.91940308 123.76156616 C-96.10060897 116.56704492 -92.26738188 109.38073403 -88.40234375 102.2109375 C-87.71312643 100.93083131 -87.0239173 99.65072071 -86.3347168 98.37060547 C-85.05346816 95.9912492 -83.76790089 93.61440697 -82.47973633 91.23876953 C-75.48107359 79.83275388 -75.48107359 79.83275388 -73.66015625 67.12109375 C-75.39041775 63.31451846 -76.82154415 61.67287311 -80.66015625 60.12109375 C-92.70779928 58.0603127 -103.72057927 64.3917433 -111.66015625 73.12109375 Z " fill="#D90042" transform="translate(1942.66015625,673.87890625)"/>
<path d="M0 0 C8.62769247 7.10600295 14.47155924 16.85186455 15.60644531 28.05957031 C16.85837136 45.24796381 11.56768405 58.88011402 3.63037109 73.81591797 C2.28489838 76.35772536 0.96547386 78.91209675 -0.3515625 81.46875 C-5.66029894 91.74963577 -11.10407192 101.94820504 -16.67358398 112.08984375 C-21.33310214 120.59820571 -25.87214524 129.16845689 -30.40234375 137.74609375 C-38.40802301 152.90198097 -46.48163526 168.01974599 -54.58984375 183.12109375 C-57.04925244 187.70385101 -59.50734281 192.28731323 -61.96484375 196.87109375 C-62.57432861 198.00683838 -63.18381348 199.14258301 -63.81176758 200.31274414 C-67.22846271 206.68668315 -70.62363184 213.07129418 -73.99609375 219.46875 C-74.74813713 220.89294193 -75.5002528 222.3170957 -76.25244141 223.74121094 C-77.6785694 226.44130927 -79.09939285 229.14410053 -80.51708984 231.84863281 C-83.95286647 238.37392641 -87.50444827 244.81443743 -91.26953125 251.15625 C-91.62336884 251.75758255 -91.97720642 252.3589151 -92.34176636 252.97846985 C-113.565334 288.24100801 -154.83170045 312.52299155 -193.90234375 322.43359375 C-196.45871874 323.03832762 -199.01716721 323.58500722 -201.58984375 324.12109375 C-202.66621094 324.34667969 -203.74257812 324.57226562 -204.8515625 324.8046875 C-227.17538796 328.70933731 -251.85800185 327.60550052 -271.40234375 315.24609375 C-272.81770237 314.23111586 -274.21490818 313.19019259 -275.58984375 312.12109375 C-276.20472656 311.64414062 -276.81960938 311.1671875 -277.453125 310.67578125 C-284.07127689 304.83537227 -289.48462167 294.8954788 -290.58984375 286.12109375 C-291.77646811 265.28670839 -284.44333121 249.1463208 -274.71484375 231.12109375 C-273.95717435 229.70730335 -273.20002233 228.29323556 -272.44335938 226.87890625 C-270.52712615 223.29991141 -268.6048326 219.72421319 -266.68078613 216.14941406 C-264.4159191 211.93848974 -262.16067933 207.7224074 -259.90356445 203.50732422 C-258.68931743 201.2403157 -257.47430443 198.97371729 -256.25854492 196.70751953 C-251.49010685 187.81674256 -246.7550683 178.90856507 -242.02734375 169.99609375 C-236.35550279 159.30411349 -230.64552731 148.6338705 -224.89599609 137.98339844 C-220.64606042 130.10257889 -216.43478576 122.20184232 -212.23831177 114.29248047 C-211.15682754 112.25454296 -210.0745193 110.21704527 -208.99194336 108.1796875 C-204.75600325 100.20858833 -204.75600325 100.20858833 -200.53515625 92.22949219 C-180.81092314 54.85156674 -180.81092314 54.85156674 -167.58984375 41.12109375 C-166.60072296 39.92089507 -165.62018292 38.71351896 -164.65234375 37.49609375 C-160.576773 32.70130464 -155.53248703 28.9740204 -150.58984375 25.12109375 C-149.17832031 24.00347656 -149.17832031 24.00347656 -147.73828125 22.86328125 C-128.57805594 8.04122016 -106.8404136 -2.25105589 -83.58984375 -8.87890625 C-82.80625488 -9.10481445 -82.02266602 -9.33072266 -81.21533203 -9.56347656 C-54.90885491 -16.80624104 -22.65899435 -16.43887825 0 0 Z M-110.58984375 76.12109375 C-113.59224647 80.93307922 -116.14962208 85.94141146 -118.71484375 90.99609375 C-119.45928507 92.43445019 -120.20540549 93.87193872 -120.953125 95.30859375 C-122.46165873 98.20905839 -123.96396096 101.11261292 -125.46191406 104.01855469 C-128.4296871 109.75980412 -131.50784649 115.44056736 -134.58984375 121.12109375 C-139.84463619 130.84672205 -145.03813064 140.60379693 -150.21484375 150.37109375 C-154.95594793 159.31601894 -159.71958931 168.24556236 -164.58984375 177.12109375 C-170.2955069 187.52137814 -175.87965442 197.98542873 -181.41577148 208.47680664 C-182.13126407 209.83223814 -182.84683902 211.18762616 -183.5625 212.54296875 C-183.9095549 213.20034531 -184.2566098 213.85772186 -184.61418152 214.53501892 C-186.66437603 218.40727007 -188.75892012 222.25028753 -190.8984375 226.07421875 C-191.37265137 226.93378174 -191.84686523 227.79334473 -192.33544922 228.67895508 C-193.17455351 230.19522307 -194.02765641 231.7038875 -194.89892578 233.2019043 C-197.55623435 238.05046133 -198.62447703 242.59463794 -197.58984375 248.12109375 C-195.11444745 251.24791013 -192.86677997 253.82175515 -188.77734375 254.359375 C-179.23908981 254.68299433 -172.15863834 251.00069712 -164.79296875 245.1953125 C-158.31348687 239.09494924 -154.4289637 232.50086054 -150.46484375 224.55859375 C-149.3130547 222.2972304 -148.15937452 220.03682937 -147.00390625 217.77734375 C-146.14200684 216.08738281 -146.14200684 216.08738281 -145.26269531 214.36328125 C-142.86605108 209.71829651 -140.36315099 205.13566497 -137.83984375 200.55859375 C-132.88212749 191.53918426 -128.03381664 182.46507424 -123.21484375 173.37109375 C-117.4332998 162.46302526 -111.62025378 151.57316704 -105.75830078 140.70800781 C-100.89530585 131.69401492 -96.05655636 122.66716794 -91.22558594 113.63598633 C-88.0185416 107.6435895 -84.801744 101.6568419 -81.56640625 95.6796875 C-80.91338814 94.47201782 -80.26039298 93.26433572 -79.60742188 92.05664062 C-78.37117318 89.7716856 -77.1329764 87.4877832 -75.89257812 85.20507812 C-75.0659668 83.67657227 -75.0659668 83.67657227 -74.22265625 82.1171875 C-73.73684082 81.22185303 -73.25102539 80.32651855 -72.75048828 79.40405273 C-70.54568696 75.06726326 -69.88661326 70.93119029 -70.58984375 66.12109375 C-72.38348286 63.31105915 -73.6086531 61.61168907 -76.58984375 60.12109375 C-90.65849272 58.65410642 -101.74628536 65.49418498 -110.58984375 76.12109375 Z " fill="#D90041" transform="translate(1580.58984375,673.87890625)"/>
<path d="M0 0 C8.83659632 9.88710078 12.10733147 21.05525517 11.9453125 34.1640625 C10.36597989 55.90849704 -2.07684104 75.3079691 -12.32421875 93.875 C-16.61421875 102.125 -20.90421875 110.375 -25.32421875 118.875 C-51.06421875 118.875 -76.80421875 118.875 -103.32421875 118.875 C-97.89591236 108.01838722 -92.3897092 97.28389435 -86.44433594 86.71337891 C-80.59239572 76.39697524 -80.59239572 76.39697524 -78.32421875 64.875 C-79.81182412 61.11683907 -80.9480634 60.12577024 -84.32421875 57.875 C-92.73983342 56.19187707 -100.48109056 59.06387497 -107.56030273 63.53393555 C-116.09359302 70.02159832 -120.62954055 79.37283035 -125.38671875 88.6875 C-126.12879391 90.11597004 -126.8723096 91.54369257 -127.6171875 92.97070312 C-129.1326815 95.87589914 -130.64269587 98.7838388 -132.14892578 101.69384766 C-135.3106929 107.78823798 -138.56853057 113.83034359 -141.82421875 119.875 C-147.18425014 129.86093896 -152.51195038 139.86360154 -157.82421875 149.875 C-163.73586749 161.01597913 -169.67426477 172.14201038 -175.63818359 183.25512695 C-179.06002031 189.63566385 -182.46924383 196.02260938 -185.86328125 202.41796875 C-186.24607239 203.13920929 -186.62886353 203.86044983 -187.02325439 204.60354614 C-188.88481496 208.11187182 -190.74500853 211.62091525 -192.60351562 215.13085938 C-193.28381727 216.41408206 -193.96415473 217.69728576 -194.64453125 218.98046875 C-195.1280732 219.8947187 -195.1280732 219.8947187 -195.62138367 220.82743835 C-197.79580334 224.92499969 -200.05362839 228.96484507 -202.41577148 232.95703125 C-204.03618051 236.37813669 -204.60503119 240.10923315 -204.32421875 243.875 C-203.08245298 247.15638104 -202.36897574 247.84516201 -199.32421875 249.875 C-191.12197476 251.80493976 -184.56033466 249.57220606 -177.54296875 245.390625 C-163.19007191 235.58618138 -156.04508382 216.84928737 -148.32421875 201.875 C-154.26421875 201.875 -160.20421875 201.875 -166.32421875 201.875 C-161.60060889 191.51939376 -156.58985613 181.45869931 -151.06542969 171.50732422 C-145.99680233 162.36811881 -141.19827312 153.13570331 -136.32421875 143.875 C-104.31421875 143.875 -72.30421875 143.875 -39.32421875 143.875 C-44.19827046 153.62310342 -49.08296848 163.29660349 -54.26171875 172.875 C-55.57412815 175.31184877 -56.88470149 177.74968364 -58.1953125 180.1875 C-58.53142548 180.81221191 -58.86753845 181.43692383 -59.21383667 182.08056641 C-62.75105821 188.65909902 -66.25266397 195.25640613 -69.75219727 201.8550415 C-70.82367492 203.8739753 -71.89689555 205.89197254 -72.97070312 207.90966797 C-76.12527509 213.83863792 -79.27409626 219.77004366 -82.38420105 225.7224884 C-104.93693374 268.86542322 -137.38893177 300.13181597 -184.32421875 315.875 C-212.26762866 324.53231411 -244.1925035 329.03614316 -271.19921875 315 C-281.61059889 308.9342394 -289.32416582 300.76125451 -292.81640625 288.98046875 C-299.52288035 261.17439538 -282.9685037 236.41333687 -270.32421875 212.875 C-268.82950586 210.08848608 -267.33492179 207.30190312 -265.84042358 204.51527405 C-265.52570099 203.92846359 -265.21097839 203.34165314 -264.88671875 202.73706055 C-264.56815918 202.14307465 -264.24959961 201.54908875 -263.92138672 200.93710327 C-263.27271993 199.72800026 -262.62379367 198.51903641 -261.97460938 197.31021118 C-257.63855594 189.23591378 -253.3558779 181.13615041 -249.13671875 173 C-245.32897215 165.65793542 -241.43486307 158.3719839 -237.44921875 151.125 C-232.319965 141.79739766 -227.41064409 132.36585017 -222.53564453 122.90332031 C-218.42785329 114.95005755 -214.19549829 107.07675404 -209.86987305 99.24023438 C-206.45606226 93.02774445 -203.18650063 86.74951435 -199.96020508 80.43798828 C-191.81563845 64.50833033 -183.39142976 50.14849025 -171.32421875 36.875 C-170.55722656 36.02421875 -169.79023437 35.1734375 -169 34.296875 C-140.81981502 4.63352239 -97.6424439 -15.16122458 -56.76953125 -17.09375 C-36.80187173 -17.27486256 -15.11019864 -14.49543681 0 0 Z " fill="#D90041" transform="translate(2168.32421875,676.125)"/>
<path d="M0 0 C0.8392099 -0.00794586 1.6784198 -0.01589172 2.5430603 -0.02407837 C21.07562636 -0.15875449 40.07352334 1.96603619 54.125 15.375 C63.18922995 25.10840129 65.46226326 36.58198609 65.33984375 49.53125 C64.39100489 66.50683984 58.21010188 82.10436648 50.39257812 96.95898438 C48.96024706 99.68902062 47.54992749 102.42988192 46.140625 105.171875 C39.84837289 117.38400011 33.39785082 129.50014029 26.7734375 141.53515625 C25.18487345 144.4236074 23.61879649 147.31955592 22.1015625 150.24609375 C16.2077253 161.56706158 8.89557352 171.13109394 0.125 180.375 C-0.76960938 181.3340625 -1.66421875 182.293125 -2.5859375 183.28125 C-31.64633293 213.81568762 -74.7086818 231.62117321 -116.33984375 234.625 C-124.26089267 234.79511649 -132.06340241 233.57021712 -139.875 232.375 C-140.14199707 233.0750415 -140.40899414 233.77508301 -140.68408203 234.49633789 C-141.95480324 237.56789872 -143.40449439 240.480092 -144.9296875 243.43359375 C-145.37611351 244.29923195 -145.37611351 244.29923195 -145.83155823 245.18235779 C-146.8016106 247.06051559 -147.7755153 248.93663853 -148.75 250.8125 C-149.08347443 251.45616516 -149.41694885 252.09983032 -149.76052856 252.76300049 C-155.11777102 263.09957203 -160.60838544 273.35584503 -166.23828125 283.546875 C-167.89480994 286.55314587 -169.50159031 289.57376607 -171.04296875 292.640625 C-180.73236112 311.86255423 -194.53328072 324.0808875 -214.80175781 331.43725586 C-220.15536191 332.93238762 -225.63892426 332.62098345 -231.15234375 332.5703125 C-232.3188295 332.5674826 -233.48531525 332.56465271 -234.68714905 332.56173706 C-238.39570576 332.55058388 -242.10401685 332.52548786 -245.8125 332.5 C-248.33398088 332.48996393 -250.85546555 332.48083918 -253.37695312 332.47265625 C-259.5430519 332.45066044 -265.70900839 332.41723118 -271.875 332.375 C-270.70569278 328.64668186 -269.42064071 325.26358733 -267.51171875 321.85546875 C-267.04378906 321.01113281 -266.57585938 320.16679688 -266.09375 319.296875 C-265.5884375 318.39453125 -265.083125 317.4921875 -264.5625 316.5625 C-260.04386992 308.39378432 -255.65392386 300.17174117 -251.375 291.875 C-246.83128313 283.07741824 -242.16667259 274.35906969 -237.39453125 265.68359375 C-233.62012194 258.79851639 -229.97848364 251.850865 -226.375 244.875 C-221.83064789 236.0777388 -217.16668125 227.35908543 -212.39453125 218.68359375 C-208.62012171 211.79851599 -204.97849777 204.85085805 -201.375 197.875 C-196.80653843 189.03145808 -192.11960168 180.26527944 -187.32421875 171.54296875 C-183.75352103 165.03114369 -180.2918135 158.46873371 -176.875 151.875 C-172.48467234 143.40298935 -167.972089 135.00813307 -163.375 126.64672852 C-159.77769167 120.08386572 -156.30858856 113.46221278 -152.875 106.8125 C-144.5049925 90.6804924 -135.93832398 74.83661462 -124.875 60.375 C-124.22273438 59.51132812 -123.57046875 58.64765625 -122.8984375 57.7578125 C-101.44619684 30.12591404 -74.18970312 11.18546352 -39.875 3.375 C-39.17648926 3.20983887 -38.47797852 3.04467773 -37.75830078 2.87451172 C-25.31233253 0.07366199 -12.69329876 0.06360661 0 0 Z M-60.29101562 84.96899414 C-65.03229555 90.96249458 -68.4630038 97.69330383 -72 104.4375 C-72.65985063 105.68307134 -73.32025943 106.92834714 -73.98120117 108.17333984 C-78.58347683 116.85749695 -83.11850726 125.57710192 -87.64013672 134.3034668 C-91.27516262 141.29538499 -95.05162302 148.19980379 -98.9309082 155.05908203 C-100.95769382 158.05058445 -100.95769382 158.05058445 -101.875 161.375 C-83.24252499 161.81687688 -70.59234031 158.28395409 -56.6640625 145.44921875 C-49.61761077 138.10349687 -45.20174796 128.66480026 -40.5 119.75 C-39.83619039 118.49920966 -39.17196258 117.24864118 -38.50732422 115.99829102 C-37.21103274 113.55844132 -35.91708223 111.11737415 -34.625 108.67529297 C-33.1447874 105.88378712 -31.65538063 103.09777939 -30.15625 100.31640625 C-29.78161621 99.62047363 -29.40698242 98.92454102 -29.02099609 98.20751953 C-28.07937067 96.45981592 -27.13735934 94.71232024 -26.1953125 92.96484375 C-23.73855553 88.14582047 -23.02257917 83.71433926 -23.875 78.375 C-26.40468474 75.09324682 -27.95231331 73.68256223 -31.875 72.375 C-42.95703964 71.48843683 -52.97495342 76.7333786 -60.29101562 84.96899414 Z " fill="#D90042" transform="translate(2335.875,660.625)"/>
<path d="M0 0 C1.06079773 0.00007553 2.12159546 0.00015106 3.21453857 0.00022888 C4.35320374 0.00539017 5.4918689 0.01055145 6.66503906 0.01586914 C7.83576965 0.01728409 9.00650024 0.01869904 10.21270752 0.02015686 C13.95205235 0.0257545 17.69133732 0.03830659 21.43066406 0.05102539 C23.96581945 0.05604069 26.50097577 0.06060355 29.03613281 0.06469727 C35.25099699 0.07572315 41.46582625 0.09245895 47.68066406 0.11352539 C42.18617767 11.22881896 36.50431434 22.2299956 30.68066406 33.17602539 C29.91747223 34.6140857 29.15445117 36.05223664 28.39160156 37.49047852 C23.5015416 46.70542115 18.58987911 55.90874718 13.68066406 65.11352539 C35.46066406 65.60852539 35.46066406 65.60852539 57.68066406 66.11352539 C52.47945031 76.51595289 47.26436596 86.90436521 41.93066406 97.23852539 C41.59016022 97.89874695 41.24965637 98.55896851 40.89883423 99.23919678 C34.676394 111.29305896 28.37327556 123.31241755 21.68066406 135.11352539 C21.35066406 136.01530518 21.02066406 136.91708496 20.68066406 137.84619141 C18.68066406 140.11352539 18.68066406 140.11352539 16.63606262 140.54400635 C13.85221297 140.69559419 11.11229894 140.67440628 8.32519531 140.60180664 C7.30842209 140.5947319 6.29164886 140.58765717 5.24406433 140.58036804 C1.99301922 140.55235457 -1.25631047 140.48960124 -4.50683594 140.42602539 C-6.70928504 140.4009516 -8.91176111 140.37813684 -11.11425781 140.35766602 C-16.51653689 140.30250549 -21.91781389 140.21881031 -27.31933594 140.11352539 C-27.60131836 141.01176025 -27.88330078 141.90999512 -28.17382812 142.83544922 C-29.15018078 145.62945755 -30.20598592 147.99407253 -31.64746094 150.56274414 C-32.11023437 151.39676758 -32.57300781 152.23079102 -33.04980469 153.09008789 C-33.55125 153.98469727 -34.05269531 154.87930664 -34.56933594 155.80102539 C-39.29301709 164.33598962 -43.85701771 172.93916437 -48.31933594 181.61352539 C-52.53364076 189.79531772 -56.81372863 197.92865687 -61.25683594 205.98852539 C-66.2647024 215.07537985 -71.04572304 224.26997642 -75.787323 233.49725342 C-79.86412184 241.4260878 -84.01342722 249.30596413 -88.31933594 257.11352539 C-95.00635789 269.24999161 -101.34556255 281.56053122 -107.65722656 293.89477539 C-109.10673599 296.70181597 -110.58496511 299.48951407 -112.08496094 302.26977539 C-112.47200195 303.00083496 -112.85904297 303.73189453 -113.2578125 304.48510742 C-114.22594721 306.31227242 -115.20934314 308.13133035 -116.19433594 309.94946289 C-117.57348012 313.82830591 -117.36966066 316.1582485 -116.31933594 320.11352539 C-114.01576962 323.18954508 -110.95087544 324.90301222 -107.31933594 326.11352539 C-98.37691687 326.61460922 -90.00069816 326.63856292 -81.42089844 323.76977539 C-79.31933594 323.11352539 -79.31933594 323.11352539 -76.31933594 323.11352539 C-77.72049182 327.74400777 -79.6401455 331.90706005 -81.92480469 336.15258789 C-82.2805809 336.82356506 -82.63635712 337.49454224 -83.00291443 338.18585205 C-84.97264629 341.89437785 -86.96552549 345.59034258 -88.95947266 349.28588867 C-89.78950317 350.82715534 -90.61909068 352.36866067 -91.44824219 353.91040039 C-91.86253479 354.67992035 -92.27682739 355.44944031 -92.70367432 356.24227905 C-95.37758091 361.24564678 -97.87570909 366.30610425 -100.28417969 371.44165039 C-109.50158673 390.80898418 -109.50158673 390.80898418 -115.59667969 393.69555664 C-119.49102178 394.94220231 -123.23329415 395.12698107 -127.31933594 395.11352539 C-128.24875 395.27981445 -129.17816406 395.44610352 -130.13574219 395.61743164 C-149.61677214 398.65312588 -171.34518897 395.96381847 -188.13183594 385.33227539 C-198.4293528 377.67192748 -205.01936897 367.77771852 -207.31933594 355.11352539 C-209.93145159 330.05354087 -196.54548553 309.62824122 -184.94238281 288.57592773 C-181.12516097 281.64343146 -177.44960287 274.64551292 -173.81933594 267.61352539 C-169.76704619 259.76796072 -165.64036095 251.97409077 -161.38183594 244.23852539 C-156.89950694 236.09424061 -152.57696388 227.8774084 -148.31933594 219.61352539 C-143.57210263 210.39964501 -138.71423705 201.26080599 -133.71777344 192.17993164 C-130.1624074 185.70273553 -126.7186155 179.17384817 -123.31933594 172.61352539 C-119.44987813 165.14579824 -115.49882451 157.73239748 -111.44433594 150.36352539 C-106.31567842 141.03746659 -101.40734917 131.60723373 -96.53295898 122.14624023 C-92.39748222 114.13962906 -88.1338307 106.21455577 -83.78808594 98.32055664 C-80.028861 91.47019183 -76.40545815 84.55588337 -72.81933594 77.61352539 C-67.67249935 67.65255211 -62.3781296 57.78342769 -56.97167969 47.96118164 C-55.36901354 45.04719177 -53.790533 42.12500688 -52.26074219 39.17211914 C-48.83519708 32.5880536 -45.21715014 26.70492984 -40.31933594 21.11352539 C-39.44728516 20.10032227 -39.44728516 20.10032227 -38.55761719 19.06665039 C-29.08264157 8.81699123 -14.29804852 -0.03404297 0 0 Z " fill="#D90041" transform="translate(1718.3193359375,603.886474609375)"/>
<path d="M0 0 C1.93166016 0.01740234 1.93166016 0.01740234 3.90234375 0.03515625 C5.19269531 0.04417969 6.48304688 0.05320312 7.8125 0.0625 C8.81152344 0.07410156 9.81054688 0.08570313 10.83984375 0.09765625 C11.98692364 7.08899985 13.12533484 14.08171581 14.2578125 21.07543945 C14.64385089 23.45304083 15.03185153 25.83032448 15.421875 28.20727539 C15.98306759 31.62954806 16.53712685 35.05291204 17.08984375 38.4765625 C17.26483398 39.53412247 17.43982422 40.59168243 17.62011719 41.68128967 C18.45409376 46.89089027 19.04790511 51.82135018 18.83984375 57.09765625 C19.49984375 57.09765625 20.15984375 57.09765625 20.83984375 57.09765625 C21.10829102 56.38714111 21.37673828 55.67662598 21.65332031 54.94458008 C22.8734587 52.01700112 24.28452064 49.31922296 25.82421875 46.546875 C26.42347168 45.46647949 27.02272461 44.38608398 27.64013672 43.27294922 C28.28354004 42.12197754 28.92694336 40.97100586 29.58984375 39.78515625 C29.91776917 39.19671936 30.24569458 38.60828247 30.58355713 38.00201416 C35.54082079 29.10839163 40.58826961 20.26978773 45.71484375 11.47265625 C46.31522461 10.44229248 46.91560547 9.41192871 47.53417969 8.3503418 C51.70714749 1.23035251 51.70714749 1.23035251 52.83984375 0.09765625 C55.1929793 0.02493884 57.54818043 0.01394757 59.90234375 0.03515625 C61.83787109 0.04869141 61.83787109 0.04869141 63.8125 0.0625 C64.81152344 0.07410156 65.81054688 0.08570313 66.83984375 0.09765625 C63.85783996 16.32252013 60.53792602 32.46637143 57.08984375 48.59765625 C56.88771271 49.5475946 56.68558167 50.49753296 56.47732544 51.47625732 C55.89820048 54.19449594 55.31507787 56.91184245 54.73046875 59.62890625 C54.55460739 60.45488312 54.37874603 61.28085999 54.19755554 62.13186646 C52.95511152 67.86712071 52.95511152 67.86712071 51.83984375 70.09765625 C48.53984375 70.09765625 45.23984375 70.09765625 41.83984375 70.09765625 C44.14427529 58.14776954 46.81822167 46.30320019 49.58666992 34.45361328 C50.12565048 32.14288502 50.66068391 29.83126963 51.1953125 27.51953125 C51.36089157 26.81648865 51.52647064 26.11344604 51.69706726 25.38909912 C52.35250228 22.54891726 52.83984375 20.02433571 52.83984375 17.09765625 C52.46811035 17.76595459 52.09637695 18.43425293 51.71337891 19.12280273 C44.24256316 32.54149289 36.71223641 45.91019226 28.83984375 59.09765625 C28.20949219 60.16113281 27.57914063 61.22460938 26.9296875 62.3203125 C22.98242188 68.95507812 22.98242188 68.95507812 21.83984375 70.09765625 C20.15375409 70.16971136 18.46483716 70.18151693 16.77734375 70.16015625 C15.39869141 70.14662109 15.39869141 70.14662109 13.9921875 70.1328125 C12.92677734 70.11541016 12.92677734 70.11541016 11.83984375 70.09765625 C10.86062805 63.81723498 9.88210445 57.53670616 8.90405273 51.25610352 C8.57152837 49.12131329 8.23884794 46.98654736 7.90600586 44.85180664 C7.4265058 41.77626888 6.94757452 38.700643 6.46875 35.625 C6.32079483 34.67680893 6.17283966 33.72861786 6.020401 32.75169373 C5.88033127 31.8512886 5.74026154 30.95088348 5.59594727 30.02319336 C5.46431183 29.17941132 5.33267639 28.33562927 5.197052 27.46627808 C4.87248882 25.31412331 4.58265964 23.16022383 4.30053711 21.00219727 C4.14950271 18.2114465 4.14950271 18.2114465 2.83984375 17.09765625 C2.7167836 17.73214691 2.59372345 18.36663757 2.4669342 19.02035522 C1.1889103 25.60670545 -0.09318748 32.19225315 -1.37768555 38.77734375 C-1.85692845 41.2370998 -2.33512189 43.69706056 -2.81225586 46.15722656 C-3.49709602 49.68738913 -4.18567086 53.21680536 -4.875 56.74609375 C-5.08857651 57.85133392 -5.30215302 58.9565741 -5.52220154 60.0953064 C-5.72233353 61.11621368 -5.92246552 62.13712097 -6.12866211 63.18896484 C-6.30409042 64.09053314 -6.47951874 64.99210144 -6.66026306 65.92098999 C-7.16015625 68.09765625 -7.16015625 68.09765625 -8.16015625 70.09765625 C-11.46015625 70.09765625 -14.76015625 70.09765625 -18.16015625 70.09765625 C-16.80136814 61.50807615 -15.16804381 53.00094267 -13.375 44.4921875 C-13.11384903 43.24636398 -12.85269806 42.00054047 -12.58363342 40.71696472 C-12.03611565 38.10912737 -11.48754981 35.50153729 -10.93725586 32.89428711 C-10.23129893 29.54832076 -9.53116123 26.2011652 -8.83248043 22.85367298 C-8.16262353 19.6491142 -7.48726712 16.44571536 -6.8125 13.2421875 C-6.43592506 11.43618828 -6.43592506 11.43618828 -6.05174255 9.59370422 C-5.81802444 8.49132919 -5.58430634 7.38895416 -5.34350586 6.25317383 C-5.03611732 4.79189812 -5.03611732 4.79189812 -4.72251892 3.30110168 C-3.84786659 -0.12595487 -3.71044981 0.11466161 0 0 Z M53.83984375 14.09765625 C54.83984375 16.09765625 54.83984375 16.09765625 54.83984375 16.09765625 Z " fill="#D90042" transform="translate(2491.16015625,660.90234375)"/>
<path d="M0 0 C19.14 0 38.28 0 58 0 C57.67 2.64 57.34 5.28 57 8 C49.08 8.33 41.16 8.66 33 9 C28.71 29.13 24.42 49.26 20 70 C16.37 70 12.74 70 9 70 C10.26304916 62.16837243 11.6836083 54.40781867 13.34765625 46.65234375 C13.56441513 45.63322403 13.78117401 44.61410431 14.00450134 43.56410217 C14.45786481 41.43544847 14.91251142 39.30706766 15.3684082 37.17895508 C16.06733208 33.91493387 16.7614914 30.64992467 17.45507812 27.38476562 C17.89815899 25.30723225 18.34150855 23.22975616 18.78515625 21.15234375 C18.99245865 20.17740463 19.19976105 19.20246552 19.41334534 18.19798279 C19.60702194 17.29596634 19.80069855 16.39394989 20.00024414 15.46459961 C20.16964005 14.67250595 20.33903595 13.88041229 20.51356506 13.0643158 C21 11 21 11 22 8 C14.41 8 6.82 8 -1 8 C-0.67 5.36 -0.34 2.72 0 0 Z " fill="#D90041" transform="translate(2423,661)"/>
</svg>
